{"glyphs":{"0":{"ha":833,"x_min":97,"x_max":739,"o":"m 739 376 l 739 610 q 716 778 739 705 q 653 901 694 851 q 552 976 611 951 q 417 1002 492 1002 q 283 976 342 1002 q 182 901 224 951 q 119 778 141 851 q 97 610 97 705 l 97 376 q 119 209 97 281 q 183 87 141 136 q 284 11 224 37 q 418 -14 344 -14 q 553 11 494 -14 q 653 87 612 37 q 716 209 694 136 q 739 376 739 281 m 260 434 q 260 467 260 454 q 260 507 260 481 l 260 640 q 271 746 260 701 q 304 819 281 791 q 351 857 323 844 q 417 870 380 870 q 479 859 452 870 q 526 827 507 848 q 559 764 547 802 q 574 672 571 725 l 260 434 m 575 349 q 564 241 575 287 q 530 166 553 195 q 483 129 511 142 q 418 117 455 117 q 353 130 381 117 q 306 168 325 142 q 276 228 287 192 q 261 311 264 264 l 575 547 q 575 509 575 528 q 575 474 575 491 l 575 349 z "},"1":{"ha":833,"x_min":127,"x_max":544,"o":"m 544 0 l 544 987 l 534 987 l 127 837 l 127 694 l 380 787 l 380 0 l 544 0 z "},"2":{"ha":833,"x_min":52,"x_max":734,"o":"m 734 0 l 734 131 l 274 131 l 494 366 q 574 455 537 412 q 638 541 611 498 q 680 628 665 584 q 695 718 695 671 q 675 832 695 781 q 616 922 654 884 q 519 980 576 959 q 389 1001 462 1001 q 249 976 312 1001 q 143 908 186 951 q 75 808 99 865 q 52 686 52 751 l 214 686 q 225 763 214 729 q 258 820 236 796 q 311 854 279 842 q 386 867 342 867 q 447 855 420 867 q 494 823 475 844 q 524 774 514 803 q 534 711 534 746 q 527 660 534 686 q 504 606 520 635 q 460 542 487 576 q 393 463 433 507 l 71 113 l 71 0 l 734 0 z "},"3":{"ha":833,"x_min":64,"x_max":721,"o":"m 277 567 l 277 439 l 374 439 q 450 430 416 439 q 509 400 484 420 q 546 349 533 380 q 559 276 559 319 q 548 209 559 238 q 515 159 536 179 q 462 128 494 138 q 391 117 431 117 q 325 128 355 117 q 273 159 294 139 q 238 205 250 178 q 227 265 227 233 l 64 265 q 91 144 64 196 q 163 57 118 92 q 267 4 208 22 q 389 -14 326 -14 q 520 6 460 -14 q 626 62 581 25 q 695 153 670 99 q 721 276 721 207 q 712 348 721 313 q 684 414 703 383 q 633 468 664 444 q 558 507 602 492 q 623 548 595 524 q 669 600 651 572 q 697 659 688 629 q 706 720 706 690 q 683 842 706 789 q 618 930 660 894 q 518 983 576 965 q 389 1001 459 1001 q 263 981 321 1001 q 164 924 206 960 q 98 838 122 888 q 75 730 75 789 l 237 730 q 249 787 237 762 q 281 831 260 813 q 330 860 302 850 q 391 869 358 869 q 457 859 429 869 q 505 831 486 849 q 534 783 524 811 q 544 720 544 755 q 533 660 544 688 q 503 612 523 631 q 450 579 482 591 q 374 567 417 567 l 277 567 z "},"4":{"ha":833,"x_min":45,"x_max":762,"o":"m 638 352 l 638 987 l 471 987 l 45 320 l 49 220 l 476 220 l 476 0 l 638 0 l 638 220 l 762 220 l 762 352 l 638 352 m 210 352 l 457 735 l 476 770 l 476 352 l 210 352 z "},"5":{"ha":833,"x_min":99,"x_max":745,"o":"m 130 490 l 259 458 q 286 480 272 470 q 317 499 300 491 q 354 511 333 507 q 405 516 376 516 q 482 502 449 516 q 538 460 515 487 q 571 398 560 434 q 583 320 583 363 q 573 238 583 276 q 545 174 564 201 q 494 132 524 147 q 424 117 465 117 q 310 156 355 117 q 257 267 266 195 l 99 267 q 131 146 103 199 q 203 58 159 94 q 304 4 248 22 q 424 -14 361 -14 q 566 12 506 -14 q 666 83 627 38 q 725 188 706 127 q 745 315 745 248 q 724 453 745 392 q 666 558 704 515 q 572 624 627 601 q 447 647 517 647 q 356 634 395 647 q 292 607 316 621 l 317 844 l 713 844 l 713 987 l 182 987 l 130 490 z "},"6":{"ha":833,"x_min":81,"x_max":734,"o":"m 589 992 l 570 992 q 366 956 455 992 q 215 853 276 920 q 112 667 143 775 q 81 439 81 559 l 81 372 q 104 221 81 293 q 172 97 127 150 q 275 16 214 46 q 414 -14 336 -14 q 550 13 490 -14 q 650 85 609 39 q 712 192 691 130 q 734 323 734 253 q 717 448 734 388 q 665 553 701 507 q 577 627 631 600 q 452 654 524 654 q 388 646 418 654 q 332 625 357 638 q 284 594 306 612 q 246 559 262 577 q 274 677 252 622 q 338 771 297 732 q 438 832 379 810 q 578 854 498 854 l 589 854 l 589 992 m 412 522 q 482 506 452 522 q 532 463 512 490 q 563 398 553 435 q 574 319 574 361 q 563 239 574 276 q 531 175 552 202 q 480 133 510 149 q 412 118 450 118 q 347 134 378 118 q 294 179 317 149 q 257 254 271 209 q 244 357 244 298 l 244 408 q 271 453 255 433 q 308 489 288 473 q 357 513 330 505 q 412 522 383 522 z "},"7":{"ha":833,"x_min":59,"x_max":742,"o":"m 742 897 l 742 987 l 59 987 l 59 852 l 571 852 l 176 0 l 347 0 l 742 897 z "},"8":{"ha":833,"x_min":94,"x_max":741,"o":"m 720 727 q 696 844 720 793 q 633 930 673 895 q 537 983 592 965 q 416 1001 481 1001 q 295 983 351 1001 q 201 930 240 965 q 138 844 161 895 q 115 727 115 793 q 125 657 115 690 q 154 596 136 624 q 197 547 172 569 q 254 509 222 524 q 188 468 217 492 q 137 414 158 444 q 105 346 116 382 q 94 269 94 309 q 118 147 94 199 q 187 59 143 94 q 290 5 231 23 q 418 -14 349 -14 q 545 5 486 -14 q 648 59 604 23 q 716 147 691 94 q 741 269 741 200 q 726 358 741 317 q 682 432 710 399 q 636 475 663 456 q 580 508 610 494 q 627 538 606 521 q 664 574 648 555 q 705 644 690 605 q 720 727 720 682 m 579 277 q 567 210 579 239 q 534 159 555 180 q 483 128 513 139 q 418 117 454 117 q 352 128 381 117 q 301 158 322 138 q 268 209 279 178 q 256 277 256 239 q 268 344 256 314 q 300 397 279 374 q 350 429 321 418 q 417 441 380 441 q 483 429 453 441 q 534 397 513 418 q 567 344 555 374 q 579 277 579 314 m 558 721 q 548 660 558 688 q 519 614 538 633 q 475 583 501 594 q 418 572 450 572 q 360 583 386 572 q 316 614 334 594 q 288 660 297 633 q 278 721 278 688 q 288 783 278 755 q 315 829 297 810 q 358 859 333 848 q 416 869 384 869 q 474 859 448 869 q 519 829 500 848 q 548 781 537 808 q 558 721 558 754 z "},"9":{"ha":833,"x_min":81,"x_max":724,"o":"m 237 134 l 224 134 l 224 -5 l 237 -5 q 455 33 365 -5 q 602 135 546 70 q 697 320 670 214 q 724 543 724 426 l 724 600 q 702 761 724 684 q 636 892 680 838 q 535 972 595 943 q 399 1001 476 1001 q 264 974 323 1001 q 164 899 205 946 q 102 789 123 852 q 81 655 81 726 q 98 530 81 589 q 152 424 116 470 q 240 351 187 378 q 366 324 294 324 q 430 331 401 324 q 484 349 460 338 q 527 375 507 360 q 561 406 546 389 l 561 403 q 536 295 555 345 q 477 207 517 245 q 380 153 439 172 q 237 134 321 134 m 400 452 q 330 470 359 452 q 281 515 300 487 q 251 582 260 545 q 241 660 241 619 q 252 740 241 702 q 283 807 262 779 q 332 852 302 836 q 399 869 361 869 q 463 853 433 869 q 515 806 493 837 q 550 730 537 776 q 564 626 564 685 l 564 570 q 537 523 553 545 q 500 486 522 502 q 454 461 479 470 q 400 452 429 452 z "}," ":{"ha":833,"x_min":0,"x_max":0,"o":""},"A":{"ha":833,"x_min":34,"x_max":816,"o":"m 581 227 l 647 0 l 816 0 l 500 987 l 355 987 l 34 0 l 203 0 l 271 227 l 581 227 m 312 367 l 427 758 l 541 367 l 312 367 z "},"B":{"ha":833,"x_min":100,"x_max":783,"o":"m 100 0 l 441 0 q 577 19 515 0 q 686 74 640 37 q 757 163 731 110 q 782 288 783 217 q 771 364 782 328 q 738 430 760 400 q 686 480 717 458 q 610 513 654 502 l 610 515 q 663 542 640 527 q 704 578 686 557 q 744 642 730 606 q 758 720 758 678 q 732 840 758 789 q 660 923 706 890 q 551 971 614 956 q 416 987 488 987 l 100 987 l 100 0 m 264 446 l 451 446 q 522 434 491 446 q 575 403 553 423 q 608 354 597 382 q 618 288 618 325 q 605 223 618 252 q 568 175 592 195 q 513 145 545 156 q 443 134 481 134 l 264 134 l 264 446 m 264 570 l 264 852 l 418 852 q 494 843 460 852 q 552 813 529 833 q 584 771 572 797 q 595 711 595 746 q 583 654 595 679 q 549 611 570 629 q 493 581 526 591 q 419 570 459 571 l 264 570 z "},"C":{"ha":833,"x_min":62,"x_max":768,"o":"m 768 304 l 604 304 q 587 224 600 259 q 551 167 573 190 q 495 131 528 143 q 420 119 463 119 q 358 129 385 119 q 309 157 330 138 q 274 199 289 175 q 250 254 260 224 q 232 333 238 290 q 227 426 227 376 l 227 562 q 231 641 227 602 q 244 713 235 679 q 274 783 256 751 q 319 834 292 814 q 364 859 338 850 q 421 868 389 868 q 499 855 467 868 q 554 817 532 842 q 588 756 576 791 q 605 676 601 720 l 768 676 q 735 810 760 750 q 665 913 709 871 q 561 979 622 956 q 421 1002 499 1002 q 315 986 363 1002 q 227 943 267 970 q 152 869 184 912 q 100 773 120 826 q 71 672 81 726 q 62 561 62 618 l 62 426 q 72 310 62 366 q 101 207 81 254 q 150 118 121 159 q 217 50 178 78 q 308 2 257 19 q 420 -14 359 -14 q 556 8 495 -14 q 663 73 618 31 q 734 173 707 115 q 768 304 761 232 z "},"D":{"ha":833,"x_min":94,"x_max":772,"o":"m 94 0 l 343 0 q 470 16 411 0 q 578 63 530 33 q 657 130 622 91 q 718 218 693 170 q 758 327 744 267 q 772 454 772 387 l 772 532 q 757 663 772 602 q 715 777 742 725 q 649 866 688 826 q 560 932 610 906 q 458 973 514 958 q 338 987 401 987 l 94 987 l 94 0 m 258 854 l 338 854 q 411 845 377 854 q 472 821 445 837 q 536 767 509 800 q 580 692 564 733 q 600 618 593 658 q 606 533 606 578 l 606 454 q 600 369 606 409 q 580 295 593 329 q 542 224 565 255 q 488 173 518 193 q 423 143 459 153 q 343 132 387 132 l 258 132 l 258 854 z "},"E":{"ha":833,"x_min":110,"x_max":750,"o":"m 682 443 l 682 574 l 273 574 l 273 852 l 747 852 l 747 987 l 110 987 l 110 0 l 750 0 l 750 134 l 273 134 l 273 443 l 682 443 z "},"F":{"ha":833,"x_min":113,"x_max":755,"o":"m 695 420 l 695 555 l 277 555 l 277 852 l 755 852 l 755 987 l 113 987 l 113 0 l 277 0 l 277 420 l 695 420 z "},"G":{"ha":833,"x_min":62,"x_max":763,"o":"m 763 121 l 762 499 l 422 499 l 422 372 l 602 372 l 601 175 q 572 150 590 161 q 532 133 553 140 q 485 123 509 126 q 437 120 460 120 q 365 134 397 121 q 310 170 334 146 q 277 212 291 189 q 253 263 263 236 q 234 341 240 299 q 227 430 227 383 l 227 557 q 232 635 227 597 q 247 707 237 673 q 276 775 258 745 q 319 827 294 806 q 366 856 340 846 q 424 867 393 867 q 498 854 467 867 q 551 819 530 842 q 584 766 572 798 q 602 696 596 734 l 762 696 q 730 823 755 766 q 662 920 705 880 q 559 980 619 959 q 420 1001 498 1001 q 314 985 363 1001 q 224 939 264 968 q 157 871 186 910 q 107 786 128 833 q 74 678 85 736 q 62 556 63 620 l 62 430 q 75 304 63 364 q 111 195 87 245 q 164 109 132 148 q 235 43 195 71 q 325 1 275 16 q 431 -14 374 -14 q 547 -1 493 -14 q 648 34 602 12 q 713 74 684 52 q 763 121 743 97 z "},"H":{"ha":833,"x_min":89,"x_max":739,"o":"m 739 0 l 739 987 l 580 987 l 580 574 l 248 574 l 248 987 l 89 987 l 89 0 l 248 0 l 248 440 l 580 440 l 580 0 l 739 0 z "},"I":{"ha":833,"x_min":125,"x_max":707,"o":"m 125 987 l 125 852 l 332 852 l 332 134 l 125 134 l 125 0 l 707 0 l 707 134 l 496 134 l 496 852 l 707 852 l 707 987 l 125 987 z "},"J":{"ha":833,"x_min":72,"x_max":730,"o":"m 566 987 l 566 302 q 554 231 566 264 q 521 173 542 197 q 469 134 499 149 q 400 120 438 120 q 328 132 359 120 q 275 169 296 144 q 247 220 257 190 q 236 288 237 250 l 72 288 q 99 159 75 215 q 167 64 124 102 q 269 6 210 26 q 400 -14 328 -14 q 530 9 470 -14 q 634 75 590 33 q 704 175 679 117 q 730 302 730 233 l 730 987 l 566 987 z "},"K":{"ha":833,"x_min":100,"x_max":833,"o":"m 371 428 l 638 0 l 833 0 l 479 553 l 817 987 l 617 987 l 357 643 l 264 523 l 264 987 l 100 987 l 100 0 l 264 0 l 264 309 l 371 428 z "},"L":{"ha":833,"x_min":115,"x_max":750,"o":"m 279 134 l 279 987 l 115 987 l 115 0 l 750 0 l 750 134 l 279 134 z "},"M":{"ha":833,"x_min":92,"x_max":754,"o":"m 294 987 l 92 987 l 92 0 l 245 0 l 245 335 l 236 760 l 374 304 l 458 304 l 610 776 l 601 335 l 601 0 l 754 0 l 754 987 l 551 987 l 416 565 l 294 987 z "},"N":{"ha":833,"x_min":89,"x_max":739,"o":"m 739 0 l 739 987 l 574 987 l 573 311 l 254 987 l 89 987 l 89 0 l 254 0 l 254 680 l 575 0 l 739 0 z "},"O":{"ha":833,"x_min":62,"x_max":770,"o":"m 770 428 l 770 558 q 760 677 770 620 q 727 785 749 734 q 678 871 707 831 q 610 939 649 910 q 521 985 570 968 q 412 1001 471 1001 q 306 985 354 1001 q 219 940 257 969 q 151 870 180 910 q 102 781 122 829 q 72 675 82 731 q 62 558 62 618 l 62 428 q 71 316 62 370 q 100 213 81 261 q 149 121 119 163 q 218 49 178 79 q 306 3 256 20 q 414 -14 355 -14 q 518 2 471 -14 q 606 45 566 18 q 677 116 646 75 q 730 208 709 158 q 760 313 749 257 q 770 428 770 368 m 606 559 l 606 428 q 602 356 606 391 q 590 288 598 320 q 565 219 581 250 q 525 166 549 189 q 476 135 505 146 q 414 123 448 123 q 350 135 378 123 q 302 168 323 147 q 265 221 280 189 q 241 289 250 252 q 229 357 233 321 q 226 428 226 392 l 226 559 q 230 632 226 596 q 241 701 233 669 q 267 770 250 739 q 307 823 283 801 q 353 852 326 842 q 412 863 379 863 q 474 852 447 863 q 522 822 501 841 q 563 769 546 800 q 589 701 579 739 q 602 633 598 669 q 606 559 606 597 z "},"P":{"ha":833,"x_min":113,"x_max":785,"o":"m 276 376 l 444 376 q 581 398 518 376 q 689 460 644 420 q 760 554 734 499 q 785 678 785 610 q 760 806 785 749 q 689 903 734 863 q 581 965 644 943 q 444 987 518 987 l 113 987 l 113 0 l 276 0 l 276 376 m 276 509 l 276 854 l 444 854 q 518 841 485 854 q 574 804 551 828 q 609 748 597 781 q 621 677 621 716 q 609 610 621 641 q 574 557 597 580 q 518 523 551 535 q 444 509 485 510 l 276 509 z "},"Q":{"ha":833,"x_min":60,"x_max":810,"o":"m 778 416 l 778 551 q 769 655 777 604 q 745 753 762 707 q 693 856 726 809 q 618 936 661 903 q 527 984 577 966 q 416 1001 476 1001 q 306 984 355 1001 q 216 936 256 966 q 143 859 174 904 q 95 761 113 814 q 69 660 78 713 q 60 551 60 607 l 60 416 q 69 315 60 365 q 96 219 78 264 q 144 126 115 170 q 214 52 174 83 q 304 4 254 22 q 416 -14 355 -14 q 465 -10 441 -14 q 512 -1 489 -7 l 703 -171 l 810 -73 l 644 72 q 700 137 676 100 q 740 214 724 174 q 768 312 758 260 q 778 416 777 363 m 613 553 l 613 416 q 609 352 613 385 q 598 288 606 319 q 572 221 588 252 q 531 167 555 189 q 481 135 509 147 q 416 123 452 123 q 352 135 380 123 q 304 167 324 146 q 263 221 279 189 q 239 292 248 254 q 228 353 231 321 q 224 416 224 385 l 224 553 q 228 619 224 586 q 237 684 231 652 q 261 760 245 725 q 302 819 277 795 q 351 851 323 840 q 416 863 379 863 q 482 851 453 863 q 532 819 511 839 q 571 767 555 797 q 595 702 587 737 q 609 630 605 668 q 613 553 613 591 z "},"R":{"ha":833,"x_min":103,"x_max":796,"o":"m 433 383 l 622 0 l 796 0 l 796 9 l 585 422 q 659 465 626 440 q 716 524 692 490 q 753 598 740 557 q 766 690 766 640 q 741 820 766 764 q 669 912 715 875 q 557 968 622 949 q 416 987 493 987 l 103 987 l 103 0 l 266 0 l 266 383 l 433 383 m 266 516 l 266 854 l 416 854 q 492 843 458 854 q 550 812 526 833 q 589 759 576 791 q 602 684 602 726 q 590 616 602 646 q 556 566 578 586 q 497 529 532 542 q 418 516 462 517 l 266 516 z "},"S":{"ha":833,"x_min":68,"x_max":779,"o":"m 616 254 q 602 197 616 222 q 565 155 588 172 q 509 128 541 137 q 439 119 477 119 q 358 130 395 119 q 294 163 321 141 q 251 219 267 185 q 231 298 235 252 l 68 298 q 97 172 69 227 q 174 76 125 117 q 296 10 226 33 q 439 -13 367 -13 q 570 4 508 -13 q 678 56 631 22 q 752 140 724 90 q 779 256 779 190 q 748 381 779 327 q 664 475 716 436 q 572 529 622 507 q 470 566 522 551 q 391 592 429 578 q 324 625 353 606 q 279 670 296 644 q 261 729 262 695 q 274 787 261 761 q 310 831 287 812 q 365 858 333 848 q 433 868 396 868 q 509 856 476 868 q 565 821 542 843 q 600 768 587 799 q 616 700 612 737 l 777 700 q 750 822 777 767 q 677 918 724 878 q 569 979 631 957 q 435 1001 507 1001 q 306 982 368 1001 q 199 928 245 964 q 125 842 153 892 q 98 728 98 791 q 122 624 98 670 q 186 541 145 577 q 287 476 228 505 q 415 427 345 447 q 497 398 460 414 q 562 363 534 382 q 602 315 587 342 q 616 254 616 289 z "},"T":{"ha":833,"x_min":33,"x_max":802,"o":"m 802 852 l 802 987 l 33 987 l 33 852 l 335 852 l 335 0 l 497 0 l 497 852 l 802 852 z "},"U":{"ha":833,"x_min":89,"x_max":744,"o":"m 743 987 l 583 987 l 581 327 q 569 242 580 281 q 537 176 558 204 q 485 135 516 149 q 414 120 454 120 q 346 135 375 120 q 296 175 316 149 q 264 241 275 202 q 252 327 253 280 l 251 987 l 90 987 l 89 327 q 113 187 90 250 q 179 79 136 124 q 281 11 221 35 q 414 -14 340 -14 q 550 11 490 -14 q 654 80 611 35 q 721 188 697 125 q 744 327 744 250 l 743 987 z "},"V":{"ha":833,"x_min":33,"x_max":799,"o":"m 336 0 l 495 0 l 799 987 l 621 987 l 432 304 l 415 245 l 399 304 l 211 987 l 33 987 l 336 0 z "},"W":{"ha":833,"x_min":31,"x_max":812,"o":"m 160 0 l 314 0 l 413 604 l 420 651 l 427 604 l 528 0 l 682 0 l 812 987 l 660 987 l 591 381 l 587 340 l 580 380 l 481 987 l 357 987 l 262 383 l 255 342 l 250 381 l 182 987 l 31 987 l 160 0 z "},"X":{"ha":833,"x_min":37,"x_max":813,"o":"m 423 619 l 235 987 l 44 987 l 326 498 l 37 0 l 229 0 l 426 374 l 623 0 l 813 0 l 525 498 l 806 987 l 615 987 l 423 619 z "},"Y":{"ha":833,"x_min":31,"x_max":808,"o":"m 419 515 l 212 987 l 31 987 l 337 357 l 338 0 l 497 0 l 498 353 l 808 987 l 626 987 l 419 515 z "},"Z":{"ha":833,"x_min":67,"x_max":761,"o":"m 262 134 l 747 882 l 745 987 l 72 987 l 72 852 l 551 852 l 67 109 l 68 0 l 761 0 l 761 134 l 262 134 z "},"a":{"ha":833,"x_min":90,"x_max":739,"o":"m 574 0 l 739 0 l 739 12 q 719 80 726 40 q 711 169 711 119 l 711 495 q 688 605 711 557 q 625 684 665 653 q 528 731 584 715 q 408 747 472 747 q 280 729 336 747 q 186 678 224 710 q 126 606 146 647 q 105 522 106 566 l 268 522 q 276 561 268 543 q 300 593 283 580 q 341 615 316 607 q 399 623 366 623 q 464 614 435 623 q 511 588 492 605 q 539 548 530 571 q 549 496 549 525 l 549 447 l 431 447 q 289 432 352 447 q 184 389 227 417 q 114 312 138 358 q 90 205 90 265 q 108 118 90 158 q 161 49 127 77 q 241 3 194 20 q 345 -14 288 -14 q 411 -7 380 -14 q 468 12 441 0 q 516 40 494 24 q 554 73 537 56 q 562 33 557 52 q 574 0 566 14 m 376 117 q 322 124 345 117 q 283 146 299 132 q 260 179 268 159 q 252 220 252 198 q 261 269 252 248 q 292 307 271 291 q 353 335 315 325 q 445 345 392 345 l 549 345 l 549 209 q 524 175 541 191 q 486 146 508 159 q 436 125 463 133 q 376 117 408 117 z "},"b":{"ha":833,"x_min":108,"x_max":750,"o":"m 750 359 l 750 374 q 739 492 750 436 q 706 593 728 547 q 668 653 690 625 q 620 699 647 680 q 548 735 588 722 q 461 747 509 747 q 394 740 425 747 q 338 719 363 733 q 301 694 318 708 q 270 662 284 680 l 270 1042 l 108 1042 l 108 0 l 254 0 l 262 80 q 287 53 274 65 q 315 29 300 40 q 381 -3 345 8 q 463 -14 418 -14 q 544 -2 507 -14 q 612 29 582 9 q 677 92 650 54 q 721 177 705 130 q 743 262 735 216 q 750 359 750 309 m 588 374 l 588 359 q 585 300 588 329 q 574 248 581 272 q 551 189 566 215 q 512 146 536 163 q 472 126 494 134 q 422 119 450 119 q 367 127 391 119 q 323 149 342 135 q 293 178 306 161 q 270 215 279 195 l 270 519 q 289 552 278 536 q 315 578 300 567 q 361 605 334 595 q 420 614 387 614 q 469 608 448 614 q 508 589 491 602 q 549 546 534 572 q 574 490 564 521 q 584 434 581 464 q 588 374 588 405 z "},"c":{"ha":833,"x_min":87,"x_max":732,"o":"m 425 117 q 340 137 374 117 q 286 191 306 157 q 257 267 266 224 q 249 355 249 310 l 249 378 q 257 465 249 422 q 287 541 266 508 q 340 595 307 574 q 425 616 374 616 q 487 604 458 616 q 536 573 515 593 q 568 527 557 553 q 579 471 579 500 l 732 471 q 710 583 732 532 q 646 670 687 633 q 549 727 606 707 q 426 747 492 747 q 278 718 342 747 q 172 638 215 688 q 108 521 130 588 q 87 378 87 454 l 87 355 q 109 212 87 279 q 173 95 130 145 q 278 15 215 45 q 427 -14 342 -14 q 543 6 488 -14 q 641 61 598 26 q 708 142 683 95 q 732 243 732 189 l 579 243 q 567 192 579 215 q 533 152 554 169 q 483 126 511 135 q 425 117 455 117 z "},"d":{"ha":833,"x_min":83,"x_max":724,"o":"m 83 372 l 83 358 q 104 211 83 279 q 161 93 124 142 q 252 15 199 43 q 373 -14 306 -14 q 486 10 437 -14 q 570 77 534 33 l 577 0 l 724 0 l 724 1042 l 562 1042 l 562 665 q 481 726 527 705 q 374 747 435 747 q 253 720 307 747 q 161 643 199 692 q 103 525 123 593 q 83 372 83 456 m 245 358 l 245 372 q 255 466 245 422 q 286 543 264 509 q 337 595 305 576 q 415 614 370 614 q 505 590 469 614 q 562 525 541 566 l 562 210 q 505 144 541 168 q 414 120 469 120 q 337 139 369 120 q 285 191 305 157 q 255 266 264 222 q 245 358 245 309 z "},"e":{"ha":833,"x_min":83,"x_max":755,"o":"m 448 -14 q 630 28 555 -14 q 743 123 706 71 l 656 208 q 570 141 622 164 q 457 117 517 117 q 376 132 413 117 q 312 174 339 147 q 269 233 285 200 q 246 313 254 265 l 246 317 l 755 317 l 755 387 q 734 532 755 465 q 671 646 713 598 q 569 721 630 694 q 429 747 508 747 q 295 721 357 747 q 184 644 232 694 q 110 525 137 595 q 83 369 83 455 l 83 341 q 109 201 83 266 q 183 89 135 136 q 299 14 231 41 q 448 -14 366 -14 m 428 616 q 499 602 469 616 q 551 565 530 588 q 583 510 572 541 q 595 446 595 478 l 595 435 l 250 435 q 273 511 257 477 q 311 568 288 544 q 364 603 334 591 q 428 616 393 616 z "},"f":{"ha":833,"x_min":93,"x_max":776,"o":"m 290 0 l 452 0 l 452 612 l 724 612 l 724 734 l 452 734 l 452 779 q 462 846 452 817 q 492 895 472 876 q 546 927 513 916 q 624 938 578 938 q 702 932 667 938 q 763 920 736 927 l 776 1049 q 736 1057 755 1053 q 697 1063 716 1061 q 650 1069 674 1067 q 601 1072 626 1072 q 472 1053 530 1072 q 374 997 415 1034 q 312 905 334 960 q 290 779 290 850 l 290 734 l 93 734 l 93 612 l 290 612 l 290 0 z "},"g":{"ha":833,"x_min":84,"x_max":730,"o":"m 84 372 l 84 358 q 105 211 84 279 q 163 93 125 142 q 256 15 202 43 q 378 -14 311 -14 q 448 -6 416 -14 q 506 17 479 2 q 539 39 524 26 q 568 67 554 52 l 568 16 q 556 -58 568 -25 q 523 -113 545 -90 q 466 -148 499 -136 q 389 -160 432 -160 q 339 -155 363 -160 q 291 -139 315 -150 q 244 -111 267 -128 q 202 -70 222 -94 l 125 -168 q 184 -224 150 -201 q 255 -261 218 -247 q 330 -282 292 -275 q 398 -289 367 -289 q 533 -268 472 -289 q 639 -208 595 -248 q 706 -111 682 -168 q 730 20 730 -54 l 730 734 l 583 734 l 576 660 q 547 690 563 676 q 514 714 532 704 q 454 739 487 730 q 380 747 420 747 q 257 720 311 747 q 163 643 202 692 q 104 525 125 593 q 84 372 84 456 m 247 358 l 247 372 q 257 466 247 422 q 289 543 267 509 q 342 595 310 576 q 420 614 375 614 q 468 608 446 614 q 507 593 490 602 q 542 565 527 581 q 568 528 557 549 l 568 207 q 543 171 557 187 q 511 143 529 155 q 470 126 492 132 q 419 120 447 120 q 342 139 374 120 q 288 191 309 157 q 257 266 267 222 q 247 358 247 309 z "},"h":{"ha":833,"x_min":105,"x_max":741,"o":"m 267 629 l 267 1042 l 105 1042 l 105 0 l 267 0 l 267 531 q 294 563 279 549 q 327 587 309 577 q 373 607 348 600 q 427 614 399 614 q 492 604 464 614 q 540 574 520 594 q 569 524 559 555 q 578 453 578 494 l 578 0 l 741 0 l 741 452 q 722 586 741 530 q 669 677 703 642 q 588 730 635 713 q 482 747 540 747 q 404 735 441 747 q 336 701 367 724 q 299 669 317 688 q 267 629 281 651 z "},"i":{"ha":833,"x_min":142,"x_max":747,"o":"m 142 734 l 142 599 l 368 599 l 368 134 l 142 134 l 142 0 l 747 0 l 747 134 l 532 134 l 532 734 l 142 734 m 353 924 q 366 879 353 898 q 403 852 378 859 q 446 848 427 844 q 480 865 466 852 q 524 895 509 873 q 534 947 538 917 q 508 995 530 976 q 448 1013 485 1013 q 409 1007 427 1013 q 380 989 392 1000 q 360 960 367 977 q 353 924 353 943 z "},"j":{"ha":833,"x_min":148,"x_max":591,"o":"m 206 734 l 206 599 l 416 599 l 416 -12 q 405 -83 416 -54 q 374 -129 393 -111 q 327 -153 354 -146 q 269 -161 300 -161 q 246 -160 261 -161 q 215 -159 231 -160 q 182 -156 198 -158 q 157 -153 167 -155 l 148 -285 q 176 -290 162 -288 q 203 -293 190 -292 q 240 -296 222 -295 q 278 -296 259 -296 q 406 -279 350 -296 q 500 -226 461 -261 q 559 -137 538 -191 q 579 -12 579 -84 l 579 734 l 206 734 m 401 924 q 426 861 401 886 q 495 836 451 836 q 566 861 541 836 q 591 924 591 886 q 566 988 591 962 q 495 1013 541 1013 q 426 987 450 1013 q 401 924 401 961 z "},"k":{"ha":833,"x_min":106,"x_max":792,"o":"m 357 319 l 591 0 l 792 0 l 465 428 l 751 734 l 555 734 l 336 503 l 269 429 l 269 1042 l 106 1042 l 106 0 l 269 0 l 269 236 l 357 319 z "},"l":{"ha":833,"x_min":136,"x_max":754,"o":"m 136 1042 l 136 907 l 368 907 l 368 134 l 136 134 l 136 0 l 754 0 l 754 134 l 532 134 l 532 1042 l 136 1042 z "},"m":{"ha":833,"x_min":56,"x_max":774,"o":"m 197 734 l 56 734 l 56 0 l 205 0 l 205 564 q 215 582 210 574 q 227 596 220 590 q 248 609 235 605 q 277 614 260 614 q 303 610 292 614 q 324 597 315 606 q 337 573 333 588 q 342 536 342 557 l 342 0 l 488 0 l 488 545 q 488 555 488 551 q 488 562 488 559 q 496 582 491 573 q 510 598 502 591 q 530 610 519 606 q 557 614 542 614 q 585 610 572 614 q 606 597 597 606 q 620 572 615 587 q 625 535 625 557 l 625 0 l 774 0 l 774 534 q 762 632 774 591 q 728 699 750 673 q 677 735 707 724 q 612 747 648 747 q 563 741 585 747 q 522 722 540 734 q 495 699 507 712 q 473 669 483 685 q 457 700 467 686 q 435 722 448 713 q 398 741 420 735 q 349 747 376 747 q 260 722 297 747 q 202 653 223 697 l 197 734 z "},"n":{"ha":833,"x_min":105,"x_max":739,"o":"m 105 0 l 267 0 l 267 524 q 292 557 278 542 q 323 584 307 573 q 370 606 344 598 q 425 614 395 614 q 489 606 461 614 q 536 580 517 598 q 566 531 556 562 q 576 455 576 500 l 576 0 l 739 0 l 739 458 q 720 590 739 535 q 669 680 702 644 q 589 731 635 715 q 486 747 542 747 q 404 735 443 747 q 333 701 366 723 q 295 668 313 686 q 262 629 277 650 l 252 734 l 105 734 l 105 0 z "},"o":{"ha":833,"x_min":75,"x_max":757,"o":"m 75 374 l 75 359 q 98 211 75 279 q 165 93 121 143 q 273 14 209 43 q 417 -14 336 -14 q 561 14 497 -14 q 667 93 624 43 q 734 211 711 143 q 757 359 757 279 l 757 374 q 734 522 757 454 q 667 640 711 590 q 560 719 623 690 q 416 747 496 747 q 272 719 335 747 q 165 640 209 690 q 98 522 121 590 q 75 374 75 454 m 237 359 l 237 374 q 248 466 237 422 q 281 543 258 510 q 336 596 302 576 q 416 616 370 616 q 496 596 463 616 q 552 543 530 576 q 584 466 573 510 q 595 374 595 422 l 595 359 q 584 266 595 310 q 552 189 574 222 q 496 136 530 155 q 417 117 463 117 q 336 136 370 117 q 281 189 302 155 q 248 266 258 222 q 237 359 237 310 z "},"p":{"ha":833,"x_min":106,"x_max":747,"o":"m 106 -282 l 269 -282 l 269 66 q 296 40 281 52 q 328 18 311 28 q 388 -5 355 3 q 460 -14 421 -14 q 583 15 530 -14 q 673 94 637 43 q 729 212 710 143 q 747 359 747 280 l 747 374 q 728 525 747 456 q 673 644 709 594 q 583 720 637 693 q 458 747 529 747 q 391 740 422 747 q 332 718 359 732 q 294 692 312 707 q 262 659 277 677 l 256 734 l 106 734 l 106 -282 m 585 374 l 585 359 q 576 267 585 311 q 545 189 566 223 q 493 137 525 156 q 415 117 460 117 q 364 124 387 117 q 323 141 341 130 q 292 168 305 153 q 269 203 278 184 l 269 529 q 294 566 279 549 q 328 593 309 582 q 367 608 345 603 q 414 614 389 614 q 492 595 459 614 q 545 543 524 576 q 575 467 566 511 q 585 374 585 423 z "},"q":{"ha":833,"x_min":84,"x_max":725,"o":"m 84 373 l 84 359 q 104 211 84 279 q 161 93 123 143 q 252 15 198 43 q 376 -14 306 -14 q 439 -7 410 -14 q 493 12 468 -1 q 530 34 513 21 q 562 64 547 47 l 562 -282 l 725 -282 l 725 734 l 580 734 l 571 660 q 541 691 557 677 q 506 715 524 705 q 447 739 479 731 q 377 747 414 747 q 252 720 307 747 q 161 644 197 692 q 103 525 123 594 q 84 373 84 456 m 246 359 l 246 373 q 256 467 246 422 q 288 544 266 511 q 340 596 308 576 q 418 616 372 616 q 466 610 444 616 q 505 593 488 604 q 537 568 524 583 q 562 534 551 553 l 562 201 q 537 166 551 182 q 505 139 523 150 q 465 123 486 129 q 416 117 443 117 q 339 137 371 117 q 286 189 307 156 q 256 266 266 222 q 246 359 246 310 z "},"r":{"ha":833,"x_min":207,"x_max":747,"o":"m 612 747 q 474 712 536 747 q 366 615 411 677 l 366 632 l 359 734 l 207 734 l 207 0 l 369 0 l 369 453 q 401 511 382 486 q 447 552 420 536 q 505 577 472 569 q 578 585 537 585 q 650 581 614 585 q 724 569 686 577 l 747 729 q 689 742 726 736 q 612 747 652 747 z "},"s":{"ha":833,"x_min":98,"x_max":743,"o":"m 585 199 q 577 166 585 181 q 553 140 569 152 q 503 116 534 125 q 429 107 471 107 q 368 114 398 107 q 313 135 337 120 q 273 173 289 149 q 255 230 257 196 l 98 230 q 119 140 98 184 q 183 62 141 96 q 286 7 224 28 q 427 -14 347 -14 q 556 2 498 -14 q 656 47 614 18 q 721 117 698 77 q 743 207 743 158 q 722 294 743 257 q 661 357 700 330 q 566 401 621 383 q 443 431 510 418 q 363 449 395 439 q 314 471 332 459 q 288 498 295 483 q 280 532 280 513 q 289 567 280 551 q 315 596 298 584 q 360 617 333 610 q 425 625 388 625 q 494 615 465 625 q 543 587 524 604 q 568 553 559 572 q 576 514 576 534 l 739 514 q 717 606 739 564 q 655 680 695 649 q 556 729 614 711 q 425 747 498 747 q 300 730 356 747 q 205 682 244 712 q 143 611 165 651 q 122 526 122 570 q 143 444 122 479 q 201 382 164 408 q 292 336 239 355 q 408 304 345 317 q 493 284 459 295 q 548 261 527 273 q 576 233 568 248 q 585 199 585 218 z "},"t":{"ha":833,"x_min":90,"x_max":736,"o":"m 431 913 l 268 913 l 268 734 l 90 734 l 90 612 l 268 612 l 268 252 q 287 131 268 181 q 338 49 305 81 q 418 1 372 16 q 520 -14 465 -14 q 582 -11 551 -14 q 641 -3 612 -8 q 694 11 669 3 q 736 29 719 18 l 719 141 q 689 135 707 138 q 650 128 671 131 q 607 123 629 125 q 564 121 585 121 q 510 127 534 121 q 468 151 486 134 q 440 194 450 166 q 431 262 431 221 l 431 612 l 707 612 l 707 734 l 431 734 l 431 913 z "},"u":{"ha":833,"x_min":111,"x_max":733,"o":"m 586 0 l 733 0 l 733 734 l 570 734 l 570 214 q 547 177 561 194 q 516 149 534 161 q 467 127 495 135 q 404 119 439 119 q 345 128 370 119 q 304 158 320 137 q 280 213 288 178 q 273 298 273 247 l 273 734 l 111 734 l 111 299 q 129 157 111 216 q 180 60 147 98 q 261 4 214 22 q 366 -14 309 -14 q 486 17 432 -14 q 576 102 539 47 l 586 0 z "},"v":{"ha":833,"x_min":56,"x_max":776,"o":"m 345 0 l 488 0 l 776 734 l 608 734 l 428 201 l 417 153 l 406 201 l 224 734 l 56 734 l 345 0 z "},"w":{"ha":833,"x_min":24,"x_max":804,"o":"m 166 0 l 304 0 l 397 416 l 413 507 l 430 416 l 525 0 l 663 0 l 804 734 l 657 734 l 591 286 l 578 197 l 563 286 l 467 734 l 361 734 l 265 284 l 250 199 l 239 284 l 171 734 l 24 734 l 166 0 z "},"x":{"ha":833,"x_min":66,"x_max":791,"o":"m 427 487 l 254 734 l 75 734 l 332 372 l 66 0 l 246 0 l 429 256 l 612 0 l 791 0 l 525 372 l 783 734 l 603 734 l 427 487 z "},"y":{"ha":833,"x_min":40,"x_max":813,"o":"m 197 -296 q 291 -278 251 -296 q 360 -231 331 -259 q 409 -172 389 -204 q 441 -111 428 -140 l 813 734 l 633 734 l 456 283 l 426 205 l 401 286 l 218 734 l 40 734 l 353 33 l 307 -55 q 291 -83 299 -70 q 269 -115 282 -97 q 235 -146 254 -132 q 193 -160 216 -160 q 164 -159 182 -160 q 134 -157 147 -158 l 111 -284 q 152 -293 131 -289 q 197 -296 174 -296 z "},"z":{"ha":833,"x_min":92,"x_max":755,"o":"m 309 131 l 735 631 l 735 734 l 100 734 l 100 602 l 514 602 l 92 106 l 92 0 l 755 0 l 755 131 l 309 131 z "},"¹":{"ha":833,"x_min":265,"x_max":524,"o":"m 524 449 l 524 983 l 512 983 l 265 902 l 265 804 l 401 838 l 401 449 l 524 449 z "},"²":{"ha":833,"x_min":208,"x_max":633,"o":"m 633 452 l 633 551 l 380 551 l 476 629 q 535 682 509 657 q 579 730 561 706 q 606 777 597 753 q 615 830 615 802 q 603 895 615 866 q 568 945 591 924 q 503 982 543 969 q 412 995 464 995 q 327 981 365 995 q 262 942 290 966 q 222 884 236 917 q 208 813 208 850 l 332 813 q 337 845 332 830 q 352 870 342 859 q 379 888 363 882 q 417 895 395 895 q 449 890 435 895 q 472 876 463 885 q 486 856 481 868 q 491 829 491 844 q 485 803 491 818 q 467 771 479 789 q 445 745 458 759 q 414 715 432 730 l 220 536 l 220 452 l 633 452 z "},"³":{"ha":833,"x_min":208,"x_max":631,"o":"m 353 767 l 353 681 l 411 681 q 455 676 435 681 q 486 661 475 671 q 502 640 496 652 q 507 610 507 628 q 503 585 507 597 q 488 565 498 574 q 460 549 477 555 q 421 544 444 544 q 382 549 399 544 q 353 564 364 555 q 337 584 342 572 q 332 607 332 595 l 208 607 q 225 532 208 563 q 273 482 243 502 q 339 453 302 462 q 415 444 376 444 q 500 455 460 444 q 570 486 540 465 q 615 534 598 505 q 631 602 631 564 q 624 649 631 628 q 602 685 616 670 q 571 709 590 699 q 530 726 553 720 q 563 742 548 732 q 589 762 578 751 q 613 798 605 778 q 621 841 621 818 q 606 907 621 878 q 564 956 591 936 q 498 984 536 975 q 414 994 460 994 q 338 984 374 994 q 275 955 302 974 q 232 907 248 935 q 216 843 216 879 l 339 843 q 345 863 339 854 q 359 878 350 871 q 384 890 369 886 q 418 894 399 894 q 454 889 439 894 q 479 877 469 884 q 493 857 488 868 q 498 833 498 846 q 492 803 498 817 q 471 781 486 790 q 446 771 461 774 q 411 767 431 767 l 353 767 z "},"ª":{"ha":833,"x_min":189,"x_max":640,"o":"m 523 478 l 640 478 q 626 538 630 508 q 622 601 622 568 l 622 814 q 608 896 622 861 q 568 954 593 930 q 506 989 542 977 q 425 1001 469 1001 q 339 989 378 1001 q 273 956 300 977 q 230 906 245 935 q 215 843 215 878 l 328 834 q 334 860 328 848 q 349 880 339 872 q 380 897 361 892 q 425 903 400 903 q 461 897 446 903 q 486 880 476 891 q 502 853 496 869 q 507 814 507 836 l 507 780 l 413 780 q 318 770 359 780 q 248 741 277 760 q 204 692 219 722 q 189 623 189 662 q 199 559 189 588 q 232 511 210 531 q 285 479 253 490 q 357 469 317 469 q 412 476 387 469 q 456 494 437 483 q 487 517 473 504 q 509 543 500 530 q 514 509 511 526 q 523 478 518 493 m 385 564 q 347 569 363 564 q 320 583 330 574 q 307 602 311 591 q 303 626 303 612 q 310 654 303 641 q 329 677 316 667 q 365 695 343 688 q 414 702 386 702 l 507 702 l 507 630 q 488 607 501 618 q 459 585 475 595 q 422 570 442 576 q 385 564 403 564 z "},"º":{"ha":833,"x_min":182,"x_max":650,"o":"m 182 774 l 182 694 q 199 604 182 646 q 245 532 215 562 q 319 485 276 502 q 417 468 363 468 q 514 485 471 468 q 587 532 557 502 q 633 604 617 562 q 650 694 650 646 l 650 774 q 633 865 650 823 q 587 937 617 907 q 513 984 556 967 q 416 1001 470 1001 q 318 984 361 1001 q 245 937 275 967 q 199 865 215 907 q 182 774 182 823 m 297 694 l 297 774 q 304 825 297 801 q 327 866 312 848 q 364 893 342 883 q 416 903 386 903 q 468 893 446 903 q 505 866 490 883 q 527 825 519 848 q 534 774 534 801 l 534 694 q 527 643 534 667 q 505 602 519 619 q 469 575 491 585 q 417 565 446 565 q 364 575 387 565 q 327 602 342 585 q 304 643 312 619 q 297 694 297 667 z "},"½":{"ha":833,"x_min":20,"x_max":809,"o":"m 253 509 l 253 989 l 242 989 l 20 916 l 20 829 l 142 859 l 142 509 l 253 509 m 809 0 l 809 89 l 581 89 l 667 159 q 721 206 697 184 q 760 250 744 228 q 785 292 777 271 q 793 340 793 314 q 781 401 793 374 q 747 447 770 428 q 689 478 724 467 q 610 488 654 488 q 533 475 568 488 q 475 441 499 463 q 438 388 451 418 q 425 324 425 358 l 537 324 q 542 352 537 339 q 555 375 546 366 q 579 392 565 386 q 614 398 594 398 q 644 394 631 398 q 665 380 656 389 q 677 362 673 372 q 681 339 681 351 q 676 317 681 330 q 661 290 671 305 q 641 265 653 278 q 612 237 629 252 l 437 75 l 437 0 l 809 0 m 237 155 l 585 796 l 501 841 l 154 201 l 237 155 z "},"¼":{"ha":833,"x_min":39,"x_max":791,"o":"m 273 509 l 273 989 l 262 989 l 39 918 l 39 829 l 162 859 l 162 509 l 273 509 m 732 191 l 732 481 l 620 481 l 397 172 l 401 100 l 621 100 l 621 0 l 732 0 l 732 100 l 791 100 l 791 191 l 732 191 m 505 191 l 612 328 l 621 341 l 621 191 l 505 191 m 281 155 l 629 796 l 545 841 l 198 201 l 281 155 z "},"¾":{"ha":833,"x_min":24,"x_max":820,"o":"m 760 191 l 760 481 l 648 481 l 425 172 l 430 100 l 649 100 l 649 0 l 760 0 l 760 100 l 820 100 l 820 191 l 760 191 m 533 191 l 640 328 l 649 341 l 649 191 l 533 191 m 155 788 l 155 711 l 207 711 q 248 706 230 711 q 277 691 266 701 q 289 673 285 684 q 294 648 294 663 q 290 625 294 635 q 277 606 286 614 q 252 592 267 597 q 216 587 237 587 q 180 593 196 587 q 155 606 165 598 q 140 624 145 614 q 136 644 136 633 l 24 644 q 40 577 24 605 q 83 532 57 550 q 143 506 109 514 q 211 498 176 498 q 288 507 252 498 q 350 535 323 517 q 391 579 376 553 q 406 640 406 606 q 398 685 406 665 q 375 720 390 705 q 348 738 363 730 q 314 751 333 746 q 343 765 330 757 q 367 783 356 773 q 389 815 380 798 q 397 855 397 833 q 383 915 397 888 q 345 958 370 941 q 286 984 320 975 q 210 993 252 993 q 141 984 174 993 q 85 958 109 975 q 46 915 60 940 q 31 857 31 889 l 142 857 q 147 874 142 866 q 159 888 151 882 q 183 899 170 895 q 213 903 197 903 q 247 898 233 903 q 270 886 260 894 q 282 868 277 878 q 286 848 286 859 q 281 823 286 834 q 265 803 275 811 q 240 792 255 796 q 207 788 226 788 l 155 788 m 334 155 l 681 795 l 597 841 l 250 200 l 334 155 z "},"Æ":{"ha":833,"x_min":28,"x_max":804,"o":"m 804 0 l 804 132 l 596 132 l 595 444 l 767 444 l 767 576 l 595 576 l 595 854 l 789 854 l 789 987 l 376 987 l 28 0 l 195 0 l 267 232 l 441 232 l 441 0 l 804 0 m 311 376 l 440 786 l 441 376 l 311 376 z "},"æ":{"ha":833,"x_min":31,"x_max":810,"o":"m 597 -14 q 664 -8 633 -14 q 720 5 695 -3 q 763 23 745 13 q 793 42 782 33 l 759 156 q 733 142 746 149 q 704 130 720 136 q 669 120 688 124 q 626 117 650 117 q 574 123 597 117 q 536 142 551 130 q 513 165 522 152 q 498 193 503 178 q 491 224 494 207 q 488 260 488 241 l 488 320 l 810 320 l 810 483 q 794 593 810 544 q 750 676 779 642 q 680 729 722 710 q 587 747 639 747 q 530 742 557 748 q 482 724 504 736 q 454 708 467 718 q 430 688 441 699 q 406 709 419 699 q 378 725 393 718 q 328 742 355 736 q 269 747 300 747 q 176 732 217 747 q 105 690 134 718 q 60 624 76 663 q 45 536 45 585 l 198 531 q 202 566 198 551 q 216 591 207 581 q 240 610 225 604 q 275 616 255 616 q 301 611 290 616 q 321 597 313 606 q 337 568 332 586 q 342 525 342 549 l 342 436 l 323 436 q 187 417 245 436 q 92 363 129 399 q 46 292 62 334 q 31 198 31 250 q 44 111 31 150 q 85 44 58 71 q 150 2 111 17 q 239 -14 188 -14 q 293 -6 269 -14 q 340 13 318 1 q 377 41 360 24 q 406 75 393 57 q 433 44 418 58 q 465 20 448 31 q 524 -5 491 3 q 597 -14 557 -14 m 277 110 q 239 116 255 110 q 212 135 222 123 q 196 161 201 146 q 191 195 191 177 q 200 244 191 221 q 226 286 209 267 q 268 313 243 302 q 324 323 292 323 l 342 323 q 342 272 342 291 q 342 224 342 253 q 342 182 342 198 q 342 142 342 165 q 331 131 337 136 q 317 121 324 125 q 297 113 307 116 q 277 110 286 110 m 659 435 l 488 435 l 488 479 q 490 512 488 496 q 495 542 492 528 q 507 575 499 560 q 528 600 515 589 q 550 612 537 608 q 578 616 563 616 q 614 608 599 616 q 639 587 629 600 q 653 555 648 574 q 659 515 659 537 l 659 435 z "},"Œ":{"ha":833,"x_min":50,"x_max":807,"o":"m 807 0 l 807 134 l 550 134 l 550 448 l 765 448 l 765 576 l 550 576 l 550 859 l 800 859 l 800 987 l 519 987 q 431 997 477 993 q 338 1002 385 1002 q 220 980 273 1002 q 130 913 168 958 q 71 803 92 869 q 50 649 50 737 l 50 338 q 71 183 50 250 q 131 73 92 117 q 222 8 169 30 q 339 -14 275 -14 q 432 -10 387 -14 q 519 0 477 -5 l 807 0 m 339 120 q 279 131 306 120 q 235 166 253 141 q 208 233 217 191 q 198 338 198 275 l 198 650 q 208 758 198 715 q 235 826 217 800 q 278 862 252 852 q 338 873 304 873 q 371 872 354 873 q 404 870 387 871 l 404 122 q 371 121 387 121 q 339 120 355 120 z "},"œ":{"ha":833,"x_min":28,"x_max":808,"o":"m 28 434 l 28 298 q 44 168 28 226 q 91 70 60 111 q 167 8 122 30 q 270 -14 212 -14 q 332 -6 303 -14 q 385 16 361 1 q 412 35 399 24 q 435 60 425 46 q 459 37 446 47 q 486 18 472 27 q 545 -5 513 3 q 614 -14 577 -14 q 671 -8 646 -14 q 718 5 696 -3 q 751 24 736 14 q 777 46 766 35 l 738 153 q 715 139 727 145 q 691 128 704 133 q 662 120 677 123 q 625 117 646 117 q 583 124 602 117 q 552 145 565 132 q 533 173 541 157 q 520 210 526 189 q 514 247 515 227 q 512 288 512 266 l 512 320 l 808 320 l 808 457 q 793 575 808 522 q 751 667 779 628 q 681 726 723 705 q 583 747 639 747 q 530 741 555 748 q 481 720 504 734 q 455 701 468 712 q 431 676 443 690 q 410 698 421 688 q 386 716 399 708 q 332 739 361 731 q 269 747 302 747 q 166 725 211 747 q 91 663 121 703 q 44 564 60 622 q 28 434 28 506 m 184 298 l 184 434 q 188 509 184 475 q 203 566 193 543 q 229 603 213 589 q 269 616 245 616 q 310 603 293 616 q 336 566 326 590 q 345 543 341 556 q 351 516 348 530 q 354 478 353 498 q 355 434 355 457 l 355 298 q 354 250 355 273 q 349 208 352 227 q 340 174 346 191 q 323 144 334 157 q 301 124 315 132 q 270 117 288 117 q 231 128 247 117 q 205 159 216 139 q 189 218 194 182 q 184 298 184 254 m 583 616 q 615 607 602 616 q 637 583 628 598 q 650 545 646 567 q 654 496 654 523 l 654 439 l 512 439 l 512 450 q 513 491 512 472 q 517 527 515 511 q 527 569 521 551 q 543 597 534 586 q 561 611 551 606 q 583 616 571 616 z "},"ð":{"ha":833,"x_min":36,"x_max":736,"o":"m 594 863 l 724 937 l 673 1009 l 529 928 q 436 989 486 964 q 330 1029 387 1015 l 279 899 q 333 877 307 889 q 383 848 359 864 l 233 762 l 284 690 l 455 786 q 516 700 490 749 q 557 589 542 651 q 471 640 519 621 q 368 659 422 659 q 232 634 294 659 q 127 565 171 610 q 60 457 83 520 q 36 317 36 394 q 61 188 36 248 q 132 83 85 127 q 240 12 177 37 q 380 -14 304 -14 q 474 -2 429 -14 q 557 33 519 9 q 640 102 604 60 q 701 198 676 144 q 727 288 718 239 q 736 391 736 336 l 736 435 q 699 677 736 569 q 594 863 661 785 m 383 117 q 305 133 339 117 q 247 178 271 150 q 211 242 223 206 q 198 317 198 278 q 210 399 198 360 q 245 467 222 438 q 300 514 268 497 q 374 532 333 532 q 502 509 452 532 q 574 455 552 486 q 574 437 574 444 q 574 425 574 431 l 574 380 q 569 312 574 345 q 554 252 564 279 q 524 191 543 217 q 481 147 505 165 q 435 124 460 132 q 383 117 411 117 z "},"Þ":{"ha":833,"x_min":101,"x_max":780,"o":"m 264 987 l 101 987 l 101 0 l 264 0 l 264 203 l 432 203 q 581 225 516 203 q 690 287 646 247 q 757 381 734 326 q 780 500 780 435 q 757 620 780 565 q 690 714 734 675 q 581 775 646 753 q 432 798 516 798 l 264 798 l 264 987 m 264 666 l 432 666 q 516 652 481 666 q 574 615 551 638 q 607 562 597 592 q 618 499 618 532 q 607 437 618 467 q 574 385 597 408 q 516 348 551 361 q 432 334 481 334 l 264 334 l 264 666 z "},"þ":{"ha":833,"x_min":106,"x_max":747,"o":"m 747 359 l 747 374 q 729 525 747 456 q 675 644 711 594 q 585 720 638 693 q 461 747 531 747 q 395 741 425 747 q 338 720 364 734 q 301 696 319 710 q 269 665 283 682 l 269 1050 l 106 1050 l 106 -282 l 269 -282 l 269 68 q 296 41 281 53 q 328 19 311 28 q 389 -5 355 3 q 463 -14 423 -14 q 585 15 532 -14 q 675 94 638 43 q 729 212 711 143 q 747 359 747 280 m 585 374 l 585 359 q 576 267 585 311 q 547 189 567 223 q 494 137 526 156 q 417 117 463 117 q 365 124 389 117 q 323 142 341 131 q 292 169 305 154 q 269 203 279 184 l 269 528 q 295 565 279 549 q 330 593 310 582 q 369 608 347 603 q 416 614 391 614 q 493 595 460 614 q 546 543 525 576 q 575 467 566 511 q 585 374 585 423 z "},"ĸ":{"ha":833,"x_min":115,"x_max":799,"o":"m 386 304 l 592 0 l 799 0 l 499 421 l 781 734 l 581 734 l 351 480 l 277 396 l 277 734 l 115 734 l 115 0 l 277 0 l 277 210 l 386 304 z "},"ß":{"ha":833,"x_min":112,"x_max":778,"o":"m 273 0 l 273 731 q 296 846 273 803 q 355 903 318 889 q 395 917 374 915 q 437 913 416 920 q 468 890 454 905 q 490 853 482 876 q 500 813 498 834 q 498 770 502 793 q 483 719 493 741 q 460 677 472 697 q 434 624 446 652 q 423 558 423 596 q 438 479 423 513 q 473 418 452 445 q 520 368 495 391 q 566 323 545 345 q 602 276 587 300 q 616 222 616 252 q 609 179 616 199 q 589 144 602 159 q 557 124 576 132 q 514 117 538 117 q 468 121 490 117 q 425 132 445 125 q 388 145 404 138 q 359 160 371 153 l 327 29 q 363 11 340 19 q 412 -2 385 3 q 467 -11 438 -8 q 522 -14 495 -14 q 629 1 581 -14 q 709 47 676 17 q 760 123 743 78 q 778 228 778 168 q 764 305 778 271 q 728 368 749 339 q 682 419 707 395 q 635 466 656 443 q 600 512 614 488 q 586 562 586 535 q 598 624 586 598 q 625 674 610 649 q 652 732 639 699 q 665 818 665 765 q 645 924 665 879 q 589 999 624 968 q 506 1043 553 1029 q 407 1058 459 1058 q 288 1037 342 1058 q 195 975 234 1015 q 134 872 156 933 q 112 733 112 811 l 112 0 l 273 0 z "},"ə":{"ha":833,"x_min":112,"x_max":767,"o":"m 412 748 q 318 741 361 748 q 240 721 275 733 q 177 692 204 708 q 130 661 150 677 l 182 554 q 223 577 201 566 q 270 597 245 589 q 330 612 297 606 q 402 617 362 617 q 485 601 449 617 q 546 557 521 585 q 583 496 569 531 q 602 421 597 461 q 603 417 602 418 q 603 413 603 415 l 112 413 l 112 316 q 132 182 112 243 q 193 79 152 121 q 292 11 232 35 q 431 -13 352 -13 q 565 14 503 -14 q 671 92 627 42 q 742 208 716 140 q 767 357 767 276 l 767 385 q 742 529 767 463 q 672 644 718 595 q 560 720 626 692 q 412 748 494 748 m 431 118 q 360 131 390 118 q 310 164 330 143 q 281 215 291 186 q 272 277 272 243 l 272 294 l 600 294 q 579 224 593 256 q 544 169 565 192 q 494 131 522 144 q 431 118 465 118 z "},"$":{"ha":833,"x_min":96,"x_max":760,"o":"m 597 257 q 587 202 597 227 q 557 159 577 177 q 505 130 536 140 q 433 120 473 120 q 370 129 401 120 q 314 158 338 137 q 274 213 290 178 q 258 300 258 248 l 96 300 q 120 164 96 221 q 184 71 144 108 q 276 14 224 33 q 383 -12 328 -6 l 383 -143 l 488 -143 l 488 -12 q 600 15 550 -5 q 686 71 650 36 q 741 152 722 104 q 760 258 760 199 q 740 368 760 321 q 682 451 720 415 q 590 513 644 486 q 470 564 536 540 q 389 597 422 581 q 335 634 355 614 q 305 676 314 653 q 296 729 296 699 q 304 784 296 759 q 330 827 313 808 q 377 856 349 846 q 444 867 405 867 q 505 854 477 867 q 551 821 532 842 q 583 762 572 797 q 594 682 594 727 l 755 682 q 736 811 755 755 q 681 909 717 868 q 603 967 648 945 q 501 998 557 990 l 501 1146 l 396 1146 l 396 999 q 288 971 336 992 q 205 915 239 949 q 153 832 172 880 q 134 728 134 785 q 155 617 134 665 q 214 535 176 570 q 306 472 252 499 q 427 423 360 446 q 505 391 473 408 q 559 354 538 374 q 588 310 579 334 q 597 257 597 286 z "},"¢":{"ha":833,"x_min":98,"x_max":743,"o":"m 435 117 q 351 137 385 117 q 297 191 317 157 q 268 267 277 224 q 260 355 260 310 l 260 378 q 269 465 260 422 q 298 541 277 508 q 351 595 317 574 q 435 616 385 616 q 498 604 469 616 q 547 573 526 593 q 579 527 568 553 q 590 471 591 500 l 743 471 q 725 570 743 524 q 675 652 707 616 q 597 711 642 688 q 496 743 551 734 l 496 894 l 365 894 l 365 741 q 249 696 298 729 q 165 614 199 663 q 115 505 132 566 q 98 378 98 445 l 98 355 q 115 227 98 288 q 165 119 132 167 q 249 38 199 71 q 365 -7 298 5 l 365 -166 l 496 -166 l 496 -9 q 593 22 547 0 q 671 79 638 45 q 724 154 705 112 q 743 243 743 195 l 590 243 q 578 192 591 215 q 544 152 566 169 q 494 126 522 135 q 435 117 466 117 z "},"£":{"ha":833,"x_min":77,"x_max":789,"o":"m 352 408 l 561 408 l 561 538 l 348 538 l 342 705 q 352 775 342 744 q 380 827 363 806 q 424 858 399 847 q 477 869 448 869 q 530 861 505 869 q 574 837 555 854 q 605 793 594 820 q 616 728 616 767 l 775 728 q 755 840 775 790 q 699 926 736 890 q 607 981 662 962 q 484 1001 553 1001 q 361 981 417 1001 q 264 923 304 961 q 201 830 224 885 q 178 705 178 774 l 184 538 l 77 538 l 77 408 l 188 408 l 193 278 q 190 234 193 258 q 182 189 188 210 q 164 152 175 168 q 136 132 153 136 l 80 132 l 80 0 l 788 0 l 789 132 l 315 132 q 331 157 324 144 q 342 185 338 171 q 353 232 350 208 q 357 283 357 257 l 352 408 z "},"¥":{"ha":833,"x_min":18,"x_max":822,"o":"m 336 0 l 499 0 l 499 205 l 740 205 l 740 304 l 499 304 l 499 401 l 740 401 l 740 501 l 551 501 l 822 987 l 640 987 l 444 598 l 420 551 l 419 551 l 396 598 l 200 987 l 18 987 l 289 501 l 93 501 l 93 401 l 336 401 l 336 304 l 93 304 l 93 205 l 336 205 l 336 0 z "},"ƒ":{"ha":833,"x_min":104,"x_max":758,"o":"m 627 612 l 627 734 l 485 734 l 485 793 q 494 854 485 827 q 523 899 503 880 q 574 927 543 918 q 648 938 606 937 q 700 932 676 938 q 741 918 723 927 l 758 1044 q 692 1064 724 1056 q 627 1072 661 1072 q 500 1053 557 1072 q 404 1000 444 1035 q 344 913 365 965 q 323 793 323 861 l 323 734 l 209 734 l 209 612 l 323 612 l 323 -20 q 313 -91 323 -60 q 284 -140 304 -121 q 253 -158 271 -151 q 212 -165 235 -165 q 163 -159 196 -165 q 114 -142 130 -153 l 104 -271 q 163 -291 134 -286 q 224 -296 193 -296 q 334 -278 286 -296 q 416 -225 382 -260 q 467 -138 450 -190 q 485 -20 485 -87 l 485 612 l 627 612 z "},"₣":{"ha":833,"x_min":5,"x_max":755,"o":"m 695 420 l 695 555 l 277 555 l 277 852 l 755 852 l 755 987 l 113 987 l 113 0 l 277 0 l 277 420 l 695 420 m 458 163 l 458 277 l 5 277 l 5 163 l 458 163 z "},"₤":{"ha":833,"x_min":73,"x_max":785,"o":"m 560 319 l 560 414 l 348 414 l 345 498 l 560 498 l 560 593 l 341 593 l 338 705 q 348 775 338 744 q 376 827 358 806 q 419 858 394 847 q 472 869 444 869 q 525 861 500 869 q 570 837 551 854 q 601 793 589 820 q 612 728 612 767 l 771 728 q 751 840 771 790 q 694 926 732 890 q 603 981 657 962 q 479 1001 549 1001 q 356 981 412 1001 q 260 923 300 961 q 197 830 219 885 q 174 705 174 774 l 178 593 l 73 593 l 73 498 l 181 498 l 184 414 l 73 414 l 73 319 l 186 319 l 189 278 q 186 234 189 258 q 178 189 184 210 q 160 152 171 168 q 132 132 149 136 l 76 132 l 76 0 l 784 0 l 785 132 l 311 132 q 328 160 321 145 q 340 192 336 176 q 350 236 347 213 q 353 283 353 259 l 351 319 l 560 319 z "},"₧":{"ha":833,"x_min":85,"x_max":817,"o":"m 802 634 l 802 734 l 684 734 l 684 911 l 553 911 l 553 734 l 494 734 q 471 836 489 789 q 422 917 452 883 q 351 969 393 950 q 257 987 310 987 l 85 987 l 85 0 l 216 0 l 216 382 l 257 382 q 351 400 309 382 q 422 452 392 419 q 470 532 452 486 q 494 634 488 578 l 553 634 l 553 202 q 565 103 553 144 q 599 37 577 62 q 651 -2 621 10 q 715 -14 680 -14 q 772 -6 744 -14 q 817 14 801 1 l 798 106 q 777 100 791 104 q 749 97 762 97 q 723 102 735 97 q 703 119 711 107 q 689 151 694 131 q 684 201 684 172 l 684 634 l 802 634 m 216 488 l 216 881 l 257 881 q 307 864 286 881 q 340 821 328 848 q 359 756 353 792 q 365 683 365 721 q 359 611 365 646 q 340 549 353 576 q 307 505 327 522 q 257 488 286 488 l 216 488 z "},"¤":{"ha":833,"x_min":62,"x_max":785,"o":"m 621 55 l 692 -18 l 785 77 l 708 156 q 745 245 732 197 q 758 347 758 293 q 743 453 758 403 q 703 546 729 503 l 785 631 l 692 726 l 612 644 q 523 689 571 673 q 422 705 475 705 q 321 690 369 705 q 233 645 273 674 l 155 726 l 62 631 l 142 549 q 100 455 115 506 q 85 347 85 404 q 99 244 85 293 q 136 153 112 195 l 62 77 l 155 -18 l 224 54 q 316 4 266 22 q 422 -14 366 -14 q 529 4 478 -14 q 621 55 579 22 m 208 347 q 224 439 208 396 q 270 514 241 482 q 338 564 298 545 q 422 583 377 583 q 506 564 467 583 q 574 514 545 545 q 619 439 603 482 q 635 347 635 396 q 619 254 635 297 q 574 179 603 211 q 506 128 545 146 q 422 109 467 109 q 338 128 377 109 q 270 179 298 146 q 224 254 241 211 q 208 347 208 297 z "},"!":{"ha":833,"x_min":316,"x_max":509,"o":"m 488 334 l 494 987 l 329 987 l 336 334 l 488 334 m 316 81 q 341 17 316 43 q 412 -9 366 -9 q 484 17 458 -9 q 509 81 509 43 q 484 147 509 121 q 412 174 458 174 q 341 147 366 174 q 316 81 316 121 z "},"¡":{"ha":833,"x_min":332,"x_max":525,"o":"m 351 396 l 344 -256 l 509 -256 l 503 396 l 351 396 m 525 654 q 499 721 525 694 q 428 748 473 748 q 357 721 382 748 q 332 654 332 694 q 357 590 332 616 q 428 564 382 564 q 499 590 473 564 q 525 654 525 616 z "},"?":{"ha":833,"x_min":117,"x_max":733,"o":"m 342 291 l 493 291 q 494 337 493 317 q 501 374 496 357 q 517 408 506 391 q 549 444 529 425 q 615 505 582 473 q 673 573 648 537 q 716 650 700 609 q 733 740 733 691 q 712 852 733 803 q 652 934 691 901 q 555 984 612 967 q 425 1002 498 1002 q 304 985 360 1002 q 208 935 249 968 q 142 854 166 903 q 117 741 118 805 l 280 741 q 293 798 280 774 q 326 836 305 821 q 372 858 346 851 q 425 865 397 865 q 488 857 460 865 q 534 831 515 848 q 561 790 551 815 q 570 733 570 766 q 558 676 570 704 q 527 623 546 648 q 484 572 507 596 q 437 526 460 548 q 386 476 405 498 q 357 429 367 454 q 345 371 348 403 q 342 291 342 338 m 319 82 q 345 18 319 44 q 416 -8 370 -8 q 487 18 461 -8 q 513 82 513 44 q 487 149 513 122 q 416 175 461 175 q 345 149 370 175 q 319 82 319 122 z "},"¿":{"ha":833,"x_min":138,"x_max":723,"o":"m 517 443 l 367 443 q 366 397 366 416 q 360 361 365 378 q 345 329 355 345 q 313 293 334 313 q 251 232 282 264 q 195 163 219 199 q 153 85 169 126 q 138 -5 138 43 q 157 -116 138 -68 q 215 -198 177 -165 q 307 -249 252 -232 q 429 -267 361 -267 q 545 -250 491 -267 q 637 -201 598 -233 q 700 -120 677 -168 q 723 -8 722 -72 l 561 -8 q 549 -64 560 -41 q 520 -102 538 -87 q 477 -124 501 -117 q 427 -131 454 -131 q 372 -122 397 -131 q 332 -97 347 -114 q 308 -57 316 -81 q 300 -3 300 -33 q 311 57 300 28 q 341 112 323 85 q 381 163 359 138 q 425 210 404 187 q 476 259 458 237 q 504 307 494 281 q 515 364 513 332 q 517 443 517 396 m 357 652 q 376 595 357 618 q 441 572 395 572 q 507 595 487 572 q 527 652 527 618 q 507 712 527 688 q 441 736 487 736 q 376 712 395 736 q 357 652 357 688 z "},",":{"ha":833,"x_min":242,"x_max":463,"o":"m 463 21 l 463 158 l 303 158 l 303 15 q 287 -106 303 -52 q 242 -208 271 -159 l 333 -256 q 427 -128 391 -203 q 463 21 463 -52 z "},".":{"ha":833,"x_min":307,"x_max":543,"o":"m 307 98 q 338 19 307 51 q 425 -14 369 -14 q 511 18 479 -14 q 543 98 543 50 q 511 178 543 145 q 425 211 480 211 q 337 178 368 211 q 307 98 307 144 z "},":":{"ha":833,"x_min":327,"x_max":562,"o":"m 327 98 q 358 19 327 51 q 444 -14 389 -14 q 531 18 499 -14 q 562 98 562 50 q 531 178 562 145 q 444 211 500 211 q 357 178 387 211 q 327 98 327 144 m 327 672 q 358 593 327 625 q 444 561 389 561 q 531 593 499 561 q 562 672 562 625 q 531 752 562 720 q 444 785 500 785 q 357 752 387 785 q 327 672 327 719 z "},";":{"ha":833,"x_min":310,"x_max":575,"o":"m 340 672 q 371 593 340 625 q 457 561 401 561 q 544 593 512 561 q 575 672 575 625 q 544 752 575 720 q 457 785 513 785 q 370 752 400 785 q 340 672 340 719 m 530 21 l 530 158 l 371 158 l 371 15 q 355 -106 371 -52 q 310 -208 339 -159 l 401 -256 q 495 -128 459 -203 q 530 21 530 -52 z "},"…":{"ha":833,"x_min":115,"x_max":880,"o":"m 115 97 q 146 18 115 50 q 233 -14 177 -14 q 319 18 288 -14 q 351 97 351 50 q 319 177 351 144 q 233 210 288 210 q 145 177 176 210 q 115 97 115 144 m 382 97 q 413 18 382 50 q 499 -14 444 -14 q 586 18 554 -14 q 617 97 617 50 q 586 177 617 144 q 499 210 555 210 q 412 177 442 210 q 382 97 382 144 m 644 97 q 675 18 644 50 q 762 -14 706 -14 q 848 18 817 -14 q 880 97 880 50 q 848 177 880 144 q 762 210 817 210 q 674 177 705 210 q 644 97 644 144 z "},"·":{"ha":833,"x_min":338,"x_max":528,"o":"m 338 484 q 363 419 338 445 q 433 393 388 393 q 502 419 477 393 q 528 484 528 444 q 502 549 528 523 q 433 574 477 574 q 363 548 388 574 q 338 484 338 522 z "},"•":{"ha":833,"x_min":276,"x_max":576,"o":"m 276 534 l 276 495 q 287 437 276 463 q 317 391 297 410 q 363 361 336 372 q 426 351 391 351 q 488 361 460 351 q 536 391 516 372 q 565 437 555 410 q 576 495 576 463 l 576 534 q 566 593 576 566 q 536 639 555 620 q 488 669 516 658 q 425 680 460 680 q 363 669 391 680 q 316 639 335 658 q 287 593 297 620 q 276 534 276 566 z "},"_":{"ha":833,"x_min":102,"x_max":722,"o":"m 722 -128 l 722 0 l 102 0 l 102 -128 l 722 -128 z "},"-":{"ha":833,"x_min":173,"x_max":719,"o":"m 719 368 l 719 500 l 173 500 l 173 368 l 719 368 z "},"–":{"ha":833,"x_min":45,"x_max":794,"o":"m 794 422 l 794 554 l 45 554 l 45 422 l 794 422 z "},"—":{"ha":833,"x_min":45,"x_max":793,"o":"m 793 422 l 793 554 l 45 554 l 45 422 l 793 422 z "},"'":{"ha":833,"x_min":321,"x_max":450,"o":"m 450 954 l 450 1042 l 321 1042 l 321 950 l 321 692 l 433 692 l 450 954 z "},"\"":{"ha":833,"x_min":212,"x_max":599,"o":"m 336 968 l 336 1042 l 212 1042 l 212 962 l 212 698 l 318 698 l 336 968 m 599 968 l 599 1042 l 475 1042 l 475 963 l 475 698 l 582 698 l 599 968 z "},"‘":{"ha":833,"x_min":333,"x_max":534,"o":"m 333 805 l 333 694 l 473 694 l 473 806 q 489 919 473 869 q 534 1015 506 970 l 455 1067 q 405 1012 427 1043 q 367 946 383 981 q 342 874 351 911 q 333 805 333 838 z "},"’":{"ha":833,"x_min":315,"x_max":515,"o":"m 515 947 l 515 1057 l 376 1057 l 376 947 q 359 833 376 884 q 315 737 343 783 l 393 686 q 443 741 420 709 q 481 807 465 772 q 506 878 497 842 q 515 947 515 914 z "},"‚":{"ha":833,"x_min":309,"x_max":513,"o":"m 513 47 l 513 170 l 368 170 l 368 46 q 353 -66 368 -16 q 309 -162 337 -117 l 391 -214 q 440 -159 418 -190 q 479 -93 463 -127 q 504 -22 495 -58 q 513 47 513 14 z "},"“":{"ha":833,"x_min":222,"x_max":649,"o":"m 222 805 l 222 694 l 361 694 l 361 806 q 378 919 361 869 q 422 1015 395 970 l 344 1067 q 294 1012 316 1043 q 256 946 272 981 q 231 874 239 911 q 222 805 222 838 m 448 805 l 448 694 l 588 694 l 588 806 q 605 919 588 869 q 649 1015 621 970 l 570 1067 q 520 1012 543 1043 q 482 946 498 981 q 457 874 466 911 q 448 805 448 838 z "},"”":{"ha":833,"x_min":203,"x_max":640,"o":"m 404 947 l 404 1057 l 265 1057 l 265 947 q 249 833 265 884 q 204 737 233 783 l 283 686 q 332 741 310 709 q 371 807 354 772 q 395 878 387 842 q 404 947 404 914 m 640 947 l 640 1057 l 500 1057 l 500 947 q 484 833 500 884 q 439 737 468 783 l 518 686 q 567 741 545 709 q 606 807 589 772 q 631 878 622 842 q 640 947 640 914 z "},"„":{"ha":833,"x_min":212,"x_max":628,"o":"m 416 46 l 416 156 l 272 156 l 272 45 q 256 -68 272 -18 q 212 -163 241 -118 l 297 -216 q 346 -160 324 -192 q 384 -94 368 -129 q 408 -23 399 -60 q 416 46 416 13 m 627 46 l 628 156 l 484 156 l 484 45 q 467 -68 484 -18 q 422 -163 450 -118 l 507 -216 q 556 -160 534 -192 q 594 -94 578 -129 q 618 -23 610 -60 q 627 46 627 13 z "},"′":{"ha":833,"x_min":321,"x_max":450,"o":"m 450 954 l 450 1042 l 321 1042 l 321 950 l 321 692 l 433 692 l 450 954 z "},"″":{"ha":833,"x_min":212,"x_max":599,"o":"m 336 968 l 336 1042 l 212 1042 l 212 962 l 212 698 l 318 698 l 336 968 m 599 968 l 599 1042 l 475 1042 l 475 963 l 475 698 l 582 698 l 599 968 z "},"(":{"ha":833,"x_min":237,"x_max":605,"o":"m 237 401 l 237 390 q 252 209 237 293 q 292 52 267 124 q 351 -80 317 -20 q 422 -185 385 -139 q 498 -263 459 -231 q 572 -313 536 -296 l 605 -222 q 551 -170 578 -201 q 498 -98 524 -139 q 453 -6 475 -58 q 416 107 432 46 q 393 231 403 158 q 384 389 384 304 l 384 403 q 394 564 384 490 q 420 701 404 639 q 464 822 439 766 q 519 919 490 878 q 562 971 540 948 q 605 1010 583 994 l 572 1105 q 498 1055 536 1087 q 422 977 459 1023 q 352 871 385 930 q 292 740 318 811 q 252 582 267 667 q 237 401 237 497 z "},")":{"ha":833,"x_min":216,"x_max":589,"o":"m 589 390 l 589 401 q 573 582 589 498 q 532 736 557 665 q 473 868 507 809 q 401 975 439 928 q 324 1054 363 1021 q 248 1105 284 1087 l 216 1014 q 259 974 237 998 q 301 919 281 949 q 357 818 330 876 q 403 686 384 760 q 427 559 417 630 q 436 403 436 488 l 436 389 q 428 236 436 307 q 404 106 419 165 q 366 -12 389 41 q 317 -107 343 -65 q 267 -174 293 -145 q 216 -222 241 -203 l 248 -313 q 323 -263 284 -296 q 401 -183 363 -231 q 473 -77 439 -137 q 532 55 507 -18 q 573 211 558 127 q 589 390 589 295 z "},"[":{"ha":833,"x_min":279,"x_max":568,"o":"m 568 1011 l 568 1139 l 279 1139 l 279 -220 l 568 -220 l 568 -93 l 437 -93 l 437 1011 l 568 1011 z "},"]":{"ha":833,"x_min":273,"x_max":562,"o":"m 273 1139 l 273 1011 l 404 1011 l 404 -93 l 273 -93 l 273 -220 l 562 -220 l 562 1139 l 273 1139 z "},"{":{"ha":833,"x_min":214,"x_max":667,"o":"m 648 -246 l 667 -151 q 606 -131 630 -151 q 568 -79 583 -111 q 549 -8 554 -47 q 544 70 544 31 l 544 182 q 505 325 543 263 q 385 418 467 386 q 505 512 466 450 q 544 655 544 574 l 544 768 q 546 846 544 806 q 561 917 549 885 q 598 969 573 949 q 667 989 623 989 l 648 1083 q 533 1056 581 1082 q 456 989 486 1030 q 407 884 422 943 q 391 768 391 824 l 391 655 q 348 519 391 561 q 214 478 304 478 l 214 358 q 348 317 304 358 q 391 182 391 275 l 391 70 q 406 -40 391 16 q 453 -141 421 -96 q 533 -216 484 -187 q 648 -246 582 -245 z "},"}":{"ha":833,"x_min":222,"x_max":677,"o":"m 222 -151 l 242 -246 q 357 -216 309 -245 q 437 -141 406 -187 q 484 -40 468 -96 q 499 70 499 16 l 499 182 q 507 250 499 220 q 529 300 514 279 q 587 344 550 330 q 677 358 623 358 l 677 478 q 587 492 624 478 q 529 535 549 506 q 506 586 513 556 q 499 655 499 616 l 499 768 q 485 878 499 821 q 439 980 471 935 q 360 1054 409 1026 q 242 1083 312 1082 l 223 989 q 292 969 267 989 q 330 917 317 949 q 344 846 341 885 q 347 768 347 806 l 347 655 q 361 563 347 606 q 404 486 375 519 q 447 447 422 465 q 500 418 471 430 q 440 384 467 404 q 396 338 414 363 q 359 267 371 307 q 347 182 347 227 l 347 70 q 341 -8 347 31 q 321 -79 336 -47 q 283 -131 307 -111 q 222 -151 259 -151 z "},"‹":{"ha":833,"x_min":267,"x_max":573,"o":"m 405 364 l 573 635 l 462 635 l 267 371 l 267 358 l 462 94 l 573 94 l 405 364 z "},"›":{"ha":833,"x_min":264,"x_max":571,"o":"m 376 635 l 264 635 l 433 363 l 264 93 l 376 93 l 571 357 l 571 370 l 376 635 z "},"+":{"ha":833,"x_min":73,"x_max":749,"o":"m 490 542 l 490 818 l 333 818 l 333 542 l 73 542 l 73 389 l 333 389 l 333 99 l 490 99 l 490 389 l 749 389 l 749 542 l 490 542 z "},"−":{"ha":833,"x_min":106,"x_max":683,"o":"m 683 422 l 683 554 l 106 554 l 106 422 l 683 422 z "},"±":{"ha":833,"x_min":102,"x_max":724,"o":"m 490 610 l 490 866 l 346 866 l 346 610 l 102 610 l 102 476 l 346 476 l 346 212 l 490 212 l 490 476 l 724 476 l 724 610 l 490 610 m 699 0 l 699 133 l 123 133 l 123 0 l 699 0 z "},"×":{"ha":833,"x_min":113,"x_max":741,"o":"m 113 239 l 212 140 l 427 359 l 642 140 l 741 239 l 526 460 l 741 679 l 642 778 l 427 559 l 213 778 l 114 679 l 329 460 l 113 239 z "},"÷":{"ha":833,"x_min":75,"x_max":762,"o":"m 762 396 l 762 538 l 75 538 l 75 396 l 762 396 m 328 741 q 351 680 328 704 q 418 655 375 655 q 486 680 461 655 q 510 741 510 704 q 486 802 510 778 q 418 827 461 827 q 351 802 375 827 q 328 741 328 778 m 326 190 q 350 129 326 153 q 417 104 374 104 q 484 129 460 104 q 509 190 509 153 q 484 251 509 227 q 417 276 460 276 q 350 251 374 276 q 326 190 326 226 z "},"=":{"ha":833,"x_min":111,"x_max":738,"o":"m 738 504 l 738 640 l 111 640 l 111 504 l 738 504 m 738 216 l 738 351 l 111 351 l 111 216 l 738 216 z "},"≠":{"ha":833,"x_min":108,"x_max":734,"o":"m 734 216 l 734 351 l 437 351 l 516 504 l 734 504 l 734 640 l 587 640 l 621 705 l 551 745 l 496 640 l 108 640 l 108 504 l 425 504 l 346 351 l 108 351 l 108 216 l 275 216 l 237 142 l 307 102 l 366 216 l 734 216 z "},"≈":{"ha":833,"x_min":96,"x_max":743,"o":"m 103 595 l 110 464 q 184 537 142 511 q 271 563 227 563 q 350 552 319 564 q 427 517 382 541 q 507 481 469 495 q 589 467 544 467 q 673 493 634 467 q 743 566 711 519 l 736 697 q 665 625 705 651 q 579 598 625 598 q 504 610 537 598 q 432 643 471 622 q 349 681 387 667 q 263 694 312 695 q 176 668 218 694 q 103 595 135 642 m 96 305 l 103 174 q 176 246 135 219 q 263 273 218 273 q 340 262 310 273 q 420 226 371 250 q 500 190 466 203 q 579 176 534 176 q 664 203 624 176 q 736 275 705 229 l 730 407 q 656 334 697 361 q 570 307 615 307 q 491 320 526 307 q 414 356 456 334 q 335 393 368 381 q 254 404 301 405 q 169 377 209 404 q 96 305 129 351 z "},"<":{"ha":833,"x_min":110,"x_max":699,"o":"m 699 113 l 699 275 l 309 414 l 268 429 l 309 444 l 699 585 l 699 747 l 110 495 l 110 365 l 699 113 z "},">":{"ha":833,"x_min":114,"x_max":720,"o":"m 114 113 l 720 365 l 720 496 l 114 747 l 114 587 l 524 444 l 565 431 l 524 418 l 114 273 l 114 113 z "},"≤":{"ha":833,"x_min":121,"x_max":710,"o":"m 710 258 l 710 404 l 321 529 l 279 543 l 321 555 l 710 683 l 710 829 l 121 602 l 121 485 l 710 258 m 701 16 l 701 149 l 125 149 l 125 16 l 701 16 z "},"≥":{"ha":833,"x_min":123,"x_max":728,"o":"m 123 267 l 728 493 l 728 611 l 123 838 l 123 694 l 532 565 l 573 553 l 532 542 l 123 411 l 123 267 m 701 16 l 701 148 l 124 148 l 124 16 l 701 16 z "},"¬":{"ha":833,"x_min":127,"x_max":692,"o":"m 692 254 l 692 545 l 127 545 l 127 431 l 560 431 l 560 254 l 692 254 z "},"/":{"ha":833,"x_min":158,"x_max":694,"o":"m 307 -85 l 694 987 l 546 987 l 158 -85 l 307 -85 z "},"\\":{"ha":833,"x_min":160,"x_max":698,"o":"m 160 987 l 548 -85 l 698 -85 l 310 987 l 160 987 z "},"⁄":{"ha":833,"x_min":195,"x_max":627,"o":"m 279 150 l 627 791 l 543 836 l 195 195 l 279 150 z "},"%":{"ha":833,"x_min":26,"x_max":806,"o":"m 26 810 l 26 758 q 39 685 26 720 q 74 625 51 651 q 133 584 98 599 q 216 568 169 568 q 297 584 262 568 q 356 625 332 599 q 391 685 379 651 q 403 758 403 720 l 403 810 q 391 884 403 850 q 356 945 379 919 q 297 986 332 971 q 214 1002 262 1002 q 132 986 168 1002 q 74 945 97 971 q 38 884 50 919 q 26 810 26 850 m 140 758 l 140 810 q 144 845 140 828 q 157 876 148 862 q 179 896 165 888 q 214 903 193 903 q 250 896 235 903 q 273 876 264 888 q 286 845 281 862 q 290 810 290 828 l 290 758 q 286 724 290 741 q 273 694 281 707 q 250 674 264 682 q 216 667 236 667 q 180 674 195 667 q 157 694 165 682 q 143 724 147 707 q 140 758 140 741 m 429 229 l 429 176 q 441 102 429 137 q 477 42 453 68 q 536 1 500 16 q 618 -14 572 -14 q 700 1 665 -14 q 759 42 735 16 q 794 102 783 68 q 806 176 806 137 l 806 229 q 794 302 806 267 q 759 363 782 336 q 700 404 735 389 q 617 419 665 419 q 536 404 571 419 q 477 363 500 389 q 441 302 453 336 q 429 229 429 267 m 542 176 l 542 229 q 546 263 542 247 q 559 293 550 280 q 582 313 568 306 q 617 321 596 321 q 652 313 637 321 q 676 293 667 305 q 688 263 684 280 q 692 229 692 247 l 692 176 q 689 141 692 157 q 677 112 686 125 q 655 91 669 99 q 618 83 641 83 q 584 91 598 83 q 561 112 570 99 q 547 141 551 125 q 542 176 542 158 m 277 132 l 659 831 l 574 874 l 191 175 l 277 132 z "},"‰":{"ha":833,"x_min":45,"x_max":811,"o":"m 223 203 l 223 176 q 234 102 223 137 q 268 42 245 68 q 322 1 290 16 q 397 -14 355 -14 q 441 -9 421 -14 q 478 5 462 -4 q 499 18 490 10 q 517 34 509 25 q 534 19 525 26 q 553 7 543 12 q 592 -8 571 -3 q 639 -14 614 -14 q 713 1 681 -14 q 768 42 746 16 q 800 102 789 68 q 811 176 811 137 l 811 203 q 800 276 811 241 q 767 337 789 311 q 713 378 745 363 q 637 393 680 393 q 592 388 613 393 q 553 373 571 382 q 534 360 543 367 q 517 345 525 353 q 497 362 508 354 q 474 376 486 370 q 438 389 458 385 q 396 393 419 393 q 322 378 354 393 q 268 337 290 363 q 234 276 245 311 q 223 203 223 241 m 45 810 l 45 784 q 56 711 45 745 q 89 651 67 677 q 142 610 111 625 q 214 595 174 595 q 289 610 256 595 q 342 651 321 625 q 376 711 364 677 q 387 784 387 745 l 387 810 q 376 884 387 850 q 342 945 365 919 q 288 986 321 970 q 213 1001 256 1001 q 141 986 172 1001 q 88 945 110 970 q 56 884 66 919 q 45 810 45 850 m 336 176 l 336 203 q 339 237 336 220 q 349 267 342 254 q 368 287 356 279 q 396 295 379 295 q 425 287 413 295 q 444 267 436 279 q 453 237 450 254 q 456 203 456 220 l 456 176 q 454 141 456 157 q 446 112 452 125 q 427 91 439 99 q 397 83 416 83 q 369 91 381 83 q 351 112 357 99 q 340 141 343 125 q 336 176 336 158 m 153 784 l 153 810 q 156 845 153 828 q 166 875 159 861 q 184 895 173 887 q 213 903 196 903 q 241 895 230 903 q 260 875 253 887 q 271 845 268 861 q 274 810 274 828 l 274 784 q 271 750 274 766 q 260 721 268 733 q 242 700 254 707 q 214 692 231 692 q 186 700 197 692 q 167 721 174 707 q 156 750 159 733 q 153 784 153 766 m 577 176 l 577 203 q 580 237 577 220 q 590 267 583 254 q 609 287 597 279 q 637 295 621 295 q 666 287 654 295 q 685 267 677 279 q 695 237 692 254 q 698 203 698 220 l 698 176 q 695 141 698 157 q 687 112 693 125 q 669 91 681 99 q 639 83 657 83 q 611 91 623 83 q 592 112 599 99 q 581 141 584 125 q 577 176 577 158 m 129 314 l 675 732 l 618 793 l 71 375 l 129 314 z "},"|":{"ha":833,"x_min":363,"x_max":474,"o":"m 474 -275 l 474 987 l 363 987 l 363 -275 l 474 -275 z "},"¦":{"ha":833,"x_min":338,"x_max":490,"o":"m 338 -183 l 490 -183 l 490 355 l 338 355 l 338 -183 m 490 473 l 490 987 l 338 987 l 338 473 l 490 473 z "},"†":{"ha":833,"x_min":75,"x_max":747,"o":"m 747 599 l 747 734 l 491 734 l 491 987 l 328 987 l 328 734 l 75 734 l 75 599 l 328 599 l 328 0 l 491 0 l 491 599 l 747 599 z "},"‡":{"ha":833,"x_min":85,"x_max":755,"o":"m 755 0 l 755 131 l 498 131 l 498 602 l 755 602 l 755 734 l 498 734 l 498 987 l 336 987 l 336 734 l 85 734 l 85 602 l 336 602 l 336 131 l 85 131 l 85 0 l 336 0 l 336 -282 l 498 -282 l 498 0 l 755 0 z "},"©":{"ha":833,"x_min":60,"x_max":783,"o":"m 585 300 l 507 300 q 502 260 507 277 q 488 232 497 243 q 458 214 476 220 q 415 208 440 208 q 371 218 390 208 q 340 245 353 228 q 321 285 327 262 q 315 337 315 309 l 315 398 q 321 449 315 425 q 340 490 327 473 q 371 516 353 507 q 415 526 390 526 q 457 521 439 526 q 486 503 475 515 q 503 475 497 492 q 508 434 508 458 l 585 434 q 575 500 585 471 q 546 549 565 529 q 491 583 524 572 q 415 595 458 595 q 341 580 374 595 q 286 539 308 565 q 250 476 262 513 q 238 397 238 440 l 238 337 q 250 258 238 294 q 286 196 262 222 q 341 155 308 170 q 415 140 374 140 q 490 152 457 140 q 545 186 524 163 q 574 234 564 205 q 585 300 585 262 m 121 368 q 144 492 121 434 q 208 593 168 550 q 304 660 249 635 q 422 684 359 684 q 539 660 485 684 q 635 593 594 635 q 699 492 675 550 q 722 368 722 434 q 699 242 722 300 q 635 141 675 184 q 539 73 594 98 q 422 47 485 47 q 304 72 359 47 q 208 141 249 97 q 144 242 168 184 q 121 368 121 300 m 60 368 q 89 218 60 288 q 166 97 117 149 q 281 16 215 45 q 422 -14 347 -14 q 564 16 498 -14 q 678 97 629 45 q 754 218 726 149 q 783 368 783 288 q 754 517 783 448 q 678 637 726 586 q 564 718 629 688 q 422 747 498 747 q 283 719 349 747 q 168 640 217 690 q 90 519 119 589 q 60 368 61 449 z "},"®":{"ha":833,"x_min":60,"x_max":781,"o":"m 60 367 q 88 217 60 286 q 165 96 116 147 q 279 15 213 45 q 420 -14 345 -14 q 562 15 496 -14 q 676 96 627 45 q 753 217 725 147 q 781 367 781 286 q 753 516 781 447 q 676 637 725 586 q 562 718 627 688 q 420 747 496 747 q 279 718 345 747 q 165 637 213 688 q 88 516 116 586 q 60 367 60 447 m 120 367 q 143 492 120 433 q 207 593 166 550 q 302 660 248 635 q 420 684 357 684 q 538 660 483 684 q 633 593 593 635 q 697 492 674 550 q 721 367 721 433 q 697 242 721 300 q 633 141 674 184 q 538 73 593 98 q 420 48 483 48 q 302 73 357 48 q 207 141 248 98 q 143 242 166 184 q 120 367 120 300 m 346 328 l 429 328 l 509 157 l 586 157 l 486 352 q 555 394 531 368 q 578 458 578 420 q 534 556 578 524 q 414 589 489 589 l 271 589 l 271 157 l 346 157 l 346 328 m 346 396 l 346 522 l 414 522 q 484 507 464 522 q 504 456 504 493 q 497 431 504 441 q 480 412 491 420 q 455 400 469 404 q 425 396 440 396 l 346 396 z "},"™":{"ha":833,"x_min":75,"x_max":754,"o":"m 680 874 l 680 621 l 754 621 l 754 987 l 665 987 l 574 728 l 486 987 l 394 987 l 394 621 l 468 621 l 468 874 l 553 621 l 595 621 l 680 874 m 343 923 l 343 987 l 75 987 l 75 923 l 170 923 l 170 623 l 250 623 l 250 923 l 343 923 z "},"°":{"ha":833,"x_min":243,"x_max":598,"o":"m 243 819 q 258 749 243 781 q 296 692 272 716 q 353 653 321 667 q 422 640 386 640 q 490 653 458 640 q 546 692 522 667 q 584 749 570 716 q 598 819 598 782 q 584 889 598 856 q 546 947 570 922 q 490 986 522 972 q 422 1001 458 1001 q 353 986 386 1001 q 296 947 321 972 q 258 889 272 922 q 243 819 243 856 m 336 819 q 342 854 336 838 q 361 882 349 870 q 389 901 373 895 q 422 907 405 907 q 455 901 440 907 q 482 882 471 895 q 499 854 493 870 q 506 819 506 838 q 499 785 506 801 q 482 758 493 769 q 455 740 471 747 q 422 734 440 734 q 389 740 405 734 q 361 759 373 747 q 342 785 349 770 q 336 819 336 801 z "},"*":{"ha":833,"x_min":106,"x_max":782,"o":"m 368 610 l 184 389 l 296 311 l 439 553 l 583 303 l 695 385 l 517 605 l 782 667 l 741 800 l 491 694 l 515 987 l 378 987 l 399 698 l 147 806 l 106 675 l 368 610 z "},"#":{"ha":833,"x_min":33,"x_max":790,"o":"m 456 278 l 405 0 l 516 0 l 568 278 l 739 278 l 739 384 l 587 384 l 627 598 l 790 598 l 790 705 l 646 705 l 699 987 l 588 987 l 536 705 l 381 705 l 433 987 l 323 987 l 270 705 l 85 705 l 85 598 l 250 598 l 210 384 l 33 384 l 33 278 l 191 278 l 140 0 l 251 0 l 302 278 l 456 278 m 321 384 l 361 598 l 515 598 l 476 384 l 321 384 z "},"&":{"ha":833,"x_min":60,"x_max":826,"o":"m 60 252 q 80 145 60 194 q 139 60 101 96 q 232 5 177 25 q 355 -14 287 -14 q 434 -6 397 -14 q 507 16 472 1 q 548 37 528 25 q 589 64 569 50 l 638 0 l 826 0 l 701 162 q 776 302 751 224 q 801 470 801 380 l 659 470 q 647 366 659 414 q 612 277 634 317 l 427 516 l 485 564 q 540 609 515 586 q 585 660 566 633 q 614 716 604 686 q 625 781 625 746 q 609 865 625 825 q 565 936 593 905 q 495 984 536 966 q 405 1002 454 1002 q 299 985 347 1002 q 219 936 252 968 q 167 858 185 904 q 149 753 149 811 q 156 691 149 722 q 177 631 163 661 q 204 580 188 606 q 239 526 220 553 l 222 513 q 159 461 187 488 q 110 406 131 435 q 73 335 86 373 q 60 252 60 297 m 359 117 q 301 127 327 117 q 258 157 276 138 q 232 202 241 176 q 222 258 222 229 q 225 289 222 272 q 237 327 229 307 q 263 371 246 347 q 305 414 280 394 l 316 423 l 511 166 q 482 148 497 156 q 452 134 467 140 q 406 121 429 125 q 359 117 383 117 m 301 754 q 308 799 301 778 q 328 836 314 819 q 359 861 340 851 q 405 870 379 870 q 438 862 423 870 q 463 840 453 854 q 479 810 473 827 q 484 774 484 793 q 483 752 484 765 q 476 725 481 739 q 458 695 471 710 q 425 666 446 680 l 355 612 q 333 649 343 631 q 317 684 323 667 q 305 719 309 702 q 301 754 301 736 z "},"@":{"ha":833,"x_min":33,"x_max":793,"o":"m 790 549 q 771 726 793 646 q 705 863 749 806 q 596 951 661 920 q 450 983 532 983 q 288 943 361 983 q 159 834 214 903 q 72 668 104 764 q 36 465 40 572 q 54 271 33 358 q 121 123 75 184 q 238 28 167 62 q 410 -5 310 -5 q 457 -2 432 -5 q 506 7 481 1 q 553 23 530 14 q 593 45 575 33 l 571 132 q 536 116 555 123 q 497 103 517 109 q 454 95 475 98 q 412 92 432 92 q 288 116 341 92 q 200 187 235 140 q 149 303 165 234 q 136 465 133 373 q 163 636 139 558 q 229 771 186 715 q 323 856 269 826 q 446 886 378 886 q 557 865 509 886 q 638 800 606 843 q 686 694 671 758 q 699 546 702 630 q 693 449 699 494 q 675 372 687 404 q 647 320 663 339 q 610 302 630 302 q 593 304 601 302 q 580 313 585 306 q 571 334 574 321 q 570 371 568 348 l 600 722 q 548 761 580 744 q 466 777 515 777 q 375 755 416 777 q 304 692 334 733 q 254 594 273 652 q 229 464 235 536 q 230 361 223 408 q 254 282 237 315 q 299 230 271 248 q 365 212 328 212 q 406 219 387 212 q 442 237 425 225 q 467 259 455 247 q 488 285 478 271 q 503 258 494 270 q 522 236 511 245 q 555 218 536 224 q 595 212 573 212 q 683 242 646 212 q 742 320 719 272 q 777 429 765 368 q 790 549 788 489 m 332 464 q 347 556 336 515 q 375 624 358 596 q 416 667 392 652 q 473 682 441 682 q 489 680 482 682 q 502 677 496 679 l 476 377 l 475 369 q 462 348 469 357 q 447 332 454 338 q 421 316 435 321 q 392 312 407 312 q 363 322 376 312 q 343 352 351 332 q 333 399 336 371 q 332 464 330 428 z "},"§":{"ha":833,"x_min":58,"x_max":785,"o":"m 785 310 q 763 417 785 372 q 700 495 741 462 q 647 529 677 513 q 583 558 618 545 q 526 578 556 568 q 464 596 496 587 q 402 614 429 606 q 353 630 374 622 q 318 645 334 637 q 292 661 303 652 q 257 698 267 677 q 248 749 248 719 q 258 796 248 774 q 292 834 269 818 q 348 860 314 850 q 427 870 382 870 q 505 858 471 870 q 562 823 539 845 q 596 772 585 802 q 608 710 608 743 l 771 710 q 747 834 771 780 q 679 926 723 889 q 571 982 634 963 q 427 1001 507 1001 q 287 983 350 1001 q 179 932 224 965 q 110 852 134 899 q 85 747 85 805 q 96 668 85 703 q 125 605 106 633 q 149 577 136 591 q 178 553 162 564 q 141 530 158 543 q 112 504 125 518 q 75 443 87 477 q 62 368 62 408 q 84 259 62 304 q 148 181 106 214 q 204 144 172 161 q 273 114 236 128 q 361 86 313 99 q 447 60 409 73 q 508 37 482 48 q 552 14 534 26 q 589 -24 578 -3 q 600 -71 600 -44 q 590 -114 600 -94 q 562 -149 580 -134 q 504 -178 539 -168 q 420 -189 468 -189 q 349 -182 385 -189 q 284 -156 313 -174 q 238 -107 256 -138 q 220 -32 220 -77 l 58 -33 q 90 -170 58 -115 q 172 -258 121 -225 q 288 -306 222 -292 q 420 -321 353 -321 q 560 -304 497 -321 q 667 -255 623 -288 q 736 -177 712 -223 q 761 -69 761 -130 q 752 4 761 -28 q 726 63 744 37 q 701 96 715 81 q 668 124 686 111 q 701 144 686 133 q 729 168 716 155 q 770 230 756 195 q 785 310 785 266 m 404 458 q 462 439 435 448 q 511 422 489 430 q 547 405 530 414 q 576 387 563 397 q 613 348 602 369 q 625 298 625 326 q 617 256 625 276 q 597 222 610 237 q 573 201 587 210 q 543 186 559 193 q 494 203 519 195 q 440 218 469 210 q 350 247 387 234 q 290 274 313 260 q 238 318 253 294 q 223 378 223 342 q 229 420 223 401 q 248 454 235 439 q 270 475 257 466 q 301 490 283 484 q 350 473 324 481 q 404 458 376 465 z "},"¶":{"ha":833,"x_min":145,"x_max":674,"o":"m 536 0 l 674 0 l 674 987 l 479 987 q 336 963 398 987 q 231 897 274 939 q 167 796 189 854 q 145 670 145 738 q 167 543 145 602 q 231 443 189 485 q 336 376 274 400 q 479 353 398 353 l 536 353 l 536 0 z "},"^":{"ha":833,"x_min":150,"x_max":697,"o":"m 150 463 l 287 463 l 410 780 l 422 833 l 435 780 l 561 463 l 697 463 l 481 987 l 366 987 l 150 463 z "},"~":{"ha":833,"x_min":24,"x_max":786,"o":"m 786 507 l 674 519 q 666 475 674 496 q 644 437 658 453 q 613 410 631 420 q 574 399 595 399 q 540 404 557 399 q 507 416 524 408 q 476 435 492 424 q 442 460 460 446 q 392 499 417 482 q 342 528 368 517 q 288 546 316 540 q 230 553 260 553 q 146 534 184 553 q 81 484 108 516 q 39 409 54 452 q 24 315 24 365 l 133 301 q 141 345 133 324 q 163 382 149 366 q 196 407 177 397 q 235 416 214 416 q 267 413 251 416 q 297 402 282 410 q 332 383 315 395 q 368 356 350 371 q 419 315 395 332 q 470 286 444 298 q 522 269 495 275 q 579 263 549 263 q 663 282 625 263 q 729 334 701 301 q 771 411 756 367 q 786 507 786 456 z "},"Á":{"ha":833,"x_min":34,"x_max":816,"o":"m 581 227 l 647 0 l 816 0 l 500 987 l 355 987 l 34 0 l 203 0 l 271 227 l 581 227 m 312 367 l 427 758 l 541 367 l 312 367 m 484 1236 l 358 1051 l 483 1051 l 668 1236 l 484 1236 z "},"Ă":{"ha":833,"x_min":34,"x_max":816,"o":"m 581 227 l 647 0 l 816 0 l 500 987 l 355 987 l 34 0 l 203 0 l 271 227 l 581 227 m 312 367 l 427 758 l 541 367 l 312 367 m 647 1262 l 526 1262 q 520 1226 526 1243 q 503 1196 515 1208 q 473 1174 491 1182 q 429 1166 454 1166 q 384 1174 402 1166 q 353 1195 365 1182 q 336 1226 342 1208 q 330 1262 330 1243 l 209 1262 q 224 1184 209 1219 q 269 1124 240 1149 q 337 1085 297 1099 q 429 1071 378 1071 q 519 1085 479 1071 q 589 1124 559 1099 q 632 1184 616 1149 q 647 1262 647 1220 z "},"Â":{"ha":833,"x_min":34,"x_max":816,"o":"m 581 227 l 647 0 l 816 0 l 500 987 l 355 987 l 34 0 l 203 0 l 271 227 l 581 227 m 312 367 l 427 758 l 541 367 l 312 367 m 662 1101 l 475 1264 l 380 1264 l 197 1101 l 197 1082 l 326 1082 l 428 1175 l 531 1082 l 662 1082 l 662 1101 z "},"Ä":{"ha":833,"x_min":34,"x_max":816,"o":"m 581 227 l 647 0 l 816 0 l 500 987 l 355 987 l 34 0 l 203 0 l 271 227 l 581 227 m 312 367 l 427 758 l 541 367 l 312 367 m 185 1164 q 208 1107 185 1130 q 270 1084 231 1084 q 332 1107 309 1084 q 355 1164 355 1130 q 332 1220 355 1197 q 270 1243 309 1243 q 208 1220 231 1243 q 185 1164 185 1197 m 496 1163 q 519 1106 496 1129 q 581 1083 542 1083 q 643 1106 620 1083 q 666 1163 666 1129 q 643 1219 666 1196 q 581 1242 621 1242 q 519 1219 542 1242 q 496 1163 496 1196 z "},"À":{"ha":833,"x_min":34,"x_max":816,"o":"m 581 227 l 647 0 l 816 0 l 500 987 l 355 987 l 34 0 l 203 0 l 271 227 l 581 227 m 312 367 l 427 758 l 541 367 l 312 367 m 496 1053 l 376 1238 l 193 1238 l 367 1053 l 496 1053 z "},"Ā":{"ha":833,"x_min":34,"x_max":816,"o":"m 581 227 l 647 0 l 816 0 l 500 987 l 355 987 l 34 0 l 203 0 l 271 227 l 581 227 m 312 367 l 427 758 l 541 367 l 312 367 m 676 1103 l 676 1208 l 185 1208 l 185 1103 l 676 1103 z "},"Ą":{"ha":833,"x_min":34,"x_max":816,"o":"m 500 987 l 355 987 l 34 0 l 203 0 l 271 227 l 581 227 l 643 13 q 605 -17 623 -1 q 576 -50 588 -33 q 547 -102 557 -75 q 536 -155 536 -128 q 547 -213 536 -188 q 577 -256 558 -239 q 622 -281 596 -273 q 678 -290 648 -290 q 753 -280 724 -290 q 802 -260 783 -271 l 774 -165 q 749 -175 764 -170 q 713 -180 734 -181 q 675 -167 686 -180 q 665 -132 665 -153 q 672 -92 665 -111 q 694 -56 679 -73 q 727 -26 707 -41 q 775 0 747 -12 l 816 0 l 500 987 m 312 367 l 427 758 l 541 367 l 312 367 z "},"Å":{"ha":833,"x_min":34,"x_max":816,"o":"m 581 227 l 647 0 l 816 0 l 500 987 l 355 987 l 34 0 l 203 0 l 271 227 l 581 227 m 312 367 l 427 758 l 541 367 l 312 367 m 286 1175 q 297 1121 286 1145 q 328 1080 309 1097 q 373 1053 347 1063 q 429 1044 399 1044 q 483 1053 458 1044 q 527 1080 508 1063 q 557 1121 546 1097 q 568 1175 568 1145 q 557 1228 568 1203 q 527 1270 546 1253 q 483 1298 508 1288 q 429 1308 458 1308 q 373 1298 399 1308 q 328 1270 347 1288 q 297 1228 309 1253 q 286 1175 286 1203 m 359 1175 q 365 1203 359 1190 q 379 1225 370 1216 q 401 1240 389 1235 q 429 1245 414 1245 q 455 1240 443 1245 q 476 1226 467 1235 q 490 1203 485 1217 q 495 1175 495 1190 q 490 1146 495 1159 q 475 1124 485 1134 q 454 1111 467 1116 q 429 1106 442 1106 q 401 1111 414 1106 q 380 1125 389 1116 q 365 1147 370 1135 q 359 1175 359 1160 z "},"Ǻ":{"ha":833,"x_min":34,"x_max":816,"o":"m 581 227 l 647 0 l 816 0 l 500 987 l 355 987 l 34 0 l 203 0 l 271 227 l 581 227 m 312 367 l 427 758 l 541 367 l 312 367 m 502 1430 l 389 1297 l 495 1297 l 661 1430 l 502 1430 m 302 1147 q 312 1100 302 1122 q 340 1063 322 1078 q 380 1039 357 1047 q 429 1030 404 1030 q 478 1039 455 1030 q 518 1063 501 1047 q 544 1100 534 1078 q 554 1147 554 1122 q 544 1195 554 1173 q 518 1234 534 1217 q 478 1258 501 1249 q 429 1267 455 1267 q 380 1258 404 1267 q 340 1234 357 1249 q 312 1195 322 1217 q 302 1147 302 1173 m 370 1147 q 387 1191 370 1174 q 429 1208 404 1208 q 471 1191 454 1208 q 487 1147 487 1174 q 471 1105 487 1122 q 429 1088 454 1088 q 387 1105 404 1088 q 370 1147 370 1122 z "},"Ã":{"ha":833,"x_min":34,"x_max":816,"o":"m 581 227 l 647 0 l 816 0 l 500 987 l 355 987 l 34 0 l 203 0 l 271 227 l 581 227 m 312 367 l 427 758 l 541 367 l 312 367 m 669 1257 l 585 1278 q 580 1250 585 1263 q 567 1229 575 1238 q 546 1213 559 1219 q 520 1208 534 1208 q 472 1217 494 1208 q 427 1239 449 1227 q 381 1259 405 1250 q 330 1269 358 1269 q 272 1255 298 1269 q 227 1218 245 1241 q 198 1166 208 1196 q 187 1107 187 1137 l 272 1088 q 283 1127 273 1111 q 312 1148 294 1143 q 337 1154 324 1154 q 362 1152 349 1154 q 400 1140 382 1149 q 437 1122 418 1131 q 476 1105 455 1112 q 526 1097 498 1097 q 585 1111 558 1097 q 630 1147 611 1124 q 659 1198 648 1168 q 669 1257 669 1227 z "},"Ǽ":{"ha":833,"x_min":28,"x_max":804,"o":"m 804 0 l 804 132 l 596 132 l 595 444 l 767 444 l 767 576 l 595 576 l 595 854 l 789 854 l 789 987 l 376 987 l 28 0 l 195 0 l 267 232 l 441 232 l 441 0 l 804 0 m 311 376 l 440 786 l 441 376 l 311 376 m 545 1236 l 419 1051 l 544 1051 l 729 1236 l 545 1236 z "},"Ć":{"ha":833,"x_min":62,"x_max":768,"o":"m 768 304 l 604 304 q 587 224 600 259 q 551 167 573 190 q 495 131 528 143 q 420 119 463 119 q 358 129 385 119 q 309 157 330 138 q 274 199 289 175 q 250 254 260 224 q 232 333 238 290 q 227 426 227 376 l 227 562 q 231 641 227 602 q 244 713 235 679 q 274 783 256 751 q 319 834 292 814 q 364 859 338 850 q 421 868 389 868 q 499 855 467 868 q 554 817 532 842 q 588 756 576 791 q 605 676 601 720 l 768 676 q 735 810 760 750 q 665 913 709 871 q 561 979 622 956 q 421 1002 499 1002 q 315 986 363 1002 q 227 943 267 970 q 152 869 184 912 q 100 773 120 826 q 71 672 81 726 q 62 561 62 618 l 62 426 q 72 310 62 366 q 101 207 81 254 q 150 118 121 159 q 217 50 178 78 q 308 2 257 19 q 420 -14 359 -14 q 556 8 495 -14 q 663 73 618 31 q 734 173 707 115 q 768 304 761 232 m 513 1242 l 388 1057 l 513 1057 l 698 1242 l 513 1242 z "},"Č":{"ha":833,"x_min":62,"x_max":768,"o":"m 768 304 l 604 304 q 587 224 600 259 q 551 167 573 190 q 495 131 528 143 q 420 119 463 119 q 358 129 385 119 q 309 157 330 138 q 274 199 289 175 q 250 254 260 224 q 232 333 238 290 q 227 426 227 376 l 227 562 q 231 641 227 602 q 244 713 235 679 q 274 783 256 751 q 319 834 292 814 q 364 859 338 850 q 421 868 389 868 q 499 855 467 868 q 554 817 532 842 q 588 756 576 791 q 605 676 601 720 l 768 676 q 735 810 760 750 q 665 913 709 871 q 561 979 622 956 q 421 1002 499 1002 q 315 986 363 1002 q 227 943 267 970 q 152 869 184 912 q 100 773 120 826 q 71 672 81 726 q 62 561 62 618 l 62 426 q 72 310 62 366 q 101 207 81 254 q 150 118 121 159 q 217 50 178 78 q 308 2 257 19 q 420 -14 359 -14 q 556 8 495 -14 q 663 73 618 31 q 734 173 707 115 q 768 304 761 232 m 458 1178 l 357 1271 l 219 1271 l 219 1257 l 407 1088 l 509 1088 l 697 1258 l 697 1271 l 558 1271 l 458 1178 z "},"Ç":{"ha":833,"x_min":62,"x_max":768,"o":"m 768 304 l 604 304 q 587 224 600 259 q 551 167 573 190 q 495 131 528 143 q 420 119 463 119 q 358 129 385 119 q 309 157 330 138 q 274 199 289 175 q 250 254 260 224 q 232 333 238 290 q 227 426 227 376 l 227 562 q 231 641 227 602 q 244 713 235 679 q 274 783 256 751 q 319 834 292 814 q 364 859 338 850 q 421 868 389 868 q 499 855 467 868 q 554 817 532 842 q 588 756 576 791 q 605 676 601 720 l 768 676 q 735 810 760 750 q 665 913 709 871 q 561 979 622 956 q 421 1002 499 1002 q 315 986 363 1002 q 227 943 267 970 q 152 869 184 912 q 100 773 120 826 q 71 672 81 726 q 62 561 62 618 l 62 426 q 72 310 62 366 q 101 207 81 254 q 150 118 121 159 q 217 50 178 78 q 308 2 257 19 q 420 -14 359 -14 q 556 8 495 -14 q 663 73 618 31 q 734 173 707 115 q 768 304 761 232 m 481 4 l 361 4 l 340 -90 q 387 -95 367 -92 q 419 -105 406 -98 q 437 -122 431 -112 q 443 -148 443 -133 q 435 -176 443 -165 q 416 -195 428 -188 q 386 -205 403 -202 q 349 -209 369 -209 l 354 -302 q 444 -292 405 -302 q 511 -264 484 -282 q 559 -216 543 -245 q 576 -150 576 -187 q 567 -100 576 -121 q 544 -66 558 -79 q 511 -44 529 -52 q 473 -33 492 -36 l 481 4 z "},"Ĉ":{"ha":833,"x_min":62,"x_max":768,"o":"m 768 304 l 604 304 q 587 224 600 259 q 551 167 573 190 q 495 131 528 143 q 420 119 463 119 q 358 129 385 119 q 309 157 330 138 q 274 199 289 175 q 250 254 260 224 q 232 333 238 290 q 227 426 227 376 l 227 562 q 231 641 227 602 q 244 713 235 679 q 274 783 256 751 q 319 834 292 814 q 364 859 338 850 q 421 868 389 868 q 499 855 467 868 q 554 817 532 842 q 588 756 576 791 q 605 676 601 720 l 768 676 q 735 810 760 750 q 665 913 709 871 q 561 979 622 956 q 421 1002 499 1002 q 315 986 363 1002 q 227 943 267 970 q 152 869 184 912 q 100 773 120 826 q 71 672 81 726 q 62 561 62 618 l 62 426 q 72 310 62 366 q 101 207 81 254 q 150 118 121 159 q 217 50 178 78 q 308 2 257 19 q 420 -14 359 -14 q 556 8 495 -14 q 663 73 618 31 q 734 173 707 115 q 768 304 761 232 m 692 1106 l 506 1270 l 411 1270 l 227 1107 l 227 1088 l 356 1088 l 458 1181 l 562 1088 l 692 1088 l 692 1106 z "},"Ď":{"ha":833,"x_min":94,"x_max":772,"o":"m 94 0 l 343 0 q 470 16 411 0 q 578 63 530 33 q 657 130 622 91 q 718 218 693 170 q 758 327 744 267 q 772 454 772 387 l 772 532 q 757 663 772 602 q 715 777 742 725 q 649 866 688 826 q 560 932 610 906 q 458 973 514 958 q 338 987 401 987 l 94 987 l 94 0 m 258 854 l 338 854 q 411 845 377 854 q 472 821 445 837 q 536 767 509 800 q 580 692 564 733 q 600 618 593 658 q 606 533 606 578 l 606 454 q 600 369 606 409 q 580 295 593 329 q 542 224 565 255 q 488 173 518 193 q 423 143 459 153 q 343 132 387 132 l 258 132 l 258 854 m 376 1168 l 275 1261 l 137 1261 l 137 1248 l 325 1079 l 427 1079 l 615 1249 l 615 1261 l 476 1261 l 376 1168 z "},"Đ":{"ha":833,"x_min":-33,"x_max":782,"o":"m 104 0 l 353 0 q 530 34 451 0 q 666 127 610 67 q 752 271 722 187 q 782 454 782 354 l 782 532 q 752 716 782 633 q 665 860 722 800 q 528 953 608 920 q 348 987 448 987 l 104 987 l 104 556 l -33 556 l -33 443 l 104 443 l 104 0 m 420 443 l 420 556 l 269 556 l 269 854 l 348 854 q 465 830 415 854 q 549 764 515 806 q 600 662 583 721 q 616 533 616 604 l 616 454 q 600 323 616 382 q 549 221 583 264 q 467 156 516 179 q 353 132 418 132 l 269 132 l 269 443 l 420 443 z "},"É":{"ha":833,"x_min":110,"x_max":750,"o":"m 682 443 l 682 574 l 273 574 l 273 852 l 747 852 l 747 987 l 110 987 l 110 0 l 750 0 l 750 134 l 273 134 l 273 443 l 682 443 m 484 1233 l 359 1048 l 484 1048 l 669 1233 l 484 1233 z "},"Ĕ":{"ha":833,"x_min":110,"x_max":750,"o":"m 682 443 l 682 574 l 273 574 l 273 852 l 747 852 l 747 987 l 110 987 l 110 0 l 750 0 l 750 134 l 273 134 l 273 443 l 682 443 m 648 1259 l 526 1259 q 521 1222 526 1240 q 504 1192 515 1205 q 473 1171 492 1179 q 429 1163 455 1163 q 384 1171 403 1163 q 354 1192 366 1179 q 337 1222 342 1205 q 331 1259 331 1240 l 210 1259 q 225 1181 210 1216 q 269 1120 241 1145 q 338 1081 298 1095 q 429 1067 378 1067 q 520 1081 479 1067 q 589 1120 560 1095 q 632 1181 617 1145 q 648 1259 648 1217 z "},"Ě":{"ha":833,"x_min":110,"x_max":750,"o":"m 682 443 l 682 574 l 273 574 l 273 852 l 747 852 l 747 987 l 110 987 l 110 0 l 750 0 l 750 134 l 273 134 l 273 443 l 682 443 m 429 1168 l 328 1261 l 190 1261 l 190 1248 l 378 1079 l 479 1079 l 668 1249 l 668 1261 l 529 1261 l 429 1168 z "},"Ê":{"ha":833,"x_min":110,"x_max":750,"o":"m 682 443 l 682 574 l 273 574 l 273 852 l 747 852 l 747 987 l 110 987 l 110 0 l 750 0 l 750 134 l 273 134 l 273 443 l 682 443 m 663 1097 l 476 1261 l 381 1261 l 197 1098 l 197 1079 l 326 1079 l 429 1172 l 532 1079 l 663 1079 l 663 1097 z "},"Ë":{"ha":833,"x_min":110,"x_max":750,"o":"m 682 443 l 682 574 l 273 574 l 273 852 l 747 852 l 747 987 l 110 987 l 110 0 l 750 0 l 750 134 l 273 134 l 273 443 l 682 443 m 186 1160 q 209 1104 186 1126 q 271 1081 232 1081 q 332 1104 309 1081 q 355 1160 355 1126 q 332 1217 355 1194 q 271 1240 309 1240 q 209 1217 231 1240 q 186 1160 186 1194 m 497 1160 q 520 1103 497 1126 q 582 1080 543 1080 q 644 1103 621 1080 q 667 1160 667 1126 q 644 1216 667 1192 q 582 1239 621 1239 q 520 1216 543 1239 q 497 1160 497 1192 z "},"Ė":{"ha":833,"x_min":110,"x_max":750,"o":"m 682 443 l 682 574 l 273 574 l 273 852 l 747 852 l 747 987 l 110 987 l 110 0 l 750 0 l 750 134 l 273 134 l 273 443 l 682 443 m 336 1162 q 360 1100 336 1125 q 428 1076 385 1076 q 496 1100 472 1076 q 520 1162 520 1125 q 496 1224 520 1199 q 428 1249 472 1249 q 360 1224 385 1249 q 336 1162 336 1199 z "},"È":{"ha":833,"x_min":110,"x_max":750,"o":"m 682 443 l 682 574 l 273 574 l 273 852 l 747 852 l 747 987 l 110 987 l 110 0 l 750 0 l 750 134 l 273 134 l 273 443 l 682 443 m 496 1050 l 377 1235 l 193 1235 l 368 1050 l 496 1050 z "},"Ē":{"ha":833,"x_min":110,"x_max":750,"o":"m 682 443 l 682 574 l 273 574 l 273 852 l 747 852 l 747 987 l 110 987 l 110 0 l 750 0 l 750 134 l 273 134 l 273 443 l 682 443 m 676 1099 l 676 1204 l 185 1204 l 185 1099 l 676 1099 z "},"Ŋ":{"ha":833,"x_min":108,"x_max":730,"o":"m 730 987 l 567 987 l 567 336 l 273 985 l 271 987 l 108 987 l 108 0 l 271 0 l 271 651 l 567 1 l 567 -41 q 559 -100 567 -75 q 536 -141 552 -125 q 512 -158 526 -152 q 481 -163 498 -163 q 448 -161 466 -163 q 415 -155 429 -159 l 406 -285 q 449 -294 429 -292 q 492 -296 469 -296 q 593 -279 549 -296 q 668 -230 637 -262 q 714 -150 698 -197 q 730 -41 730 -102 l 730 987 z "},"Ę":{"ha":833,"x_min":110,"x_max":750,"o":"m 682 443 l 682 574 l 273 574 l 273 852 l 747 852 l 747 987 l 110 987 l 110 0 l 527 0 q 496 -28 510 -14 q 471 -59 481 -43 q 446 -106 454 -82 q 438 -155 438 -130 q 449 -213 438 -188 q 479 -256 460 -239 q 525 -281 498 -273 q 580 -290 551 -290 q 655 -280 626 -290 q 704 -260 685 -271 l 677 -165 q 651 -175 667 -170 q 615 -180 636 -181 q 578 -167 589 -180 q 567 -132 567 -153 q 574 -92 567 -111 q 596 -56 581 -73 q 629 -26 609 -41 q 677 0 650 -12 l 750 0 l 750 134 l 273 134 l 273 443 l 682 443 z "},"Ð":{"ha":833,"x_min":-33,"x_max":782,"o":"m 104 0 l 353 0 q 530 34 451 0 q 666 127 610 67 q 752 271 722 187 q 782 454 782 354 l 782 532 q 752 716 782 633 q 665 860 722 800 q 528 953 608 920 q 348 987 448 987 l 104 987 l 104 556 l -33 556 l -33 443 l 104 443 l 104 0 m 420 443 l 420 556 l 269 556 l 269 854 l 348 854 q 465 830 415 854 q 549 764 515 806 q 600 662 583 721 q 616 533 616 604 l 616 454 q 600 323 616 382 q 549 221 583 264 q 467 156 516 179 q 353 132 418 132 l 269 132 l 269 443 l 420 443 z "},"Ğ":{"ha":833,"x_min":62,"x_max":763,"o":"m 763 121 l 762 499 l 422 499 l 422 372 l 602 372 l 601 175 q 572 150 590 161 q 532 133 553 140 q 485 123 509 126 q 437 120 460 120 q 365 134 397 121 q 310 170 334 146 q 277 212 291 189 q 253 263 263 236 q 234 341 240 299 q 227 430 227 383 l 227 557 q 232 635 227 597 q 247 707 237 673 q 276 775 258 745 q 319 827 294 806 q 366 856 340 846 q 424 867 393 867 q 498 854 467 867 q 551 819 530 842 q 584 766 572 798 q 602 696 596 734 l 762 696 q 730 823 755 766 q 662 920 705 880 q 559 980 619 959 q 420 1001 498 1001 q 314 985 363 1001 q 224 939 264 968 q 157 871 186 910 q 107 786 128 833 q 74 678 85 736 q 62 556 63 620 l 62 430 q 75 304 63 364 q 111 195 87 245 q 164 109 132 148 q 235 43 195 71 q 325 1 275 16 q 431 -14 374 -14 q 547 -1 493 -14 q 648 34 602 12 q 713 74 684 52 q 763 121 743 97 m 659 1267 l 537 1267 q 532 1231 537 1249 q 515 1201 526 1214 q 484 1180 503 1187 q 440 1172 466 1172 q 395 1180 414 1172 q 365 1200 376 1187 q 348 1231 353 1214 q 342 1267 342 1249 l 220 1267 q 236 1190 220 1225 q 280 1129 252 1154 q 349 1090 309 1104 q 440 1076 389 1076 q 531 1090 490 1076 q 600 1129 571 1104 q 643 1190 628 1154 q 659 1267 659 1225 z "},"Ĝ":{"ha":833,"x_min":62,"x_max":763,"o":"m 763 121 l 762 499 l 422 499 l 422 372 l 602 372 l 601 175 q 572 150 590 161 q 532 133 553 140 q 485 123 509 126 q 437 120 460 120 q 365 134 397 121 q 310 170 334 146 q 277 212 291 189 q 253 263 263 236 q 234 341 240 299 q 227 430 227 383 l 227 557 q 232 635 227 597 q 247 707 237 673 q 276 775 258 745 q 319 827 294 806 q 366 856 340 846 q 424 867 393 867 q 498 854 467 867 q 551 819 530 842 q 584 766 572 798 q 602 696 596 734 l 762 696 q 730 823 755 766 q 662 920 705 880 q 559 980 619 959 q 420 1001 498 1001 q 314 985 363 1001 q 224 939 264 968 q 157 871 186 910 q 107 786 128 833 q 74 678 85 736 q 62 556 63 620 l 62 430 q 75 304 63 364 q 111 195 87 245 q 164 109 132 148 q 235 43 195 71 q 325 1 275 16 q 431 -14 374 -14 q 547 -1 493 -14 q 648 34 602 12 q 713 74 684 52 q 763 121 743 97 m 673 1106 l 487 1270 l 392 1270 l 208 1107 l 208 1088 l 337 1088 l 439 1181 l 543 1088 l 673 1088 l 673 1106 z "},"Ģ":{"ha":833,"x_min":62,"x_max":763,"o":"m 763 121 l 762 499 l 422 499 l 422 372 l 602 372 l 601 175 q 572 150 590 161 q 532 133 553 140 q 485 123 509 126 q 437 120 460 120 q 365 134 397 121 q 310 170 334 146 q 277 212 291 189 q 253 263 263 236 q 234 341 240 299 q 227 430 227 383 l 227 557 q 232 635 227 597 q 247 707 237 673 q 276 775 258 745 q 319 827 294 806 q 366 856 340 846 q 424 867 393 867 q 498 854 467 867 q 551 819 530 842 q 584 766 572 798 q 602 696 596 734 l 762 696 q 730 823 755 766 q 662 920 705 880 q 559 980 619 959 q 420 1001 498 1001 q 314 985 363 1001 q 224 939 264 968 q 157 871 186 910 q 107 786 128 833 q 74 678 85 736 q 62 556 63 620 l 62 430 q 75 304 63 364 q 111 195 87 245 q 164 109 132 148 q 235 43 195 71 q 325 1 275 16 q 431 -14 374 -14 q 547 -1 493 -14 q 648 34 602 12 q 713 74 684 52 q 763 121 743 97 m 509 -94 l 509 -47 l 383 -47 l 383 -96 q 371 -192 383 -148 q 333 -278 358 -235 l 408 -328 q 484 -219 458 -283 q 509 -94 509 -155 z "},"Ħ":{"ha":833,"x_min":16,"x_max":833,"o":"m 718 812 l 718 987 l 559 987 l 559 812 l 227 812 l 227 987 l 68 987 l 68 812 l 16 812 l 16 703 l 68 703 l 68 0 l 227 0 l 227 440 l 559 440 l 559 0 l 718 0 l 718 703 l 833 703 l 833 812 l 718 812 m 227 574 l 227 703 l 559 703 l 559 574 l 227 574 z "},"Ĥ":{"ha":833,"x_min":89,"x_max":739,"o":"m 739 0 l 739 987 l 580 987 l 580 574 l 248 574 l 248 987 l 89 987 l 89 0 l 248 0 l 248 440 l 580 440 l 580 0 l 739 0 m 646 1097 l 459 1261 l 364 1261 l 180 1098 l 180 1079 l 309 1079 l 412 1172 l 515 1079 l 646 1079 l 646 1097 z "},"Í":{"ha":833,"x_min":125,"x_max":707,"o":"m 125 987 l 125 852 l 332 852 l 332 134 l 125 134 l 125 0 l 707 0 l 707 134 l 496 134 l 496 852 l 707 852 l 707 987 l 125 987 m 452 1236 l 327 1051 l 452 1051 l 637 1236 l 452 1236 z "},"Ĭ":{"ha":833,"x_min":125,"x_max":707,"o":"m 125 987 l 125 852 l 332 852 l 332 134 l 125 134 l 125 0 l 707 0 l 707 134 l 496 134 l 496 852 l 707 852 l 707 987 l 125 987 m 617 1262 l 496 1262 q 490 1226 496 1243 q 473 1196 485 1208 q 443 1174 461 1182 q 399 1166 425 1166 q 354 1174 372 1166 q 323 1195 335 1182 q 306 1226 312 1208 q 300 1262 300 1243 l 179 1262 q 195 1184 179 1219 q 239 1124 210 1149 q 308 1085 267 1099 q 399 1071 348 1071 q 489 1085 449 1071 q 559 1124 530 1099 q 602 1184 587 1149 q 617 1262 617 1220 z "},"Î":{"ha":833,"x_min":125,"x_max":707,"o":"m 125 987 l 125 852 l 332 852 l 332 134 l 125 134 l 125 0 l 707 0 l 707 134 l 496 134 l 496 852 l 707 852 l 707 987 l 125 987 m 631 1101 l 445 1264 l 350 1264 l 166 1101 l 166 1082 l 295 1082 l 397 1175 l 500 1082 l 631 1082 l 631 1101 z "},"Ï":{"ha":833,"x_min":125,"x_max":707,"o":"m 125 987 l 125 852 l 332 852 l 332 134 l 125 134 l 125 0 l 707 0 l 707 134 l 496 134 l 496 852 l 707 852 l 707 987 l 125 987 m 155 1164 q 178 1107 155 1130 q 239 1084 201 1084 q 301 1107 278 1084 q 324 1164 324 1130 q 301 1220 324 1197 q 239 1243 278 1243 q 177 1220 200 1243 q 155 1164 155 1197 m 466 1163 q 489 1106 466 1129 q 551 1083 511 1083 q 612 1106 589 1083 q 635 1163 635 1129 q 613 1219 635 1196 q 551 1242 590 1242 q 489 1219 511 1242 q 466 1163 466 1196 z "},"İ":{"ha":833,"x_min":125,"x_max":707,"o":"m 125 987 l 125 852 l 332 852 l 332 134 l 125 134 l 125 0 l 707 0 l 707 134 l 496 134 l 496 852 l 707 852 l 707 987 l 125 987 m 305 1165 q 329 1104 305 1128 q 397 1079 353 1079 q 465 1104 441 1079 q 489 1165 489 1128 q 465 1227 489 1202 q 397 1252 441 1252 q 329 1227 353 1252 q 305 1165 305 1202 z "},"Ì":{"ha":833,"x_min":125,"x_max":707,"o":"m 125 987 l 125 852 l 332 852 l 332 134 l 125 134 l 125 0 l 707 0 l 707 134 l 496 134 l 496 852 l 707 852 l 707 987 l 125 987 m 465 1053 l 346 1238 l 162 1238 l 336 1053 l 465 1053 z "},"Ī":{"ha":833,"x_min":125,"x_max":707,"o":"m 125 987 l 125 852 l 332 852 l 332 134 l 125 134 l 125 0 l 707 0 l 707 134 l 496 134 l 496 852 l 707 852 l 707 987 l 125 987 m 646 1103 l 646 1208 l 155 1208 l 155 1103 l 646 1103 z "},"Į":{"ha":833,"x_min":125,"x_max":707,"o":"m 125 987 l 125 852 l 332 852 l 332 134 l 125 134 l 125 0 l 373 0 q 343 -27 356 -13 q 319 -56 330 -41 q 292 -105 301 -79 q 283 -155 283 -130 q 295 -213 283 -188 q 325 -256 306 -239 q 370 -281 345 -273 q 426 -290 396 -290 q 501 -280 471 -290 q 549 -260 530 -271 l 522 -165 q 497 -175 512 -170 q 461 -180 481 -181 q 424 -167 435 -180 q 412 -132 412 -153 q 420 -92 412 -111 q 442 -55 427 -73 q 475 -26 456 -40 q 523 0 495 -12 l 707 0 l 707 134 l 496 134 l 496 852 l 707 852 l 707 987 l 125 987 z "},"Ĩ":{"ha":833,"x_min":125,"x_max":707,"o":"m 125 987 l 125 852 l 332 852 l 332 134 l 125 134 l 125 0 l 707 0 l 707 134 l 496 134 l 496 852 l 707 852 l 707 987 l 125 987 m 638 1257 l 554 1278 q 549 1250 554 1263 q 536 1229 544 1238 q 515 1213 528 1219 q 489 1208 503 1208 q 440 1217 463 1208 q 396 1239 418 1227 q 350 1259 374 1250 q 299 1269 327 1269 q 241 1255 267 1269 q 196 1218 214 1241 q 166 1166 177 1196 q 156 1107 156 1137 l 241 1088 q 252 1127 241 1111 q 281 1148 263 1143 q 306 1154 293 1154 q 331 1152 318 1154 q 369 1140 351 1149 q 406 1122 387 1131 q 445 1105 424 1112 q 495 1097 467 1097 q 553 1111 527 1097 q 599 1147 580 1124 q 628 1198 617 1168 q 638 1257 638 1227 z "},"Ĵ":{"ha":833,"x_min":72,"x_max":884,"o":"m 566 987 l 566 302 q 554 231 566 264 q 521 173 542 197 q 469 134 499 149 q 400 120 438 120 q 328 132 359 120 q 275 169 296 144 q 247 220 257 190 q 236 288 237 250 l 72 288 q 99 159 75 215 q 167 64 124 102 q 269 6 210 26 q 400 -14 328 -14 q 530 9 470 -14 q 634 75 590 33 q 704 175 679 117 q 730 302 730 233 l 730 987 l 566 987 m 884 1093 l 697 1256 l 602 1256 l 418 1093 l 418 1074 l 547 1074 l 650 1167 l 753 1074 l 884 1074 l 884 1093 z "},"Ķ":{"ha":833,"x_min":100,"x_max":833,"o":"m 371 428 l 638 0 l 833 0 l 479 553 l 817 987 l 617 987 l 357 643 l 264 523 l 264 987 l 100 987 l 100 0 l 264 0 l 264 309 l 371 428 m 490 -91 l 490 -44 l 364 -44 l 364 -93 q 352 -188 364 -144 q 314 -275 339 -232 l 389 -325 q 465 -216 439 -280 q 490 -91 490 -152 z "},"Ĺ":{"ha":833,"x_min":115,"x_max":750,"o":"m 279 134 l 279 987 l 115 987 l 115 0 l 750 0 l 750 134 l 279 134 m 255 1216 l 130 1031 l 254 1031 l 439 1216 l 255 1216 z "},"Ľ":{"ha":833,"x_min":115,"x_max":750,"o":"m 279 134 l 279 987 l 115 987 l 115 0 l 750 0 l 750 134 l 279 134 m 684 878 l 684 987 l 545 987 l 545 877 q 528 763 545 814 q 484 667 512 713 l 562 616 q 611 671 589 640 q 650 737 633 703 q 675 808 666 772 q 684 878 684 844 z "},"Ļ":{"ha":833,"x_min":115,"x_max":750,"o":"m 279 134 l 279 987 l 115 987 l 115 0 l 750 0 l 750 134 l 279 134 m 492 -83 l 492 -37 l 367 -37 l 367 -85 q 354 -181 367 -137 q 317 -267 342 -224 l 391 -317 q 467 -209 442 -273 q 492 -83 492 -144 z "},"Ŀ":{"ha":833,"x_min":115,"x_max":750,"o":"m 279 134 l 279 987 l 115 987 l 115 0 l 750 0 l 750 134 l 279 134 m 416 545 q 440 484 416 509 q 508 459 465 459 q 576 484 552 459 q 600 545 600 509 q 576 607 600 583 q 508 632 552 632 q 440 607 465 632 q 416 545 416 583 z "},"Ł":{"ha":833,"x_min":37,"x_max":763,"o":"m 292 589 l 292 987 l 128 987 l 128 540 l 37 513 l 37 390 l 128 417 l 128 0 l 763 0 l 763 134 l 292 134 l 292 467 l 458 517 l 458 640 l 292 589 z "},"Ń":{"ha":833,"x_min":89,"x_max":739,"o":"m 739 0 l 739 987 l 574 987 l 573 311 l 254 987 l 89 987 l 89 0 l 254 0 l 254 680 l 575 0 l 739 0 m 465 1236 l 339 1051 l 464 1051 l 649 1236 l 465 1236 z "},"Ň":{"ha":833,"x_min":89,"x_max":739,"o":"m 739 0 l 739 987 l 574 987 l 573 311 l 254 987 l 89 987 l 89 0 l 254 0 l 254 680 l 575 0 l 739 0 m 410 1173 l 309 1265 l 171 1265 l 171 1252 l 359 1083 l 460 1083 l 649 1253 l 649 1265 l 510 1265 l 410 1173 z "},"Ņ":{"ha":833,"x_min":89,"x_max":739,"o":"m 739 0 l 739 987 l 574 987 l 573 311 l 254 987 l 89 987 l 89 0 l 254 0 l 254 680 l 575 0 l 739 0 m 477 -86 l 477 -39 l 352 -39 l 352 -88 q 339 -183 352 -140 q 302 -270 327 -227 l 376 -320 q 452 -211 427 -275 q 477 -86 477 -147 z "},"Ñ":{"ha":833,"x_min":89,"x_max":739,"o":"m 739 0 l 739 987 l 574 987 l 573 311 l 254 987 l 89 987 l 89 0 l 254 0 l 254 680 l 575 0 l 739 0 m 650 1257 l 566 1278 q 561 1250 566 1263 q 548 1229 556 1238 q 527 1213 540 1219 q 501 1208 515 1208 q 453 1217 475 1208 q 408 1239 430 1227 q 362 1259 386 1250 q 311 1269 339 1269 q 253 1255 279 1269 q 208 1218 227 1241 q 179 1166 189 1196 q 168 1107 168 1137 l 253 1088 q 264 1127 254 1111 q 293 1148 275 1143 q 318 1154 305 1154 q 343 1152 330 1154 q 381 1140 363 1149 q 418 1122 399 1131 q 457 1105 436 1112 q 507 1097 479 1097 q 566 1111 539 1097 q 611 1147 592 1124 q 640 1198 629 1168 q 650 1257 650 1227 z "},"Ó":{"ha":833,"x_min":62,"x_max":770,"o":"m 770 428 l 770 558 q 760 677 770 620 q 727 785 749 734 q 678 871 707 831 q 610 939 649 910 q 521 985 570 968 q 412 1001 471 1001 q 306 985 354 1001 q 219 940 257 969 q 151 870 180 910 q 102 781 122 829 q 72 675 82 731 q 62 558 62 618 l 62 428 q 71 316 62 370 q 100 213 81 261 q 149 121 119 163 q 218 49 178 79 q 306 3 256 20 q 414 -14 355 -14 q 518 2 471 -14 q 606 45 566 18 q 677 116 646 75 q 730 208 709 158 q 760 313 749 257 q 770 428 770 368 m 606 559 l 606 428 q 602 356 606 391 q 590 288 598 320 q 565 219 581 250 q 525 166 549 189 q 476 135 505 146 q 414 123 448 123 q 350 135 378 123 q 302 168 323 147 q 265 221 280 189 q 241 289 250 252 q 229 357 233 321 q 226 428 226 392 l 226 559 q 230 632 226 596 q 241 701 233 669 q 267 770 250 739 q 307 823 283 801 q 353 852 326 842 q 412 863 379 863 q 474 852 447 863 q 522 822 501 841 q 563 769 546 800 q 589 701 579 739 q 602 633 598 669 q 606 559 606 597 m 477 1251 l 352 1065 l 477 1065 l 662 1251 l 477 1251 z "},"Ŏ":{"ha":833,"x_min":62,"x_max":770,"o":"m 770 428 l 770 558 q 760 677 770 620 q 727 785 749 734 q 678 871 707 831 q 610 939 649 910 q 521 985 570 968 q 412 1001 471 1001 q 306 985 354 1001 q 219 940 257 969 q 151 870 180 910 q 102 781 122 829 q 72 675 82 731 q 62 558 62 618 l 62 428 q 71 316 62 370 q 100 213 81 261 q 149 121 119 163 q 218 49 178 79 q 306 3 256 20 q 414 -14 355 -14 q 518 2 471 -14 q 606 45 566 18 q 677 116 646 75 q 730 208 709 158 q 760 313 749 257 q 770 428 770 368 m 606 559 l 606 428 q 602 356 606 391 q 590 288 598 320 q 565 219 581 250 q 525 166 549 189 q 476 135 505 146 q 414 123 448 123 q 350 135 378 123 q 302 168 323 147 q 265 221 280 189 q 241 289 250 252 q 229 357 233 321 q 226 428 226 392 l 226 559 q 230 632 226 596 q 241 701 233 669 q 267 770 250 739 q 307 823 283 801 q 353 852 326 842 q 412 863 379 863 q 474 852 447 863 q 522 822 501 841 q 563 769 546 800 q 589 701 579 739 q 602 633 598 669 q 606 559 606 597 m 642 1276 l 520 1276 q 515 1240 520 1257 q 498 1210 509 1223 q 467 1188 486 1196 q 423 1181 449 1181 q 378 1188 397 1181 q 348 1209 359 1196 q 331 1240 336 1223 q 325 1276 325 1257 l 203 1276 q 219 1198 203 1234 q 263 1138 235 1163 q 332 1099 292 1113 q 423 1085 372 1085 q 514 1099 473 1085 q 583 1138 554 1113 q 626 1199 611 1163 q 642 1276 642 1234 z "},"Ô":{"ha":833,"x_min":62,"x_max":770,"o":"m 770 428 l 770 558 q 760 677 770 620 q 727 785 749 734 q 678 871 707 831 q 610 939 649 910 q 521 985 570 968 q 412 1001 471 1001 q 306 985 354 1001 q 219 940 257 969 q 151 870 180 910 q 102 781 122 829 q 72 675 82 731 q 62 558 62 618 l 62 428 q 71 316 62 370 q 100 213 81 261 q 149 121 119 163 q 218 49 178 79 q 306 3 256 20 q 414 -14 355 -14 q 518 2 471 -14 q 606 45 566 18 q 677 116 646 75 q 730 208 709 158 q 760 313 749 257 q 770 428 770 368 m 606 559 l 606 428 q 602 356 606 391 q 590 288 598 320 q 565 219 581 250 q 525 166 549 189 q 476 135 505 146 q 414 123 448 123 q 350 135 378 123 q 302 168 323 147 q 265 221 280 189 q 241 289 250 252 q 229 357 233 321 q 226 428 226 392 l 226 559 q 230 632 226 596 q 241 701 233 669 q 267 770 250 739 q 307 823 283 801 q 353 852 326 842 q 412 863 379 863 q 474 852 447 863 q 522 822 501 841 q 563 769 546 800 q 589 701 579 739 q 602 633 598 669 q 606 559 606 597 m 656 1115 l 470 1278 l 375 1278 l 191 1116 l 191 1097 l 320 1097 l 422 1190 l 526 1097 l 656 1097 l 656 1115 z "},"Ö":{"ha":833,"x_min":62,"x_max":770,"o":"m 770 428 l 770 558 q 760 677 770 620 q 727 785 749 734 q 678 871 707 831 q 610 939 649 910 q 521 985 570 968 q 412 1001 471 1001 q 306 985 354 1001 q 219 940 257 969 q 151 870 180 910 q 102 781 122 829 q 72 675 82 731 q 62 558 62 618 l 62 428 q 71 316 62 370 q 100 213 81 261 q 149 121 119 163 q 218 49 178 79 q 306 3 256 20 q 414 -14 355 -14 q 518 2 471 -14 q 606 45 566 18 q 677 116 646 75 q 730 208 709 158 q 760 313 749 257 q 770 428 770 368 m 606 559 l 606 428 q 602 356 606 391 q 590 288 598 320 q 565 219 581 250 q 525 166 549 189 q 476 135 505 146 q 414 123 448 123 q 350 135 378 123 q 302 168 323 147 q 265 221 280 189 q 241 289 250 252 q 229 357 233 321 q 226 428 226 392 l 226 559 q 230 632 226 596 q 241 701 233 669 q 267 770 250 739 q 307 823 283 801 q 353 852 326 842 q 412 863 379 863 q 474 852 447 863 q 522 822 501 841 q 563 769 546 800 q 589 701 579 739 q 602 633 598 669 q 606 559 606 597 m 179 1178 q 202 1121 179 1144 q 264 1099 225 1099 q 326 1121 302 1099 q 349 1178 349 1144 q 326 1234 349 1211 q 264 1257 302 1257 q 202 1234 224 1257 q 179 1178 179 1211 m 490 1177 q 513 1120 490 1143 q 575 1097 536 1097 q 637 1120 614 1097 q 660 1177 660 1143 q 637 1233 660 1210 q 575 1257 614 1257 q 513 1233 536 1257 q 490 1177 490 1210 z "},"Ò":{"ha":833,"x_min":62,"x_max":770,"o":"m 770 428 l 770 558 q 760 677 770 620 q 727 785 749 734 q 678 871 707 831 q 610 939 649 910 q 521 985 570 968 q 412 1001 471 1001 q 306 985 354 1001 q 219 940 257 969 q 151 870 180 910 q 102 781 122 829 q 72 675 82 731 q 62 558 62 618 l 62 428 q 71 316 62 370 q 100 213 81 261 q 149 121 119 163 q 218 49 178 79 q 306 3 256 20 q 414 -14 355 -14 q 518 2 471 -14 q 606 45 566 18 q 677 116 646 75 q 730 208 709 158 q 760 313 749 257 q 770 428 770 368 m 606 559 l 606 428 q 602 356 606 391 q 590 288 598 320 q 565 219 581 250 q 525 166 549 189 q 476 135 505 146 q 414 123 448 123 q 350 135 378 123 q 302 168 323 147 q 265 221 280 189 q 241 289 250 252 q 229 357 233 321 q 226 428 226 392 l 226 559 q 230 632 226 596 q 241 701 233 669 q 267 770 250 739 q 307 823 283 801 q 353 852 326 842 q 412 863 379 863 q 474 852 447 863 q 522 822 501 841 q 563 769 546 800 q 589 701 579 739 q 602 633 598 669 q 606 559 606 597 m 490 1067 l 370 1253 l 186 1253 l 361 1067 l 490 1067 z "},"Ơ":{"ha":833,"x_min":65,"x_max":839,"o":"m 774 428 l 774 558 q 761 685 773 624 q 724 800 749 746 q 771 833 750 812 q 806 880 792 853 q 830 945 822 908 q 839 1027 839 983 l 715 1027 q 711 979 715 1001 q 702 939 708 956 q 687 910 696 922 q 665 890 677 898 q 621 933 645 914 q 570 966 597 952 q 498 992 536 983 q 416 1001 460 1001 q 271 970 334 1001 q 165 885 209 939 q 91 739 116 824 q 65 558 65 653 l 65 428 q 87 259 65 339 q 153 119 110 180 q 263 22 197 58 q 416 -14 329 -14 q 570 21 504 -14 q 682 117 636 56 q 750 258 728 176 q 774 428 773 339 m 610 559 l 610 428 q 598 312 609 369 q 565 214 587 256 q 505 148 542 172 q 416 123 469 123 q 329 148 364 123 q 273 211 294 172 q 239 312 250 254 q 229 428 229 369 l 229 559 q 240 680 229 621 q 278 784 251 740 q 333 841 299 820 q 416 863 367 863 q 501 840 465 863 q 560 780 537 818 q 598 680 586 738 q 610 559 610 623 z "},"Ő":{"ha":833,"x_min":62,"x_max":786,"o":"m 770 428 l 770 558 q 760 677 770 620 q 727 785 749 734 q 678 871 707 831 q 610 939 649 910 q 521 985 570 968 q 412 1001 471 1001 q 306 985 354 1001 q 219 940 257 969 q 151 870 180 910 q 102 781 122 829 q 72 675 82 731 q 62 558 62 618 l 62 428 q 71 316 62 370 q 100 213 81 261 q 149 121 119 163 q 218 49 178 79 q 306 3 256 20 q 414 -14 355 -14 q 518 2 471 -14 q 606 45 566 18 q 677 116 646 75 q 730 208 709 158 q 760 313 749 257 q 770 428 770 368 m 606 559 l 606 428 q 602 356 606 391 q 590 288 598 320 q 565 219 581 250 q 525 166 549 189 q 476 135 505 146 q 414 123 448 123 q 350 135 378 123 q 302 168 323 147 q 265 221 280 189 q 241 289 250 252 q 229 357 233 321 q 226 428 226 392 l 226 559 q 230 632 226 596 q 241 701 233 669 q 267 770 250 739 q 307 823 283 801 q 353 852 326 842 q 412 863 379 863 q 474 852 447 863 q 522 822 501 841 q 563 769 546 800 q 589 701 579 739 q 602 633 598 669 q 606 559 606 597 m 614 1280 l 448 1099 l 579 1099 l 786 1280 l 614 1280 m 378 1280 l 245 1099 l 369 1099 l 540 1280 l 378 1280 z "},"Ō":{"ha":833,"x_min":62,"x_max":770,"o":"m 770 428 l 770 558 q 760 677 770 620 q 727 785 749 734 q 678 871 707 831 q 610 939 649 910 q 521 985 570 968 q 412 1001 471 1001 q 306 985 354 1001 q 219 940 257 969 q 151 870 180 910 q 102 781 122 829 q 72 675 82 731 q 62 558 62 618 l 62 428 q 71 316 62 370 q 100 213 81 261 q 149 121 119 163 q 218 49 178 79 q 306 3 256 20 q 414 -14 355 -14 q 518 2 471 -14 q 606 45 566 18 q 677 116 646 75 q 730 208 709 158 q 760 313 749 257 q 770 428 770 368 m 606 559 l 606 428 q 602 356 606 391 q 590 288 598 320 q 565 219 581 250 q 525 166 549 189 q 476 135 505 146 q 414 123 448 123 q 350 135 378 123 q 302 168 323 147 q 265 221 280 189 q 241 289 250 252 q 229 357 233 321 q 226 428 226 392 l 226 559 q 230 632 226 596 q 241 701 233 669 q 267 770 250 739 q 307 823 283 801 q 353 852 326 842 q 412 863 379 863 q 474 852 447 863 q 522 822 501 841 q 563 769 546 800 q 589 701 579 739 q 602 633 598 669 q 606 559 606 597 m 670 1117 l 670 1222 l 179 1222 l 179 1117 l 670 1117 z "},"Ø":{"ha":833,"x_min":39,"x_max":781,"o":"m 770 428 l 770 558 q 749 722 770 644 q 684 861 727 800 l 781 1029 l 668 1029 l 613 934 q 577 959 596 947 q 537 978 558 970 q 478 995 510 989 q 412 1001 447 1001 q 260 966 326 1001 q 153 873 195 931 q 84 730 107 812 q 61 558 62 648 l 61 428 q 66 342 61 385 q 83 262 72 300 q 109 188 93 223 q 146 122 125 153 l 39 -64 l 151 -64 l 217 50 q 305 3 256 19 q 413 -14 353 -14 q 564 20 498 -14 q 675 112 629 54 q 746 255 722 172 q 770 428 770 337 m 225 428 l 225 559 q 235 674 225 618 q 267 773 245 730 q 324 838 289 812 q 412 863 359 863 q 453 858 434 863 q 488 845 472 853 q 516 827 503 838 q 538 804 528 817 l 243 292 q 237 318 239 304 q 232 344 234 331 q 227 386 229 365 q 225 428 225 407 m 606 559 l 606 428 q 594 307 606 366 q 554 203 583 248 q 496 145 531 166 q 413 123 462 123 q 343 138 373 123 q 291 178 313 153 l 589 696 q 602 629 598 664 q 606 559 606 594 z "},"Ǿ":{"ha":833,"x_min":39,"x_max":781,"o":"m 770 428 l 770 558 q 749 722 770 644 q 684 861 727 800 l 781 1029 l 668 1029 l 613 934 q 577 959 596 947 q 537 978 558 970 q 478 995 510 989 q 412 1001 447 1001 q 260 966 326 1001 q 153 873 195 931 q 84 730 107 812 q 61 558 62 648 l 61 428 q 66 342 61 385 q 83 262 72 300 q 109 188 93 223 q 146 122 125 153 l 39 -64 l 151 -64 l 217 50 q 305 3 256 19 q 413 -14 353 -14 q 564 20 498 -14 q 675 112 629 54 q 746 255 722 172 q 770 428 770 337 m 225 428 l 225 559 q 235 674 225 618 q 267 773 245 730 q 324 838 289 812 q 412 863 359 863 q 453 858 434 863 q 488 845 472 853 q 516 827 503 838 q 538 804 528 817 l 243 292 q 237 318 239 304 q 232 344 234 331 q 227 386 229 365 q 225 428 225 407 m 606 559 l 606 428 q 594 307 606 366 q 554 203 583 248 q 496 145 531 166 q 413 123 462 123 q 343 138 373 123 q 291 178 313 153 l 589 696 q 602 629 598 664 q 606 559 606 594 m 473 1278 l 348 1093 l 473 1093 l 658 1278 l 473 1278 z "},"Õ":{"ha":833,"x_min":62,"x_max":770,"o":"m 770 428 l 770 558 q 760 677 770 620 q 727 785 749 734 q 678 871 707 831 q 610 939 649 910 q 521 985 570 968 q 412 1001 471 1001 q 306 985 354 1001 q 219 940 257 969 q 151 870 180 910 q 102 781 122 829 q 72 675 82 731 q 62 558 62 618 l 62 428 q 71 316 62 370 q 100 213 81 261 q 149 121 119 163 q 218 49 178 79 q 306 3 256 20 q 414 -14 355 -14 q 518 2 471 -14 q 606 45 566 18 q 677 116 646 75 q 730 208 709 158 q 760 313 749 257 q 770 428 770 368 m 606 559 l 606 428 q 602 356 606 391 q 590 288 598 320 q 565 219 581 250 q 525 166 549 189 q 476 135 505 146 q 414 123 448 123 q 350 135 378 123 q 302 168 323 147 q 265 221 280 189 q 241 289 250 252 q 229 357 233 321 q 226 428 226 392 l 226 559 q 230 632 226 596 q 241 701 233 669 q 267 770 250 739 q 307 823 283 801 q 353 852 326 842 q 412 863 379 863 q 474 852 447 863 q 522 822 501 841 q 563 769 546 800 q 589 701 579 739 q 602 633 598 669 q 606 559 606 597 m 663 1272 l 579 1292 q 574 1264 579 1277 q 561 1243 569 1252 q 540 1227 553 1233 q 514 1222 528 1222 q 466 1232 488 1222 q 421 1253 443 1241 q 375 1274 399 1264 q 324 1283 352 1283 q 266 1269 292 1283 q 221 1232 239 1255 q 192 1181 202 1210 q 181 1121 181 1152 l 266 1103 q 277 1141 267 1125 q 306 1162 288 1158 q 331 1168 318 1168 q 356 1166 343 1168 q 394 1154 376 1163 q 431 1136 412 1145 q 470 1119 449 1126 q 520 1112 492 1112 q 578 1125 552 1112 q 624 1161 605 1138 q 653 1212 642 1183 q 663 1272 663 1241 z "},"Ŕ":{"ha":833,"x_min":103,"x_max":796,"o":"m 433 383 l 622 0 l 796 0 l 796 9 l 585 422 q 659 465 626 440 q 716 524 692 490 q 753 598 740 557 q 766 690 766 640 q 741 820 766 764 q 669 912 715 875 q 557 968 622 949 q 416 987 493 987 l 103 987 l 103 0 l 266 0 l 266 383 l 433 383 m 266 516 l 266 854 l 416 854 q 492 843 458 854 q 550 812 526 833 q 589 759 576 791 q 602 684 602 726 q 590 616 602 646 q 556 566 578 586 q 497 529 532 542 q 418 516 462 517 l 266 516 m 464 1228 l 338 1043 l 463 1043 l 648 1228 l 464 1228 z "},"Ř":{"ha":833,"x_min":103,"x_max":796,"o":"m 433 383 l 622 0 l 796 0 l 796 9 l 585 422 q 659 465 626 440 q 716 524 692 490 q 753 598 740 557 q 766 690 766 640 q 741 820 766 764 q 669 912 715 875 q 557 968 622 949 q 416 987 493 987 l 103 987 l 103 0 l 266 0 l 266 383 l 433 383 m 266 516 l 266 854 l 416 854 q 492 843 458 854 q 550 812 526 833 q 589 759 576 791 q 602 684 602 726 q 590 616 602 646 q 556 566 578 586 q 497 529 532 542 q 418 516 462 517 l 266 516 m 409 1164 l 309 1257 l 170 1257 l 170 1244 l 358 1075 l 460 1075 l 648 1244 l 648 1257 l 509 1257 l 409 1164 z "},"Ŗ":{"ha":833,"x_min":103,"x_max":796,"o":"m 433 383 l 622 0 l 796 0 l 796 9 l 585 422 q 659 465 626 440 q 716 524 692 490 q 753 598 740 557 q 766 690 766 640 q 741 820 766 764 q 669 912 715 875 q 557 968 622 949 q 416 987 493 987 l 103 987 l 103 0 l 266 0 l 266 383 l 433 383 m 266 516 l 266 854 l 416 854 q 492 843 458 854 q 550 812 526 833 q 589 759 576 791 q 602 684 602 726 q 590 616 602 646 q 556 566 578 586 q 497 529 532 542 q 418 516 462 517 l 266 516 m 480 -83 l 480 -37 l 355 -37 l 355 -85 q 342 -181 355 -137 q 304 -267 330 -224 l 379 -317 q 455 -209 430 -273 q 480 -83 480 -144 z "},"Ś":{"ha":833,"x_min":68,"x_max":779,"o":"m 616 254 q 602 197 616 222 q 565 155 588 172 q 509 128 541 137 q 439 119 477 119 q 358 130 395 119 q 294 163 321 141 q 251 219 267 185 q 231 298 235 252 l 68 298 q 97 172 69 227 q 174 76 125 117 q 296 10 226 33 q 439 -13 367 -13 q 570 4 508 -13 q 678 56 631 22 q 752 140 724 90 q 779 256 779 190 q 748 381 779 327 q 664 475 716 436 q 572 529 622 507 q 470 566 522 551 q 391 592 429 578 q 324 625 353 606 q 279 670 296 644 q 261 729 262 695 q 274 787 261 761 q 310 831 287 812 q 365 858 333 848 q 433 868 396 868 q 509 856 476 868 q 565 821 542 843 q 600 768 587 799 q 616 700 612 737 l 777 700 q 750 822 777 767 q 677 918 724 878 q 569 979 631 957 q 435 1001 507 1001 q 306 982 368 1001 q 199 928 245 964 q 125 842 153 892 q 98 728 98 791 q 122 624 98 670 q 186 541 145 577 q 287 476 228 505 q 415 427 345 447 q 497 398 460 414 q 562 363 534 382 q 602 315 587 342 q 616 254 616 289 m 488 1251 l 362 1065 l 487 1065 l 672 1251 l 488 1251 z "},"Š":{"ha":833,"x_min":68,"x_max":779,"o":"m 616 254 q 602 197 616 222 q 565 155 588 172 q 509 128 541 137 q 439 119 477 119 q 358 130 395 119 q 294 163 321 141 q 251 219 267 185 q 231 298 235 252 l 68 298 q 97 172 69 227 q 174 76 125 117 q 296 10 226 33 q 439 -13 367 -13 q 570 4 508 -13 q 678 56 631 22 q 752 140 724 90 q 779 256 779 190 q 748 381 779 327 q 664 475 716 436 q 572 529 622 507 q 470 566 522 551 q 391 592 429 578 q 324 625 353 606 q 279 670 296 644 q 261 729 262 695 q 274 787 261 761 q 310 831 287 812 q 365 858 333 848 q 433 868 396 868 q 509 856 476 868 q 565 821 542 843 q 600 768 587 799 q 616 700 612 737 l 777 700 q 750 822 777 767 q 677 918 724 878 q 569 979 631 957 q 435 1001 507 1001 q 306 982 368 1001 q 199 928 245 964 q 125 842 153 892 q 98 728 98 791 q 122 624 98 670 q 186 541 145 577 q 287 476 228 505 q 415 427 345 447 q 497 398 460 414 q 562 363 534 382 q 602 315 587 342 q 616 254 616 289 m 432 1187 l 332 1280 l 193 1280 l 193 1266 l 381 1097 l 483 1097 l 671 1267 l 671 1280 l 532 1280 l 432 1187 z "},"Ş":{"ha":833,"x_min":68,"x_max":779,"o":"m 616 254 q 602 197 616 222 q 565 155 588 172 q 509 128 541 137 q 439 119 477 119 q 358 130 395 119 q 294 163 321 141 q 251 219 267 185 q 231 298 235 252 l 68 298 q 97 172 69 227 q 174 76 125 117 q 296 10 226 33 q 439 -13 367 -13 q 570 4 508 -13 q 678 56 631 22 q 752 140 724 90 q 779 256 779 190 q 748 381 779 327 q 664 475 716 436 q 572 529 622 507 q 470 566 522 551 q 391 592 429 578 q 324 625 353 606 q 279 670 296 644 q 261 729 262 695 q 274 787 261 761 q 310 831 287 812 q 365 858 333 848 q 433 868 396 868 q 509 856 476 868 q 565 821 542 843 q 600 768 587 799 q 616 700 612 737 l 777 700 q 750 822 777 767 q 677 918 724 878 q 569 979 631 957 q 435 1001 507 1001 q 306 982 368 1001 q 199 928 245 964 q 125 842 153 892 q 98 728 98 791 q 122 624 98 670 q 186 541 145 577 q 287 476 228 505 q 415 427 345 447 q 497 398 460 414 q 562 363 534 382 q 602 315 587 342 q 616 254 616 289 m 503 -4 l 383 -4 l 362 -98 q 408 -103 389 -100 q 441 -113 428 -106 q 459 -131 453 -120 q 465 -156 465 -141 q 457 -184 465 -173 q 437 -203 450 -196 q 408 -214 425 -210 q 371 -217 391 -217 l 376 -310 q 466 -300 427 -310 q 533 -273 505 -290 q 581 -224 564 -254 q 597 -158 597 -195 q 589 -108 597 -129 q 566 -74 580 -87 q 532 -52 551 -60 q 494 -41 514 -44 l 503 -4 z "},"Ŝ":{"ha":833,"x_min":68,"x_max":779,"o":"m 616 254 q 602 197 616 222 q 565 155 588 172 q 509 128 541 137 q 439 119 477 119 q 358 130 395 119 q 294 163 321 141 q 251 219 267 185 q 231 298 235 252 l 68 298 q 97 172 69 227 q 174 76 125 117 q 296 10 226 33 q 439 -13 367 -13 q 570 4 508 -13 q 678 56 631 22 q 752 140 724 90 q 779 256 779 190 q 748 381 779 327 q 664 475 716 436 q 572 529 622 507 q 470 566 522 551 q 391 592 429 578 q 324 625 353 606 q 279 670 296 644 q 261 729 262 695 q 274 787 261 761 q 310 831 287 812 q 365 858 333 848 q 433 868 396 868 q 509 856 476 868 q 565 821 542 843 q 600 768 587 799 q 616 700 612 737 l 777 700 q 750 822 777 767 q 677 918 724 878 q 569 979 631 957 q 435 1001 507 1001 q 306 982 368 1001 q 199 928 245 964 q 125 842 153 892 q 98 728 98 791 q 122 624 98 670 q 186 541 145 577 q 287 476 228 505 q 415 427 345 447 q 497 398 460 414 q 562 363 534 382 q 602 315 587 342 q 616 254 616 289 m 667 1115 l 480 1278 l 385 1278 l 201 1116 l 201 1097 l 330 1097 l 433 1190 l 536 1097 l 667 1097 l 667 1115 z "},"Ŧ":{"ha":833,"x_min":33,"x_max":802,"o":"m 654 532 l 654 646 l 497 646 l 497 852 l 802 852 l 802 987 l 33 987 l 33 852 l 335 852 l 335 646 l 181 646 l 181 532 l 335 532 l 335 0 l 497 0 l 497 532 l 654 532 z "},"Ť":{"ha":833,"x_min":33,"x_max":802,"o":"m 802 852 l 802 987 l 33 987 l 33 852 l 335 852 l 335 0 l 497 0 l 497 852 l 802 852 m 420 1168 l 319 1261 l 181 1261 l 181 1247 l 369 1078 l 471 1078 l 659 1248 l 659 1261 l 520 1261 l 420 1168 z "},"Ú":{"ha":833,"x_min":89,"x_max":744,"o":"m 743 987 l 583 987 l 581 327 q 569 242 580 281 q 537 176 558 204 q 485 135 516 149 q 414 120 454 120 q 346 135 375 120 q 296 175 316 149 q 264 241 275 202 q 252 327 253 280 l 251 987 l 90 987 l 89 327 q 113 187 90 250 q 179 79 136 124 q 281 11 221 35 q 414 -14 340 -14 q 550 11 490 -14 q 654 80 611 35 q 721 188 697 125 q 744 327 744 250 l 743 987 m 488 1232 l 362 1046 l 487 1046 l 672 1232 l 488 1232 z "},"Ŭ":{"ha":833,"x_min":89,"x_max":744,"o":"m 743 987 l 583 987 l 581 327 q 569 242 580 281 q 537 176 558 204 q 485 135 516 149 q 414 120 454 120 q 346 135 375 120 q 296 175 316 149 q 264 241 275 202 q 252 327 253 280 l 251 987 l 90 987 l 89 327 q 113 187 90 250 q 179 79 136 124 q 281 11 221 35 q 414 -14 340 -14 q 550 11 490 -14 q 654 80 611 35 q 721 188 697 125 q 744 327 744 250 l 743 987 m 652 1257 l 531 1257 q 526 1221 531 1238 q 509 1191 520 1204 q 478 1170 496 1177 q 434 1162 460 1162 q 389 1170 408 1162 q 359 1190 370 1177 q 341 1221 347 1204 q 336 1257 336 1238 l 214 1257 q 230 1179 214 1215 q 274 1119 245 1144 q 343 1080 302 1094 q 434 1066 383 1066 q 525 1080 484 1066 q 594 1119 565 1094 q 637 1180 622 1144 q 652 1257 652 1215 z "},"Û":{"ha":833,"x_min":89,"x_max":744,"o":"m 743 987 l 583 987 l 581 327 q 569 242 580 281 q 537 176 558 204 q 485 135 516 149 q 414 120 454 120 q 346 135 375 120 q 296 175 316 149 q 264 241 275 202 q 252 327 253 280 l 251 987 l 90 987 l 89 327 q 113 187 90 250 q 179 79 136 124 q 281 11 221 35 q 414 -14 340 -14 q 550 11 490 -14 q 654 80 611 35 q 721 188 697 125 q 744 327 744 250 l 743 987 m 667 1096 l 480 1259 l 385 1259 l 201 1097 l 201 1078 l 330 1078 l 433 1171 l 536 1078 l 667 1078 l 667 1096 z "},"Ü":{"ha":833,"x_min":89,"x_max":744,"o":"m 743 987 l 583 987 l 581 327 q 569 242 580 281 q 537 176 558 204 q 485 135 516 149 q 414 120 454 120 q 346 135 375 120 q 296 175 316 149 q 264 241 275 202 q 252 327 253 280 l 251 987 l 90 987 l 89 327 q 113 187 90 250 q 179 79 136 124 q 281 11 221 35 q 414 -14 340 -14 q 550 11 490 -14 q 654 80 611 35 q 721 188 697 125 q 744 327 744 250 l 743 987 m 190 1159 q 213 1102 190 1125 q 275 1080 236 1080 q 336 1102 313 1080 q 359 1159 359 1125 q 336 1215 359 1192 q 275 1238 313 1238 q 213 1215 235 1238 q 190 1159 190 1192 m 501 1158 q 524 1101 501 1124 q 586 1078 547 1078 q 648 1101 625 1078 q 671 1158 671 1124 q 648 1214 671 1191 q 586 1238 625 1238 q 524 1214 547 1238 q 501 1158 501 1191 z "},"Ù":{"ha":833,"x_min":89,"x_max":744,"o":"m 743 987 l 583 987 l 581 327 q 569 242 580 281 q 537 176 558 204 q 485 135 516 149 q 414 120 454 120 q 346 135 375 120 q 296 175 316 149 q 264 241 275 202 q 252 327 253 280 l 251 987 l 90 987 l 89 327 q 113 187 90 250 q 179 79 136 124 q 281 11 221 35 q 414 -14 340 -14 q 550 11 490 -14 q 654 80 611 35 q 721 188 697 125 q 744 327 744 250 l 743 987 m 500 1048 l 381 1234 l 197 1234 l 372 1048 l 500 1048 z "},"Ư":{"ha":833,"x_min":92,"x_max":977,"o":"m 746 987 l 585 987 l 584 327 q 572 241 583 280 q 539 176 561 202 q 487 135 517 149 q 417 120 456 120 q 346 136 376 120 q 294 182 315 153 q 266 246 275 209 q 255 327 256 283 l 254 987 l 93 987 l 92 327 q 116 187 92 250 q 182 79 139 124 q 284 11 224 35 q 417 -14 343 -14 q 553 11 492 -14 q 657 80 614 35 q 723 188 700 125 q 746 327 746 250 l 746 758 q 850 778 806 760 q 922 827 894 795 q 964 910 950 861 q 977 1024 977 959 l 851 1024 q 847 955 851 985 q 832 905 844 924 q 800 872 821 884 q 746 858 779 861 l 746 987 z "},"Ű":{"ha":833,"x_min":89,"x_max":797,"o":"m 743 987 l 583 987 l 581 327 q 569 242 580 281 q 537 176 558 204 q 485 135 516 149 q 414 120 454 120 q 346 135 375 120 q 296 175 316 149 q 264 241 275 202 q 252 327 253 280 l 251 987 l 90 987 l 89 327 q 113 187 90 250 q 179 79 136 124 q 281 11 221 35 q 414 -14 340 -14 q 550 11 490 -14 q 654 80 611 35 q 721 188 697 125 q 744 327 744 250 l 743 987 m 625 1261 l 458 1080 l 590 1080 l 797 1261 l 625 1261 m 389 1261 l 256 1080 l 380 1080 l 551 1261 l 389 1261 z "},"Ū":{"ha":833,"x_min":89,"x_max":744,"o":"m 743 987 l 583 987 l 581 327 q 569 242 580 281 q 537 176 558 204 q 485 135 516 149 q 414 120 454 120 q 346 135 375 120 q 296 175 316 149 q 264 241 275 202 q 252 327 253 280 l 251 987 l 90 987 l 89 327 q 113 187 90 250 q 179 79 136 124 q 281 11 221 35 q 414 -14 340 -14 q 550 11 490 -14 q 654 80 611 35 q 721 188 697 125 q 744 327 744 250 l 743 987 m 681 1099 l 681 1204 l 190 1204 l 190 1099 l 681 1099 z "},"Ų":{"ha":833,"x_min":89,"x_max":744,"o":"m 743 987 l 583 987 l 581 327 q 570 243 581 281 q 538 178 559 205 q 486 135 517 151 q 414 120 454 120 q 344 135 374 120 q 294 178 314 151 q 263 243 274 205 q 252 327 252 281 l 251 987 l 90 987 l 89 327 q 112 190 90 252 q 176 83 135 127 q 272 15 216 40 q 397 -13 328 -10 q 399 -13 397 -13 q 402 -13 401 -13 q 389 -34 395 -23 q 378 -54 382 -44 q 368 -85 372 -69 q 364 -115 364 -100 q 375 -174 364 -149 q 406 -216 387 -199 q 451 -242 425 -234 q 507 -251 477 -251 q 582 -241 552 -251 q 630 -221 611 -232 l 603 -126 q 577 -136 593 -131 q 541 -142 562 -142 q 504 -128 515 -142 q 493 -94 493 -115 q 496 -65 493 -79 q 507 -38 500 -51 q 528 -11 515 -24 q 557 14 541 2 q 632 59 599 31 q 690 124 666 87 q 730 216 715 165 q 744 327 744 267 l 743 987 z "},"Ů":{"ha":833,"x_min":89,"x_max":744,"o":"m 743 987 l 583 987 l 581 327 q 569 242 580 281 q 537 176 558 204 q 485 135 516 149 q 414 120 454 120 q 346 135 375 120 q 296 175 316 149 q 264 241 275 202 q 252 327 253 280 l 251 987 l 90 987 l 89 327 q 113 187 90 250 q 179 79 136 124 q 281 11 221 35 q 414 -14 340 -14 q 550 11 490 -14 q 654 80 611 35 q 721 188 697 125 q 744 327 744 250 l 743 987 m 291 1170 q 302 1117 291 1141 q 333 1076 313 1093 q 377 1048 351 1058 q 433 1039 404 1039 q 488 1048 463 1039 q 532 1076 513 1058 q 562 1117 551 1093 q 572 1170 572 1141 q 562 1223 572 1198 q 532 1265 551 1248 q 488 1293 513 1283 q 433 1303 463 1303 q 378 1293 404 1303 q 333 1265 352 1283 q 302 1223 313 1248 q 291 1170 291 1198 m 364 1170 q 370 1198 364 1185 q 384 1221 375 1211 q 406 1235 393 1230 q 433 1240 419 1240 q 460 1235 448 1240 q 481 1221 472 1230 q 495 1199 490 1212 q 500 1170 500 1185 q 495 1142 500 1154 q 480 1120 490 1129 q 459 1106 471 1111 q 433 1101 447 1101 q 406 1106 418 1101 q 385 1120 393 1112 q 370 1142 375 1130 q 364 1170 364 1155 z "},"Ũ":{"ha":833,"x_min":89,"x_max":744,"o":"m 743 987 l 583 987 l 581 327 q 569 242 580 281 q 537 176 558 204 q 485 135 516 149 q 414 120 454 120 q 346 135 375 120 q 296 175 316 149 q 264 241 275 202 q 252 327 253 280 l 251 987 l 90 987 l 89 327 q 113 187 90 250 q 179 79 136 124 q 281 11 221 35 q 414 -14 340 -14 q 550 11 490 -14 q 654 80 611 35 q 721 188 697 125 q 744 327 744 250 l 743 987 m 673 1253 l 589 1273 q 584 1245 589 1258 q 571 1224 579 1233 q 550 1208 563 1214 q 524 1203 538 1203 q 476 1213 498 1203 q 431 1234 453 1222 q 386 1255 409 1245 q 334 1264 362 1264 q 276 1250 302 1264 q 231 1213 250 1236 q 202 1162 212 1191 q 191 1102 191 1133 l 276 1084 q 288 1122 277 1106 q 316 1143 298 1139 q 341 1149 328 1149 q 366 1147 353 1149 q 404 1135 387 1144 q 441 1117 422 1126 q 480 1100 459 1107 q 530 1093 502 1093 q 589 1106 562 1093 q 634 1142 615 1119 q 663 1193 652 1164 q 673 1253 673 1222 z "},"Ẃ":{"ha":833,"x_min":31,"x_max":812,"o":"m 160 0 l 314 0 l 413 604 l 420 651 l 427 604 l 528 0 l 682 0 l 812 987 l 660 987 l 591 381 l 587 340 l 580 380 l 481 987 l 357 987 l 262 383 l 255 342 l 250 381 l 182 987 l 31 987 l 160 0 m 471 1236 l 346 1051 l 471 1051 l 656 1236 l 471 1236 z "},"Ŵ":{"ha":833,"x_min":31,"x_max":812,"o":"m 160 0 l 314 0 l 413 604 l 420 651 l 427 604 l 528 0 l 682 0 l 812 987 l 660 987 l 591 381 l 587 340 l 580 380 l 481 987 l 357 987 l 262 383 l 255 342 l 250 381 l 182 987 l 31 987 l 160 0 m 650 1101 l 464 1264 l 369 1264 l 185 1101 l 185 1082 l 314 1082 l 416 1175 l 519 1082 l 650 1082 l 650 1101 z "},"Ẅ":{"ha":833,"x_min":31,"x_max":812,"o":"m 160 0 l 314 0 l 413 604 l 420 651 l 427 604 l 528 0 l 682 0 l 812 987 l 660 987 l 591 381 l 587 340 l 580 380 l 481 987 l 357 987 l 262 383 l 255 342 l 250 381 l 182 987 l 31 987 l 160 0 m 173 1164 q 196 1107 173 1130 q 258 1084 219 1084 q 319 1107 296 1084 q 342 1164 342 1130 q 319 1220 342 1197 q 258 1243 296 1243 q 196 1220 218 1243 q 173 1164 173 1197 m 484 1163 q 507 1106 484 1129 q 569 1083 530 1083 q 631 1106 608 1083 q 654 1163 654 1129 q 631 1219 654 1196 q 569 1242 608 1242 q 507 1219 530 1242 q 484 1163 484 1196 z "},"Ẁ":{"ha":833,"x_min":31,"x_max":812,"o":"m 160 0 l 314 0 l 413 604 l 420 651 l 427 604 l 528 0 l 682 0 l 812 987 l 660 987 l 591 381 l 587 340 l 580 380 l 481 987 l 357 987 l 262 383 l 255 342 l 250 381 l 182 987 l 31 987 l 160 0 m 484 1053 l 364 1238 l 180 1238 l 355 1053 l 484 1053 z "},"Ý":{"ha":833,"x_min":31,"x_max":808,"o":"m 419 515 l 212 987 l 31 987 l 337 357 l 338 0 l 497 0 l 498 353 l 808 987 l 626 987 l 419 515 m 475 1236 l 350 1051 l 475 1051 l 660 1236 l 475 1236 z "},"Ŷ":{"ha":833,"x_min":31,"x_max":808,"o":"m 419 515 l 212 987 l 31 987 l 337 357 l 338 0 l 497 0 l 498 353 l 808 987 l 626 987 l 419 515 m 654 1101 l 468 1264 l 373 1264 l 189 1101 l 189 1082 l 318 1082 l 420 1175 l 524 1082 l 654 1082 l 654 1101 z "},"Ÿ":{"ha":833,"x_min":31,"x_max":808,"o":"m 419 515 l 212 987 l 31 987 l 337 357 l 338 0 l 497 0 l 498 353 l 808 987 l 626 987 l 419 515 m 177 1164 q 200 1107 177 1130 q 262 1084 223 1084 q 323 1107 300 1084 q 347 1164 347 1130 q 323 1220 347 1197 q 262 1243 300 1243 q 200 1220 222 1243 q 177 1164 177 1197 m 488 1163 q 511 1106 488 1129 q 573 1083 534 1083 q 635 1106 612 1083 q 658 1163 658 1129 q 635 1219 658 1196 q 573 1242 612 1242 q 511 1219 534 1242 q 488 1163 488 1196 z "},"Ỳ":{"ha":833,"x_min":31,"x_max":808,"o":"m 419 515 l 212 987 l 31 987 l 337 357 l 338 0 l 497 0 l 498 353 l 808 987 l 626 987 l 419 515 m 488 1053 l 368 1238 l 184 1238 l 359 1053 l 488 1053 z "},"Ź":{"ha":833,"x_min":67,"x_max":761,"o":"m 262 134 l 747 882 l 745 987 l 72 987 l 72 852 l 551 852 l 67 109 l 68 0 l 761 0 l 761 134 l 262 134 m 488 1232 l 363 1046 l 488 1046 l 673 1232 l 488 1232 z "},"Ž":{"ha":833,"x_min":67,"x_max":761,"o":"m 262 134 l 747 882 l 745 987 l 72 987 l 72 852 l 551 852 l 67 109 l 68 0 l 761 0 l 761 134 l 262 134 m 433 1168 l 333 1261 l 195 1261 l 195 1247 l 382 1078 l 484 1078 l 673 1248 l 673 1261 l 534 1261 l 433 1168 z "},"Ż":{"ha":833,"x_min":67,"x_max":761,"o":"m 262 134 l 747 882 l 745 987 l 72 987 l 72 852 l 551 852 l 67 109 l 68 0 l 761 0 l 761 134 l 262 134 m 340 1161 q 365 1100 340 1124 q 432 1075 389 1075 q 500 1100 476 1075 q 524 1161 524 1124 q 500 1223 524 1198 q 432 1248 476 1248 q 365 1223 389 1248 q 340 1161 340 1198 z "},"á":{"ha":833,"x_min":90,"x_max":739,"o":"m 574 0 l 739 0 l 739 12 q 719 80 726 40 q 711 169 711 119 l 711 495 q 688 605 711 557 q 625 684 665 653 q 528 731 584 715 q 408 747 472 747 q 280 729 336 747 q 186 678 224 710 q 126 606 146 647 q 105 522 106 566 l 268 522 q 276 561 268 543 q 300 593 283 580 q 341 615 316 607 q 399 623 366 623 q 464 614 435 623 q 511 588 492 605 q 539 548 530 571 q 549 496 549 525 l 549 447 l 431 447 q 289 432 352 447 q 184 389 227 417 q 114 312 138 358 q 90 205 90 265 q 108 118 90 158 q 161 49 127 77 q 241 3 194 20 q 345 -14 288 -14 q 411 -7 380 -14 q 468 12 441 0 q 516 40 494 24 q 554 73 537 56 q 562 33 557 52 q 574 0 566 14 m 376 117 q 322 124 345 117 q 283 146 299 132 q 260 179 268 159 q 252 220 252 198 q 261 269 252 248 q 292 307 271 291 q 353 335 315 325 q 445 345 392 345 l 549 345 l 549 209 q 524 175 541 191 q 486 146 508 159 q 436 125 463 133 q 376 117 408 117 m 467 1018 l 342 833 l 467 833 l 652 1018 l 467 1018 z "},"ă":{"ha":833,"x_min":90,"x_max":739,"o":"m 574 0 l 739 0 l 739 12 q 719 80 726 40 q 711 169 711 119 l 711 495 q 688 605 711 557 q 625 684 665 653 q 528 731 584 715 q 408 747 472 747 q 280 729 336 747 q 186 678 224 710 q 126 606 146 647 q 105 522 106 566 l 268 522 q 276 561 268 543 q 300 593 283 580 q 341 615 316 607 q 399 623 366 623 q 464 614 435 623 q 511 588 492 605 q 539 548 530 571 q 549 496 549 525 l 549 447 l 431 447 q 289 432 352 447 q 184 389 227 417 q 114 312 138 358 q 90 205 90 265 q 108 118 90 158 q 161 49 127 77 q 241 3 194 20 q 345 -14 288 -14 q 411 -7 380 -14 q 468 12 441 0 q 516 40 494 24 q 554 73 537 56 q 562 33 557 52 q 574 0 566 14 m 376 117 q 322 124 345 117 q 283 146 299 132 q 260 179 268 159 q 252 220 252 198 q 261 269 252 248 q 292 307 271 291 q 353 335 315 325 q 445 345 392 345 l 549 345 l 549 209 q 524 175 541 191 q 486 146 508 159 q 436 125 463 133 q 376 117 408 117 m 632 1044 l 511 1044 q 505 1007 511 1025 q 488 977 500 990 q 458 956 476 964 q 414 948 439 948 q 369 956 387 948 q 338 977 350 964 q 321 1007 327 990 q 315 1044 315 1025 l 194 1044 q 210 966 194 1001 q 254 905 225 930 q 322 866 282 880 q 414 852 363 852 q 504 866 464 852 q 574 905 545 880 q 617 966 602 930 q 632 1044 632 1002 z "},"â":{"ha":833,"x_min":90,"x_max":739,"o":"m 574 0 l 739 0 l 739 12 q 719 80 726 40 q 711 169 711 119 l 711 495 q 688 605 711 557 q 625 684 665 653 q 528 731 584 715 q 408 747 472 747 q 280 729 336 747 q 186 678 224 710 q 126 606 146 647 q 105 522 106 566 l 268 522 q 276 561 268 543 q 300 593 283 580 q 341 615 316 607 q 399 623 366 623 q 464 614 435 623 q 511 588 492 605 q 539 548 530 571 q 549 496 549 525 l 549 447 l 431 447 q 289 432 352 447 q 184 389 227 417 q 114 312 138 358 q 90 205 90 265 q 108 118 90 158 q 161 49 127 77 q 241 3 194 20 q 345 -14 288 -14 q 411 -7 380 -14 q 468 12 441 0 q 516 40 494 24 q 554 73 537 56 q 562 33 557 52 q 574 0 566 14 m 376 117 q 322 124 345 117 q 283 146 299 132 q 260 179 268 159 q 252 220 252 198 q 261 269 252 248 q 292 307 271 291 q 353 335 315 325 q 445 345 392 345 l 549 345 l 549 209 q 524 175 541 191 q 486 146 508 159 q 436 125 463 133 q 376 117 408 117 m 646 882 l 460 1046 l 365 1046 l 181 883 l 181 864 l 310 864 l 412 957 l 515 864 l 646 864 l 646 882 z "},"ä":{"ha":833,"x_min":90,"x_max":739,"o":"m 574 0 l 739 0 l 739 12 q 719 80 726 40 q 711 169 711 119 l 711 495 q 688 605 711 557 q 625 684 665 653 q 528 731 584 715 q 408 747 472 747 q 280 729 336 747 q 186 678 224 710 q 126 606 146 647 q 105 522 106 566 l 268 522 q 276 561 268 543 q 300 593 283 580 q 341 615 316 607 q 399 623 366 623 q 464 614 435 623 q 511 588 492 605 q 539 548 530 571 q 549 496 549 525 l 549 447 l 431 447 q 289 432 352 447 q 184 389 227 417 q 114 312 138 358 q 90 205 90 265 q 108 118 90 158 q 161 49 127 77 q 241 3 194 20 q 345 -14 288 -14 q 411 -7 380 -14 q 468 12 441 0 q 516 40 494 24 q 554 73 537 56 q 562 33 557 52 q 574 0 566 14 m 376 117 q 322 124 345 117 q 283 146 299 132 q 260 179 268 159 q 252 220 252 198 q 261 269 252 248 q 292 307 271 291 q 353 335 315 325 q 445 345 392 345 l 549 345 l 549 209 q 524 175 541 191 q 486 146 508 159 q 436 125 463 133 q 376 117 408 117 m 170 945 q 193 889 170 911 q 254 866 216 866 q 316 889 293 866 q 339 945 339 911 q 316 1002 339 979 q 254 1025 293 1025 q 192 1002 215 1025 q 170 945 170 979 m 481 945 q 504 888 481 911 q 566 865 526 865 q 627 888 604 865 q 650 945 650 911 q 628 1001 650 977 q 566 1024 605 1024 q 504 1001 526 1024 q 481 945 481 977 z "},"à":{"ha":833,"x_min":90,"x_max":739,"o":"m 574 0 l 739 0 l 739 12 q 719 80 726 40 q 711 169 711 119 l 711 495 q 688 605 711 557 q 625 684 665 653 q 528 731 584 715 q 408 747 472 747 q 280 729 336 747 q 186 678 224 710 q 126 606 146 647 q 105 522 106 566 l 268 522 q 276 561 268 543 q 300 593 283 580 q 341 615 316 607 q 399 623 366 623 q 464 614 435 623 q 511 588 492 605 q 539 548 530 571 q 549 496 549 525 l 549 447 l 431 447 q 289 432 352 447 q 184 389 227 417 q 114 312 138 358 q 90 205 90 265 q 108 118 90 158 q 161 49 127 77 q 241 3 194 20 q 345 -14 288 -14 q 411 -7 380 -14 q 468 12 441 0 q 516 40 494 24 q 554 73 537 56 q 562 33 557 52 q 574 0 566 14 m 376 117 q 322 124 345 117 q 283 146 299 132 q 260 179 268 159 q 252 220 252 198 q 261 269 252 248 q 292 307 271 291 q 353 335 315 325 q 445 345 392 345 l 549 345 l 549 209 q 524 175 541 191 q 486 146 508 159 q 436 125 463 133 q 376 117 408 117 m 480 835 l 361 1020 l 177 1020 l 351 835 l 480 835 z "},"ā":{"ha":833,"x_min":90,"x_max":739,"o":"m 574 0 l 739 0 l 739 12 q 719 80 726 40 q 711 169 711 119 l 711 495 q 688 605 711 557 q 625 684 665 653 q 528 731 584 715 q 408 747 472 747 q 280 729 336 747 q 186 678 224 710 q 126 606 146 647 q 105 522 106 566 l 268 522 q 276 561 268 543 q 300 593 283 580 q 341 615 316 607 q 399 623 366 623 q 464 614 435 623 q 511 588 492 605 q 539 548 530 571 q 549 496 549 525 l 549 447 l 431 447 q 289 432 352 447 q 184 389 227 417 q 114 312 138 358 q 90 205 90 265 q 108 118 90 158 q 161 49 127 77 q 241 3 194 20 q 345 -14 288 -14 q 411 -7 380 -14 q 468 12 441 0 q 516 40 494 24 q 554 73 537 56 q 562 33 557 52 q 574 0 566 14 m 376 117 q 322 124 345 117 q 283 146 299 132 q 260 179 268 159 q 252 220 252 198 q 261 269 252 248 q 292 307 271 291 q 353 335 315 325 q 445 345 392 345 l 549 345 l 549 209 q 524 175 541 191 q 486 146 508 159 q 436 125 463 133 q 376 117 408 117 m 661 884 l 661 989 l 170 989 l 170 884 l 661 884 z "},"ą":{"ha":833,"x_min":90,"x_max":739,"o":"m 570 8 q 532 -23 549 -7 q 503 -57 515 -39 q 478 -105 487 -80 q 469 -155 469 -130 q 480 -213 469 -188 q 511 -256 492 -239 q 556 -281 530 -273 q 612 -290 582 -290 q 687 -280 657 -290 q 735 -260 716 -271 l 708 -165 q 683 -175 698 -170 q 647 -180 667 -181 q 609 -167 620 -180 q 598 -132 598 -153 q 604 -96 598 -113 q 622 -62 610 -78 q 657 -29 635 -45 q 709 0 678 -14 l 739 0 l 739 12 q 719 80 726 40 q 711 169 711 119 l 711 495 q 688 605 711 557 q 625 684 665 653 q 528 731 584 715 q 408 747 472 747 q 280 729 336 747 q 186 678 224 710 q 126 606 146 647 q 105 522 106 566 l 268 522 q 277 564 268 545 q 304 597 286 583 q 344 616 320 609 q 399 623 368 623 q 465 613 436 623 q 514 585 494 603 q 540 547 531 569 q 549 496 549 524 l 549 447 l 431 447 q 293 433 355 447 q 189 392 232 419 q 115 314 140 361 q 90 205 90 267 q 108 118 90 158 q 161 49 127 77 q 241 3 194 20 q 345 -14 288 -14 q 411 -7 380 -14 q 468 12 441 0 q 516 40 494 24 q 554 73 537 56 q 561 38 557 55 q 570 8 564 22 m 376 117 q 319 125 343 117 q 279 149 295 134 q 259 181 266 162 q 252 220 252 199 q 261 269 252 248 q 291 306 271 290 q 353 335 314 325 q 445 345 391 345 l 549 345 l 549 209 q 524 175 541 191 q 486 146 508 159 q 436 125 463 133 q 376 117 408 117 z "},"å":{"ha":833,"x_min":90,"x_max":739,"o":"m 574 0 l 739 0 l 739 12 q 719 80 726 40 q 711 169 711 119 l 711 495 q 688 605 711 557 q 625 684 665 653 q 528 731 584 715 q 408 747 472 747 q 280 729 336 747 q 186 678 224 710 q 126 606 146 647 q 105 522 106 566 l 268 522 q 276 561 268 543 q 300 593 283 580 q 341 615 316 607 q 399 623 366 623 q 464 614 435 623 q 511 588 492 605 q 539 548 530 571 q 549 496 549 525 l 549 447 l 431 447 q 289 432 352 447 q 184 389 227 417 q 114 312 138 358 q 90 205 90 265 q 108 118 90 158 q 161 49 127 77 q 241 3 194 20 q 345 -14 288 -14 q 411 -7 380 -14 q 468 12 441 0 q 516 40 494 24 q 554 73 537 56 q 562 33 557 52 q 574 0 566 14 m 376 117 q 322 124 345 117 q 283 146 299 132 q 260 179 268 159 q 252 220 252 198 q 261 269 252 248 q 292 307 271 291 q 353 335 315 325 q 445 345 392 345 l 549 345 l 549 209 q 524 175 541 191 q 486 146 508 159 q 436 125 463 133 q 376 117 408 117 m 271 956 q 282 903 271 927 q 313 862 294 879 q 358 835 332 844 q 414 825 384 825 q 468 835 443 825 q 512 862 493 844 q 542 903 531 879 q 553 956 553 927 q 542 1009 553 985 q 512 1052 531 1034 q 468 1080 493 1069 q 414 1090 443 1090 q 358 1080 385 1090 q 313 1052 332 1069 q 282 1009 294 1034 q 271 956 271 985 m 345 956 q 350 985 345 972 q 364 1007 355 998 q 387 1022 374 1017 q 414 1027 399 1027 q 440 1022 428 1027 q 461 1008 452 1017 q 475 985 470 998 q 480 956 480 972 q 475 928 480 941 q 460 906 470 916 q 439 892 452 897 q 414 888 427 888 q 386 893 399 888 q 365 907 374 898 q 350 929 355 916 q 345 956 345 941 z "},"ǻ":{"ha":833,"x_min":90,"x_max":739,"o":"m 574 0 l 739 0 l 739 12 q 719 80 726 40 q 711 169 711 119 l 711 495 q 688 605 711 557 q 625 684 665 653 q 528 731 584 715 q 408 747 472 747 q 280 729 336 747 q 186 678 224 710 q 126 606 146 647 q 105 522 106 566 l 268 522 q 276 561 268 543 q 300 593 283 580 q 341 615 316 607 q 399 623 366 623 q 464 614 435 623 q 511 588 492 605 q 539 548 530 571 q 549 496 549 525 l 549 447 l 431 447 q 289 432 352 447 q 184 389 227 417 q 114 312 138 358 q 90 205 90 265 q 108 118 90 158 q 161 49 127 77 q 241 3 194 20 q 345 -14 288 -14 q 411 -7 380 -14 q 468 12 441 0 q 516 40 494 24 q 554 73 537 56 q 562 33 557 52 q 574 0 566 14 m 376 117 q 322 124 345 117 q 283 146 299 132 q 260 179 268 159 q 252 220 252 198 q 261 269 252 248 q 292 307 271 291 q 353 335 315 325 q 445 345 392 345 l 549 345 l 549 209 q 524 175 541 191 q 486 146 508 159 q 436 125 463 133 q 376 117 408 117 m 486 1211 l 373 1079 l 479 1079 l 646 1211 l 486 1211 m 287 929 q 297 882 287 903 q 324 845 307 860 q 365 820 342 829 q 414 812 388 812 q 463 820 439 812 q 503 844 486 829 q 529 882 519 860 q 538 929 538 903 q 529 977 538 955 q 503 1015 519 999 q 463 1040 486 1031 q 414 1049 439 1049 q 365 1040 388 1049 q 324 1015 342 1031 q 297 977 307 999 q 287 929 287 955 m 354 929 q 372 972 355 956 q 414 989 389 989 q 455 972 439 989 q 471 929 471 956 q 455 887 471 904 q 414 870 439 870 q 372 887 389 870 q 354 929 355 904 z "},"ã":{"ha":833,"x_min":90,"x_max":739,"o":"m 574 0 l 739 0 l 739 12 q 719 80 726 40 q 711 169 711 119 l 711 495 q 688 605 711 557 q 625 684 665 653 q 528 731 584 715 q 408 747 472 747 q 280 729 336 747 q 186 678 224 710 q 126 606 146 647 q 105 522 106 566 l 268 522 q 276 561 268 543 q 300 593 283 580 q 341 615 316 607 q 399 623 366 623 q 464 614 435 623 q 511 588 492 605 q 539 548 530 571 q 549 496 549 525 l 549 447 l 431 447 q 289 432 352 447 q 184 389 227 417 q 114 312 138 358 q 90 205 90 265 q 108 118 90 158 q 161 49 127 77 q 241 3 194 20 q 345 -14 288 -14 q 411 -7 380 -14 q 468 12 441 0 q 516 40 494 24 q 554 73 537 56 q 562 33 557 52 q 574 0 566 14 m 376 117 q 322 124 345 117 q 283 146 299 132 q 260 179 268 159 q 252 220 252 198 q 261 269 252 248 q 292 307 271 291 q 353 335 315 325 q 445 345 392 345 l 549 345 l 549 209 q 524 175 541 191 q 486 146 508 159 q 436 125 463 133 q 376 117 408 117 m 653 1039 l 569 1059 q 564 1032 569 1044 q 551 1010 559 1019 q 530 995 543 1000 q 504 989 517 989 q 455 999 478 989 q 411 1021 433 1008 q 365 1041 389 1031 q 314 1050 342 1050 q 256 1037 282 1050 q 211 1000 229 1023 q 181 948 192 977 q 171 888 171 919 l 256 870 q 267 909 256 892 q 296 930 278 925 q 320 936 308 935 q 346 933 333 936 q 384 922 366 930 q 420 903 401 913 q 460 886 439 894 q 510 879 481 879 q 568 892 542 879 q 614 928 595 905 q 643 979 632 950 q 653 1039 653 1008 z "},"ǽ":{"ha":833,"x_min":31,"x_max":810,"o":"m 597 -14 q 664 -8 633 -14 q 720 5 695 -3 q 763 23 745 13 q 793 42 782 33 l 759 156 q 733 142 746 149 q 704 130 720 136 q 669 120 688 124 q 626 117 650 117 q 574 123 597 117 q 536 142 551 130 q 513 165 522 152 q 498 193 503 178 q 491 224 494 207 q 488 260 488 241 l 488 320 l 810 320 l 810 483 q 794 593 810 544 q 750 676 779 642 q 680 729 722 710 q 587 747 639 747 q 530 742 557 748 q 482 724 504 736 q 454 708 467 718 q 430 688 441 699 q 406 709 419 699 q 378 725 393 718 q 328 742 355 736 q 269 747 300 747 q 176 732 217 747 q 105 690 134 718 q 60 624 76 663 q 45 536 45 585 l 198 531 q 202 566 198 551 q 216 591 207 581 q 240 610 225 604 q 275 616 255 616 q 301 611 290 616 q 321 597 313 606 q 337 568 332 586 q 342 525 342 549 l 342 436 l 323 436 q 187 417 245 436 q 92 363 129 399 q 46 292 62 334 q 31 198 31 250 q 44 111 31 150 q 85 44 58 71 q 150 2 111 17 q 239 -14 188 -14 q 293 -6 269 -14 q 340 13 318 1 q 377 41 360 24 q 406 75 393 57 q 433 44 418 58 q 465 20 448 31 q 524 -5 491 3 q 597 -14 557 -14 m 277 110 q 239 116 255 110 q 212 135 222 123 q 196 161 201 146 q 191 195 191 177 q 200 244 191 221 q 226 286 209 267 q 268 313 243 302 q 324 323 292 323 l 342 323 q 342 272 342 291 q 342 224 342 253 q 342 182 342 198 q 342 142 342 165 q 331 131 337 136 q 317 121 324 125 q 297 113 307 116 q 277 110 286 110 m 659 435 l 488 435 l 488 479 q 490 512 488 496 q 495 542 492 528 q 507 575 499 560 q 528 600 515 589 q 550 612 537 608 q 578 616 563 616 q 614 608 599 616 q 639 587 629 600 q 653 555 648 574 q 659 515 659 537 l 659 435 m 498 1019 l 372 833 l 497 833 l 682 1019 l 498 1019 z "},"ć":{"ha":833,"x_min":87,"x_max":732,"o":"m 425 117 q 340 137 374 117 q 286 191 306 157 q 257 267 266 224 q 249 355 249 310 l 249 378 q 257 465 249 422 q 287 541 266 508 q 340 595 307 574 q 425 616 374 616 q 487 604 458 616 q 536 573 515 593 q 568 527 557 553 q 579 471 579 500 l 732 471 q 710 583 732 532 q 646 670 687 633 q 549 727 606 707 q 426 747 492 747 q 278 718 342 747 q 172 638 215 688 q 108 521 130 588 q 87 378 87 454 l 87 355 q 109 212 87 279 q 173 95 130 145 q 278 15 215 45 q 427 -14 342 -14 q 543 6 488 -14 q 641 61 598 26 q 708 142 683 95 q 732 243 732 189 l 579 243 q 567 192 579 215 q 533 152 554 169 q 483 126 511 135 q 425 117 455 117 m 486 1018 l 360 833 l 485 833 l 670 1018 l 486 1018 z "},"č":{"ha":833,"x_min":87,"x_max":732,"o":"m 425 117 q 340 137 374 117 q 286 191 306 157 q 257 267 266 224 q 249 355 249 310 l 249 378 q 257 465 249 422 q 287 541 266 508 q 340 595 307 574 q 425 616 374 616 q 487 604 458 616 q 536 573 515 593 q 568 527 557 553 q 579 471 579 500 l 732 471 q 710 583 732 532 q 646 670 687 633 q 549 727 606 707 q 426 747 492 747 q 278 718 342 747 q 172 638 215 688 q 108 521 130 588 q 87 378 87 454 l 87 355 q 109 212 87 279 q 173 95 130 145 q 278 15 215 45 q 427 -14 342 -14 q 543 6 488 -14 q 641 61 598 26 q 708 142 683 95 q 732 243 732 189 l 579 243 q 567 192 579 215 q 533 152 554 169 q 483 126 511 135 q 425 117 455 117 m 430 954 l 330 1047 l 191 1047 l 191 1034 l 379 865 l 481 865 l 669 1034 l 669 1047 l 530 1047 l 430 954 z "},"ç":{"ha":833,"x_min":87,"x_max":732,"o":"m 425 117 q 340 137 374 117 q 286 191 306 157 q 257 267 266 224 q 249 355 249 310 l 249 378 q 257 465 249 422 q 287 541 266 508 q 340 595 307 574 q 425 616 374 616 q 487 604 458 616 q 536 573 515 593 q 568 527 557 553 q 579 471 579 500 l 732 471 q 710 583 732 532 q 646 670 687 633 q 549 727 606 707 q 426 747 492 747 q 278 718 342 747 q 172 638 215 688 q 108 521 130 588 q 87 378 87 454 l 87 355 q 109 212 87 279 q 173 95 130 145 q 278 15 215 45 q 427 -14 342 -14 q 543 6 488 -14 q 641 61 598 26 q 708 142 683 95 q 732 243 732 189 l 579 243 q 567 192 579 215 q 533 152 554 169 q 483 126 511 135 q 425 117 455 117 m 487 4 l 368 4 l 347 -90 q 393 -95 373 -92 q 425 -105 412 -98 q 443 -122 437 -112 q 449 -148 449 -133 q 441 -176 449 -165 q 422 -195 434 -188 q 392 -205 409 -202 q 355 -209 375 -209 l 360 -302 q 450 -292 411 -302 q 517 -264 490 -282 q 565 -216 549 -245 q 582 -150 582 -187 q 573 -100 582 -121 q 550 -66 564 -79 q 517 -44 535 -52 q 479 -33 498 -36 l 487 4 z "},"ĉ":{"ha":833,"x_min":87,"x_max":732,"o":"m 425 117 q 340 137 374 117 q 286 191 306 157 q 257 267 266 224 q 249 355 249 310 l 249 378 q 257 465 249 422 q 287 541 266 508 q 340 595 307 574 q 425 616 374 616 q 487 604 458 616 q 536 573 515 593 q 568 527 557 553 q 579 471 579 500 l 732 471 q 710 583 732 532 q 646 670 687 633 q 549 727 606 707 q 426 747 492 747 q 278 718 342 747 q 172 638 215 688 q 108 521 130 588 q 87 378 87 454 l 87 355 q 109 212 87 279 q 173 95 130 145 q 278 15 215 45 q 427 -14 342 -14 q 543 6 488 -14 q 641 61 598 26 q 708 142 683 95 q 732 243 732 189 l 579 243 q 567 192 579 215 q 533 152 554 169 q 483 126 511 135 q 425 117 455 117 m 664 882 l 477 1046 l 382 1046 l 199 883 l 199 864 l 328 864 l 430 957 l 533 864 l 664 864 l 664 882 z "},"ď":{"ha":833,"x_min":44,"x_max":970,"o":"m 44 372 l 44 358 q 64 211 44 279 q 122 93 85 142 q 213 15 159 43 q 334 -14 267 -14 q 446 10 397 -14 q 530 77 495 33 l 538 0 l 685 0 l 685 1042 l 523 1042 l 523 665 q 442 726 488 705 q 335 747 396 747 q 213 720 267 747 q 122 643 159 692 q 64 525 84 593 q 44 372 44 456 m 206 358 l 206 372 q 216 466 206 422 q 246 543 225 509 q 298 595 266 576 q 376 614 330 614 q 466 590 430 614 q 523 525 501 566 l 523 210 q 465 144 501 168 q 374 120 429 120 q 298 139 330 120 q 245 191 266 157 q 216 266 225 222 q 206 358 206 309 m 970 947 l 970 1057 l 831 1057 l 831 947 q 815 833 831 884 q 770 737 799 783 l 849 686 q 898 741 876 709 q 937 807 920 772 q 962 878 953 842 q 970 947 970 914 z "},"đ":{"ha":833,"x_min":73,"x_max":837,"o":"m 837 831 l 837 945 l 714 945 l 714 1042 l 552 1042 l 552 945 l 383 945 l 383 831 l 552 831 l 552 665 q 526 691 539 679 q 497 712 512 703 q 436 739 469 730 q 364 747 403 747 q 242 720 296 747 q 151 643 189 692 q 93 525 113 593 q 73 372 73 456 l 73 358 q 94 211 73 279 q 151 93 114 142 q 242 15 189 43 q 363 -14 296 -14 q 432 -5 400 -14 q 490 18 464 3 q 527 44 510 29 q 559 77 545 58 l 567 0 l 714 0 l 714 831 l 837 831 m 235 358 l 235 372 q 245 466 235 422 q 275 543 254 509 q 327 595 295 576 q 405 614 359 614 q 451 608 430 614 q 489 593 472 603 q 525 564 509 582 q 552 525 541 547 l 552 210 q 527 173 541 190 q 496 145 513 157 q 454 126 477 133 q 404 120 431 120 q 327 139 359 120 q 275 191 295 157 q 245 266 254 222 q 235 358 235 309 z "},"é":{"ha":833,"x_min":83,"x_max":755,"o":"m 448 -14 q 630 28 555 -14 q 743 123 706 71 l 656 208 q 570 141 622 164 q 457 117 517 117 q 376 132 413 117 q 312 174 339 147 q 269 233 285 200 q 246 313 254 265 l 246 317 l 755 317 l 755 387 q 734 532 755 465 q 671 646 713 598 q 569 721 630 694 q 429 747 508 747 q 295 721 357 747 q 184 644 232 694 q 110 525 137 595 q 83 369 83 455 l 83 341 q 109 201 83 266 q 183 89 135 136 q 299 14 231 41 q 448 -14 366 -14 m 428 616 q 499 602 469 616 q 551 565 530 588 q 583 510 572 541 q 595 446 595 478 l 595 435 l 250 435 q 273 511 257 477 q 311 568 288 544 q 364 603 334 591 q 428 616 393 616 m 468 1019 l 342 833 l 467 833 l 652 1019 l 468 1019 z "},"ĕ":{"ha":833,"x_min":83,"x_max":755,"o":"m 448 -14 q 630 28 555 -14 q 743 123 706 71 l 656 208 q 570 141 622 164 q 457 117 517 117 q 376 132 413 117 q 312 174 339 147 q 269 233 285 200 q 246 313 254 265 l 246 317 l 755 317 l 755 387 q 734 532 755 465 q 671 646 713 598 q 569 721 630 694 q 429 747 508 747 q 295 721 357 747 q 184 644 232 694 q 110 525 137 595 q 83 369 83 455 l 83 341 q 109 201 83 266 q 183 89 135 136 q 299 14 231 41 q 448 -14 366 -14 m 428 616 q 499 602 469 616 q 551 565 530 588 q 583 510 572 541 q 595 446 595 478 l 595 435 l 250 435 q 273 511 257 477 q 311 568 288 544 q 364 603 334 591 q 428 616 393 616 m 633 1044 l 511 1044 q 506 1008 511 1025 q 489 978 500 991 q 458 957 477 964 q 414 949 440 949 q 369 957 388 949 q 339 977 351 964 q 322 1008 328 991 q 316 1044 316 1025 l 195 1044 q 210 966 195 1002 q 254 906 226 931 q 323 867 283 881 q 414 853 363 853 q 505 867 465 853 q 574 906 545 881 q 617 967 602 931 q 633 1044 633 1002 z "},"ě":{"ha":833,"x_min":83,"x_max":755,"o":"m 448 -14 q 630 28 555 -14 q 743 123 706 71 l 656 208 q 570 141 622 164 q 457 117 517 117 q 376 132 413 117 q 312 174 339 147 q 269 233 285 200 q 246 313 254 265 l 246 317 l 755 317 l 755 387 q 734 532 755 465 q 671 646 713 598 q 569 721 630 694 q 429 747 508 747 q 295 721 357 747 q 184 644 232 694 q 110 525 137 595 q 83 369 83 455 l 83 341 q 109 201 83 266 q 183 89 135 136 q 299 14 231 41 q 448 -14 366 -14 m 428 616 q 499 602 469 616 q 551 565 530 588 q 583 510 572 541 q 595 446 595 478 l 595 435 l 250 435 q 273 511 257 477 q 311 568 288 544 q 364 603 334 591 q 428 616 393 616 m 413 955 l 313 1048 l 174 1048 l 174 1034 l 362 865 l 464 865 l 652 1035 l 652 1048 l 513 1048 l 413 955 z "},"ê":{"ha":833,"x_min":83,"x_max":755,"o":"m 448 -14 q 630 28 555 -14 q 743 123 706 71 l 656 208 q 570 141 622 164 q 457 117 517 117 q 376 132 413 117 q 312 174 339 147 q 269 233 285 200 q 246 313 254 265 l 246 317 l 755 317 l 755 387 q 734 532 755 465 q 671 646 713 598 q 569 721 630 694 q 429 747 508 747 q 295 721 357 747 q 184 644 232 694 q 110 525 137 595 q 83 369 83 455 l 83 341 q 109 201 83 266 q 183 89 135 136 q 299 14 231 41 q 448 -14 366 -14 m 428 616 q 499 602 469 616 q 551 565 530 588 q 583 510 572 541 q 595 446 595 478 l 595 435 l 250 435 q 273 511 257 477 q 311 568 288 544 q 364 603 334 591 q 428 616 393 616 m 647 883 l 460 1046 l 366 1046 l 182 884 l 182 865 l 311 865 l 413 958 l 516 865 l 647 865 l 647 883 z "},"ë":{"ha":833,"x_min":83,"x_max":755,"o":"m 448 -14 q 630 28 555 -14 q 743 123 706 71 l 656 208 q 570 141 622 164 q 457 117 517 117 q 376 132 413 117 q 312 174 339 147 q 269 233 285 200 q 246 313 254 265 l 246 317 l 755 317 l 755 387 q 734 532 755 465 q 671 646 713 598 q 569 721 630 694 q 429 747 508 747 q 295 721 357 747 q 184 644 232 694 q 110 525 137 595 q 83 369 83 455 l 83 341 q 109 201 83 266 q 183 89 135 136 q 299 14 231 41 q 448 -14 366 -14 m 428 616 q 499 602 469 616 q 551 565 530 588 q 583 510 572 541 q 595 446 595 478 l 595 435 l 250 435 q 273 511 257 477 q 311 568 288 544 q 364 603 334 591 q 428 616 393 616 m 170 946 q 193 889 170 912 q 254 867 216 867 q 316 889 293 867 q 339 946 339 912 q 316 1002 339 979 q 254 1025 293 1025 q 192 1002 215 1025 q 170 946 170 979 m 481 945 q 504 888 481 911 q 566 865 526 865 q 627 888 604 865 q 650 945 650 911 q 628 1001 650 978 q 566 1025 605 1025 q 504 1001 526 1025 q 481 945 481 978 z "},"ė":{"ha":833,"x_min":83,"x_max":755,"o":"m 448 -14 q 630 28 555 -14 q 743 123 706 71 l 656 208 q 570 141 622 164 q 457 117 517 117 q 376 132 413 117 q 312 174 339 147 q 269 233 285 200 q 246 313 254 265 l 246 317 l 755 317 l 755 387 q 734 532 755 465 q 671 646 713 598 q 569 721 630 694 q 429 747 508 747 q 295 721 357 747 q 184 644 232 694 q 110 525 137 595 q 83 369 83 455 l 83 341 q 109 201 83 266 q 183 89 135 136 q 299 14 231 41 q 448 -14 366 -14 m 428 616 q 499 602 469 616 q 551 565 530 588 q 583 510 572 541 q 595 446 595 478 l 595 435 l 250 435 q 273 511 257 477 q 311 568 288 544 q 364 603 334 591 q 428 616 393 616 m 321 947 q 345 886 321 911 q 412 861 369 861 q 480 886 456 861 q 505 947 505 911 q 480 1009 505 985 q 412 1034 456 1034 q 345 1009 369 1034 q 321 947 321 985 z "},"è":{"ha":833,"x_min":83,"x_max":755,"o":"m 448 -14 q 630 28 555 -14 q 743 123 706 71 l 656 208 q 570 141 622 164 q 457 117 517 117 q 376 132 413 117 q 312 174 339 147 q 269 233 285 200 q 246 313 254 265 l 246 317 l 755 317 l 755 387 q 734 532 755 465 q 671 646 713 598 q 569 721 630 694 q 429 747 508 747 q 295 721 357 747 q 184 644 232 694 q 110 525 137 595 q 83 369 83 455 l 83 341 q 109 201 83 266 q 183 89 135 136 q 299 14 231 41 q 448 -14 366 -14 m 428 616 q 499 602 469 616 q 551 565 530 588 q 583 510 572 541 q 595 446 595 478 l 595 435 l 250 435 q 273 511 257 477 q 311 568 288 544 q 364 603 334 591 q 428 616 393 616 m 481 836 l 361 1021 l 178 1021 l 352 836 l 481 836 z "},"ē":{"ha":833,"x_min":83,"x_max":755,"o":"m 448 -14 q 630 28 555 -14 q 743 123 706 71 l 656 208 q 570 141 622 164 q 457 117 517 117 q 376 132 413 117 q 312 174 339 147 q 269 233 285 200 q 246 313 254 265 l 246 317 l 755 317 l 755 387 q 734 532 755 465 q 671 646 713 598 q 569 721 630 694 q 429 747 508 747 q 295 721 357 747 q 184 644 232 694 q 110 525 137 595 q 83 369 83 455 l 83 341 q 109 201 83 266 q 183 89 135 136 q 299 14 231 41 q 448 -14 366 -14 m 428 616 q 499 602 469 616 q 551 565 530 588 q 583 510 572 541 q 595 446 595 478 l 595 435 l 250 435 q 273 511 257 477 q 311 568 288 544 q 364 603 334 591 q 428 616 393 616 m 661 885 l 661 990 l 170 990 l 170 885 l 661 885 z "},"ŋ":{"ha":833,"x_min":111,"x_max":723,"o":"m 111 0 l 273 0 l 273 539 q 295 566 283 553 q 323 588 308 578 q 368 607 342 600 q 425 614 394 614 q 485 605 460 614 q 528 576 511 596 q 552 527 543 557 q 560 454 560 496 l 560 -41 q 553 -98 560 -74 q 532 -137 546 -123 q 506 -154 521 -149 q 473 -160 492 -160 q 439 -158 458 -160 q 406 -152 420 -156 l 396 -285 q 440 -294 420 -292 q 484 -296 460 -296 q 582 -280 538 -296 q 657 -233 626 -264 q 706 -152 689 -201 q 723 -41 723 -104 l 723 455 q 706 588 723 532 q 657 680 689 644 q 581 731 626 714 q 481 747 536 747 q 403 736 439 747 q 337 703 367 724 q 300 671 317 689 q 269 630 283 652 l 268 637 l 260 734 l 111 734 l 111 0 z "},"ę":{"ha":833,"x_min":83,"x_max":755,"o":"m 83 341 q 107 207 83 269 q 176 98 131 144 q 281 22 219 50 q 416 -12 343 -7 q 419 -13 418 -12 q 422 -13 420 -13 q 375 -75 391 -41 q 360 -140 360 -109 q 371 -199 360 -174 q 401 -241 382 -224 q 447 -267 421 -258 q 503 -276 473 -276 q 577 -266 548 -276 q 626 -246 607 -256 l 599 -151 q 573 -161 589 -156 q 538 -166 558 -167 q 500 -153 511 -166 q 489 -118 489 -139 q 496 -77 489 -97 q 519 -41 504 -58 q 552 -12 532 -26 q 598 14 571 2 q 683 61 646 31 q 743 123 720 92 l 656 208 q 570 141 622 164 q 457 117 517 117 q 376 133 413 117 q 312 174 339 148 q 266 239 283 202 q 246 314 250 277 l 245 317 l 755 317 l 755 387 q 734 532 755 465 q 671 646 713 598 q 569 721 630 694 q 429 747 508 747 q 295 721 357 747 q 184 644 232 694 q 110 525 137 595 q 83 369 83 455 l 83 341 m 428 616 q 499 602 469 616 q 551 565 530 588 q 582 511 570 543 q 595 446 594 479 l 595 435 l 250 435 q 273 511 257 477 q 311 568 288 544 q 364 603 334 591 q 428 616 393 616 z "},"ğ":{"ha":833,"x_min":84,"x_max":730,"o":"m 84 372 l 84 358 q 105 211 84 279 q 163 93 125 142 q 256 15 202 43 q 378 -14 311 -14 q 448 -6 416 -14 q 506 17 479 2 q 539 39 524 26 q 568 67 554 52 l 568 16 q 556 -58 568 -25 q 523 -113 545 -90 q 466 -148 499 -136 q 389 -160 432 -160 q 339 -155 363 -160 q 291 -139 315 -150 q 244 -111 267 -128 q 202 -70 222 -94 l 125 -168 q 184 -224 150 -201 q 255 -261 218 -247 q 330 -282 292 -275 q 398 -289 367 -289 q 533 -268 472 -289 q 639 -208 595 -248 q 706 -111 682 -168 q 730 20 730 -54 l 730 734 l 583 734 l 576 660 q 547 690 563 676 q 514 714 532 704 q 454 739 487 730 q 380 747 420 747 q 257 720 311 747 q 163 643 202 692 q 104 525 125 593 q 84 372 84 456 m 247 358 l 247 372 q 257 466 247 422 q 289 543 267 509 q 342 595 310 576 q 420 614 375 614 q 468 608 446 614 q 507 593 490 602 q 542 565 527 581 q 568 528 557 549 l 568 207 q 543 171 557 187 q 511 143 529 155 q 470 126 492 132 q 419 120 447 120 q 342 139 374 120 q 288 191 309 157 q 257 266 267 222 q 247 358 247 309 m 627 1044 l 506 1044 q 500 1007 506 1025 q 484 977 495 990 q 453 956 471 964 q 409 948 435 948 q 364 956 382 948 q 334 977 345 964 q 316 1007 322 990 q 311 1044 311 1025 l 189 1044 q 205 966 189 1001 q 249 905 220 930 q 318 866 277 880 q 409 852 358 852 q 499 866 459 852 q 569 905 540 880 q 612 966 597 930 q 627 1044 627 1002 z "},"ĝ":{"ha":833,"x_min":84,"x_max":730,"o":"m 84 372 l 84 358 q 105 211 84 279 q 163 93 125 142 q 256 15 202 43 q 378 -14 311 -14 q 448 -6 416 -14 q 506 17 479 2 q 539 39 524 26 q 568 67 554 52 l 568 16 q 556 -58 568 -25 q 523 -113 545 -90 q 466 -148 499 -136 q 389 -160 432 -160 q 339 -155 363 -160 q 291 -139 315 -150 q 244 -111 267 -128 q 202 -70 222 -94 l 125 -168 q 184 -224 150 -201 q 255 -261 218 -247 q 330 -282 292 -275 q 398 -289 367 -289 q 533 -268 472 -289 q 639 -208 595 -248 q 706 -111 682 -168 q 730 20 730 -54 l 730 734 l 583 734 l 576 660 q 547 690 563 676 q 514 714 532 704 q 454 739 487 730 q 380 747 420 747 q 257 720 311 747 q 163 643 202 692 q 104 525 125 593 q 84 372 84 456 m 247 358 l 247 372 q 257 466 247 422 q 289 543 267 509 q 342 595 310 576 q 420 614 375 614 q 468 608 446 614 q 507 593 490 602 q 542 565 527 581 q 568 528 557 549 l 568 207 q 543 171 557 187 q 511 143 529 155 q 470 126 492 132 q 419 120 447 120 q 342 139 374 120 q 288 191 309 157 q 257 266 267 222 q 247 358 247 309 m 642 882 l 455 1046 l 360 1046 l 176 883 l 176 864 l 305 864 l 408 957 l 511 864 l 642 864 l 642 882 z "},"ģ":{"ha":833,"x_min":84,"x_max":730,"o":"m 84 372 l 84 358 q 105 211 84 279 q 163 93 125 142 q 256 15 202 43 q 378 -14 311 -14 q 448 -6 416 -14 q 506 17 479 2 q 539 39 524 26 q 568 67 554 52 l 568 16 q 556 -58 568 -25 q 523 -113 545 -90 q 466 -148 499 -136 q 389 -160 432 -160 q 339 -155 363 -160 q 291 -139 315 -150 q 244 -111 267 -128 q 202 -70 222 -94 l 125 -168 q 184 -224 150 -201 q 255 -261 218 -247 q 330 -282 292 -275 q 398 -289 367 -289 q 533 -268 472 -289 q 639 -208 595 -248 q 706 -111 682 -168 q 730 20 730 -54 l 730 734 l 583 734 l 576 660 q 547 690 563 676 q 514 714 532 704 q 454 739 487 730 q 380 747 420 747 q 257 720 311 747 q 163 643 202 692 q 104 525 125 593 q 84 372 84 456 m 247 358 l 247 372 q 257 466 247 422 q 289 543 267 509 q 342 595 310 576 q 420 614 375 614 q 468 608 446 614 q 507 593 490 602 q 542 565 527 581 q 568 528 557 549 l 568 207 q 543 171 557 187 q 511 143 529 155 q 470 126 492 132 q 419 120 447 120 q 342 139 374 120 q 288 191 309 157 q 257 266 267 222 q 247 358 247 309 m 336 942 l 336 852 l 475 852 l 476 935 q 488 1024 476 983 q 520 1100 499 1064 l 433 1154 q 365 1067 395 1126 q 336 942 336 1008 z "},"ħ":{"ha":833,"x_min":1,"x_max":751,"o":"m 455 830 l 455 943 l 277 943 l 277 1042 l 115 1042 l 115 943 l 1 943 l 1 830 l 115 830 l 115 0 l 277 0 l 277 531 q 307 565 290 550 q 345 591 324 581 q 388 608 364 602 q 437 614 411 614 q 502 604 473 614 q 549 575 530 595 q 578 525 568 556 q 589 453 589 494 l 589 0 l 751 0 l 751 452 q 732 586 751 530 q 680 677 713 642 q 598 730 646 713 q 492 747 550 747 q 420 737 454 747 q 357 708 387 727 q 314 674 334 694 q 277 629 294 654 l 277 830 l 455 830 z "},"ĥ":{"ha":833,"x_min":-43,"x_max":741,"o":"m 267 629 l 267 1042 l 105 1042 l 105 0 l 267 0 l 267 531 q 294 563 279 549 q 327 587 309 577 q 373 607 348 600 q 427 614 399 614 q 492 604 464 614 q 540 574 520 594 q 569 524 559 555 q 578 453 578 494 l 578 0 l 741 0 l 741 452 q 722 586 741 530 q 669 677 703 642 q 588 730 635 713 q 482 747 540 747 q 404 735 441 747 q 336 701 367 724 q 299 669 317 688 q 267 629 281 651 m 422 1149 l 235 1313 l 140 1313 l -43 1150 l -43 1131 l 85 1131 l 188 1224 l 291 1131 l 422 1131 l 422 1149 z "},"í":{"ha":833,"x_min":136,"x_max":754,"o":"m 136 734 l 136 599 l 368 599 l 368 134 l 136 134 l 136 0 l 754 0 l 754 134 l 532 134 l 532 734 l 136 734 m 507 1002 l 382 817 l 507 817 l 692 1002 l 507 1002 z "},"ĭ":{"ha":833,"x_min":136,"x_max":754,"o":"m 136 734 l 136 599 l 368 599 l 368 134 l 136 134 l 136 0 l 754 0 l 754 134 l 532 134 l 532 734 l 136 734 m 671 1027 l 550 1027 q 545 991 550 1008 q 528 961 539 974 q 497 940 515 947 q 453 932 479 932 q 408 940 427 932 q 378 960 389 947 q 360 991 366 974 q 355 1027 355 1008 l 233 1027 q 249 949 233 985 q 293 889 264 914 q 362 850 321 864 q 453 836 402 836 q 544 850 503 836 q 613 889 584 864 q 656 950 641 914 q 671 1027 671 985 z "},"î":{"ha":833,"x_min":136,"x_max":754,"o":"m 136 734 l 136 599 l 368 599 l 368 134 l 136 134 l 136 0 l 754 0 l 754 134 l 532 134 l 532 734 l 136 734 m 686 866 l 500 1029 l 405 1029 l 221 867 l 221 848 l 350 848 l 452 941 l 555 848 l 686 848 l 686 866 z "},"ï":{"ha":833,"x_min":136,"x_max":754,"o":"m 136 734 l 136 599 l 368 599 l 368 134 l 136 134 l 136 0 l 754 0 l 754 134 l 532 134 l 532 734 l 136 734 m 208 929 q 231 872 208 895 q 293 850 254 850 q 355 872 332 850 q 378 929 378 895 q 355 985 378 962 q 293 1008 332 1008 q 231 985 254 1008 q 208 929 208 962 m 519 928 q 542 871 519 895 q 604 848 565 848 q 666 871 643 848 q 689 928 689 895 q 666 984 689 961 q 604 1008 644 1008 q 542 984 565 1008 q 519 928 519 961 z "},"ì":{"ha":833,"x_min":136,"x_max":754,"o":"m 136 734 l 136 599 l 368 599 l 368 134 l 136 134 l 136 0 l 754 0 l 754 134 l 532 134 l 532 734 l 136 734 m 519 819 l 400 1004 l 216 1004 l 391 819 l 519 819 z "},"ī":{"ha":833,"x_min":136,"x_max":754,"o":"m 136 734 l 136 599 l 368 599 l 368 134 l 136 134 l 136 0 l 754 0 l 754 134 l 532 134 l 532 734 l 136 734 m 699 869 l 699 974 l 208 974 l 208 869 l 699 869 z "},"į":{"ha":833,"x_min":142,"x_max":747,"o":"m 142 734 l 142 599 l 368 599 l 368 134 l 142 134 l 142 0 l 366 0 q 337 -25 351 -12 q 314 -54 324 -39 q 286 -103 296 -77 q 277 -155 277 -129 q 288 -213 277 -188 q 318 -256 299 -239 q 363 -281 337 -273 q 419 -290 389 -290 q 494 -280 465 -290 q 543 -260 524 -271 l 515 -165 q 490 -175 505 -170 q 454 -180 475 -181 q 416 -167 427 -180 q 406 -132 406 -153 q 412 -93 406 -112 q 433 -58 419 -74 q 467 -27 447 -41 q 516 0 488 -13 l 747 0 l 747 134 l 532 134 l 532 734 l 142 734 m 353 924 q 379 860 353 885 q 448 836 404 836 q 518 860 493 836 q 543 924 543 885 q 518 988 543 962 q 448 1013 493 1013 q 378 987 404 1013 q 353 924 353 962 z "},"ĩ":{"ha":833,"x_min":136,"x_max":754,"o":"m 136 734 l 136 599 l 368 599 l 368 134 l 136 134 l 136 0 l 754 0 l 754 134 l 532 134 l 532 734 l 136 734 m 693 1023 l 609 1043 q 604 1016 609 1028 q 591 994 599 1003 q 570 979 583 984 q 544 973 557 973 q 495 983 518 973 q 451 1004 473 992 q 405 1025 429 1015 q 354 1034 382 1034 q 296 1020 322 1034 q 251 983 269 1006 q 221 932 232 961 q 211 872 211 903 l 296 854 q 307 892 296 876 q 336 913 318 909 q 360 919 348 919 q 386 917 373 920 q 424 905 406 914 q 460 887 441 897 q 500 870 479 878 q 550 863 522 863 q 608 876 582 863 q 654 912 635 889 q 683 963 672 934 q 693 1023 693 992 z "},"ĵ":{"ha":833,"x_min":139,"x_max":725,"o":"m 196 734 l 196 599 l 408 599 l 408 -12 q 396 -83 408 -54 q 365 -129 385 -111 q 318 -153 345 -146 q 260 -161 291 -161 q 237 -160 252 -161 q 206 -159 222 -160 q 174 -156 189 -158 q 149 -153 158 -155 l 139 -285 q 168 -290 154 -288 q 197 -294 182 -292 q 233 -296 214 -295 q 270 -296 251 -296 q 397 -279 341 -296 q 492 -226 453 -261 q 550 -137 530 -191 q 570 -12 570 -84 l 570 734 l 196 734 m 725 858 l 538 1021 l 444 1021 l 260 859 l 260 840 l 389 840 l 491 932 l 594 840 l 725 840 l 725 858 z "},"ķ":{"ha":833,"x_min":106,"x_max":792,"o":"m 357 319 l 591 0 l 792 0 l 465 428 l 751 734 l 555 734 l 336 503 l 269 429 l 269 1042 l 106 1042 l 106 0 l 269 0 l 269 236 l 357 319 m 457 -90 l 457 -43 l 332 -43 l 332 -92 q 319 -188 332 -144 q 281 -274 307 -231 l 356 -324 q 432 -215 407 -279 q 457 -90 457 -151 z "},"ĺ":{"ha":833,"x_min":136,"x_max":754,"o":"m 136 1042 l 136 907 l 368 907 l 368 134 l 136 134 l 136 0 l 754 0 l 754 134 l 532 134 l 532 1042 l 136 1042 m 503 1284 l 378 1099 l 503 1099 l 688 1284 l 503 1284 z "},"ľ":{"ha":833,"x_min":94,"x_max":815,"o":"m 94 1042 l 94 907 l 326 907 l 326 134 l 94 134 l 94 0 l 712 0 l 712 134 l 490 134 l 490 1042 l 94 1042 m 815 935 l 815 1044 l 676 1044 l 676 934 q 660 820 676 871 q 615 724 644 770 l 694 673 q 743 728 721 696 q 782 794 765 760 q 806 865 798 829 q 815 935 815 901 z "},"ļ":{"ha":833,"x_min":136,"x_max":754,"o":"m 136 1042 l 136 907 l 368 907 l 368 134 l 136 134 l 136 0 l 754 0 l 754 134 l 532 134 l 532 1042 l 136 1042 m 520 -83 l 520 -36 l 395 -36 l 395 -85 q 382 -180 395 -136 q 345 -267 370 -224 l 419 -317 q 495 -208 470 -272 q 520 -83 520 -144 z "},"ŀ":{"ha":833,"x_min":89,"x_max":740,"o":"m 89 1042 l 89 907 l 321 907 l 321 134 l 89 134 l 89 0 l 707 0 l 707 134 l 484 134 l 484 1042 l 89 1042 m 556 553 q 580 492 556 517 q 648 467 604 467 q 716 492 692 467 q 740 553 740 517 q 716 615 740 591 q 648 640 692 640 q 580 615 604 640 q 556 553 556 591 z "},"ł":{"ha":833,"x_min":142,"x_max":760,"o":"m 537 678 l 537 1042 l 142 1042 l 142 907 l 374 907 l 374 605 l 155 507 l 155 384 l 374 482 l 374 134 l 142 134 l 142 0 l 760 0 l 760 134 l 537 134 l 537 555 l 730 642 l 730 765 l 537 678 z "},"ń":{"ha":833,"x_min":105,"x_max":739,"o":"m 105 0 l 267 0 l 267 524 q 292 557 278 542 q 323 584 307 573 q 370 606 344 598 q 425 614 395 614 q 489 606 461 614 q 536 580 517 598 q 566 531 556 562 q 576 455 576 500 l 576 0 l 739 0 l 739 458 q 720 590 739 535 q 669 680 702 644 q 589 731 635 715 q 486 747 542 747 q 404 735 443 747 q 333 701 366 723 q 295 668 313 686 q 262 629 277 650 l 252 734 l 105 734 l 105 0 m 466 1018 l 340 833 l 465 833 l 650 1018 l 466 1018 z "},"ň":{"ha":833,"x_min":105,"x_max":739,"o":"m 105 0 l 267 0 l 267 524 q 292 557 278 542 q 323 584 307 573 q 370 606 344 598 q 425 614 395 614 q 489 606 461 614 q 536 580 517 598 q 566 531 556 562 q 576 455 576 500 l 576 0 l 739 0 l 739 458 q 720 590 739 535 q 669 680 702 644 q 589 731 635 715 q 486 747 542 747 q 404 735 443 747 q 333 701 366 723 q 295 668 313 686 q 262 629 277 650 l 252 734 l 105 734 l 105 0 m 412 954 l 311 1047 l 173 1047 l 173 1034 l 361 865 l 463 865 l 651 1034 l 651 1047 l 512 1047 l 412 954 z "},"ņ":{"ha":833,"x_min":105,"x_max":739,"o":"m 105 0 l 267 0 l 267 524 q 292 557 278 542 q 323 584 307 573 q 370 606 344 598 q 425 614 395 614 q 489 606 461 614 q 536 580 517 598 q 566 531 556 562 q 576 455 576 500 l 576 0 l 739 0 l 739 458 q 720 590 739 535 q 669 680 702 644 q 589 731 635 715 q 486 747 542 747 q 404 735 443 747 q 333 701 366 723 q 295 668 313 686 q 262 629 277 650 l 252 734 l 105 734 l 105 0 m 481 -83 l 481 -37 l 355 -37 l 355 -85 q 343 -181 355 -137 q 305 -267 330 -224 l 380 -317 q 456 -209 431 -273 q 481 -83 481 -144 z "},"ñ":{"ha":833,"x_min":105,"x_max":739,"o":"m 105 0 l 267 0 l 267 524 q 292 557 278 542 q 323 584 307 573 q 370 606 344 598 q 425 614 395 614 q 489 606 461 614 q 536 580 517 598 q 566 531 556 562 q 576 455 576 500 l 576 0 l 739 0 l 739 458 q 720 590 739 535 q 669 680 702 644 q 589 731 635 715 q 486 747 542 747 q 404 735 443 747 q 333 701 366 723 q 295 668 313 686 q 262 629 277 650 l 252 734 l 105 734 l 105 0 m 652 1039 l 568 1059 q 563 1032 568 1044 q 549 1010 557 1019 q 529 995 541 1000 q 503 989 516 989 q 454 999 477 989 q 410 1021 431 1008 q 364 1041 387 1031 q 313 1050 340 1050 q 254 1037 281 1050 q 210 1000 228 1023 q 180 948 191 977 q 170 888 170 919 l 254 870 q 266 909 255 892 q 294 930 277 925 q 319 936 307 935 q 345 933 332 936 q 382 922 365 930 q 419 903 400 913 q 459 886 437 894 q 509 879 480 879 q 567 892 541 879 q 612 928 593 905 q 641 979 631 950 q 652 1039 652 1008 z "},"ó":{"ha":833,"x_min":75,"x_max":757,"o":"m 75 374 l 75 359 q 98 211 75 279 q 165 93 121 143 q 273 14 209 43 q 417 -14 336 -14 q 561 14 497 -14 q 667 93 624 43 q 734 211 711 143 q 757 359 757 279 l 757 374 q 734 522 757 454 q 667 640 711 590 q 560 719 623 690 q 416 747 496 747 q 272 719 335 747 q 165 640 209 690 q 98 522 121 590 q 75 374 75 454 m 237 359 l 237 374 q 248 466 237 422 q 281 543 258 510 q 336 596 302 576 q 416 616 370 616 q 496 596 463 616 q 552 543 530 576 q 584 466 573 510 q 595 374 595 422 l 595 359 q 584 266 595 310 q 552 189 574 222 q 496 136 530 155 q 417 117 463 117 q 336 136 370 117 q 281 189 302 155 q 248 266 258 222 q 237 359 237 310 m 474 1018 l 349 833 l 473 833 l 659 1018 l 474 1018 z "},"ŏ":{"ha":833,"x_min":75,"x_max":757,"o":"m 75 374 l 75 359 q 98 211 75 279 q 165 93 121 143 q 273 14 209 43 q 417 -14 336 -14 q 561 14 497 -14 q 667 93 624 43 q 734 211 711 143 q 757 359 757 279 l 757 374 q 734 522 757 454 q 667 640 711 590 q 560 719 623 690 q 416 747 496 747 q 272 719 335 747 q 165 640 209 690 q 98 522 121 590 q 75 374 75 454 m 237 359 l 237 374 q 248 466 237 422 q 281 543 258 510 q 336 596 302 576 q 416 616 370 616 q 496 596 463 616 q 552 543 530 576 q 584 466 573 510 q 595 374 595 422 l 595 359 q 584 266 595 310 q 552 189 574 222 q 496 136 530 155 q 417 117 463 117 q 336 136 370 117 q 281 189 302 155 q 248 266 258 222 q 237 359 237 310 m 638 1044 l 517 1044 q 511 1007 517 1025 q 494 977 506 990 q 464 956 482 964 q 420 948 446 948 q 375 956 393 948 q 345 977 356 964 q 327 1007 333 990 q 321 1044 321 1025 l 200 1044 q 216 966 200 1001 q 260 905 231 930 q 329 866 288 880 q 420 852 369 852 q 510 866 470 852 q 580 905 551 880 q 623 966 608 930 q 638 1044 638 1002 z "},"ô":{"ha":833,"x_min":75,"x_max":757,"o":"m 75 374 l 75 359 q 98 211 75 279 q 165 93 121 143 q 273 14 209 43 q 417 -14 336 -14 q 561 14 497 -14 q 667 93 624 43 q 734 211 711 143 q 757 359 757 279 l 757 374 q 734 522 757 454 q 667 640 711 590 q 560 719 623 690 q 416 747 496 747 q 272 719 335 747 q 165 640 209 690 q 98 522 121 590 q 75 374 75 454 m 237 359 l 237 374 q 248 466 237 422 q 281 543 258 510 q 336 596 302 576 q 416 616 370 616 q 496 596 463 616 q 552 543 530 576 q 584 466 573 510 q 595 374 595 422 l 595 359 q 584 266 595 310 q 552 189 574 222 q 496 136 530 155 q 417 117 463 117 q 336 136 370 117 q 281 189 302 155 q 248 266 258 222 q 237 359 237 310 m 653 882 l 467 1046 l 372 1046 l 188 883 l 188 864 l 317 864 l 419 957 l 522 864 l 653 864 l 653 882 z "},"ö":{"ha":833,"x_min":75,"x_max":757,"o":"m 75 374 l 75 359 q 98 211 75 279 q 165 93 121 143 q 273 14 209 43 q 417 -14 336 -14 q 561 14 497 -14 q 667 93 624 43 q 734 211 711 143 q 757 359 757 279 l 757 374 q 734 522 757 454 q 667 640 711 590 q 560 719 623 690 q 416 747 496 747 q 272 719 335 747 q 165 640 209 690 q 98 522 121 590 q 75 374 75 454 m 237 359 l 237 374 q 248 466 237 422 q 281 543 258 510 q 336 596 302 576 q 416 616 370 616 q 496 596 463 616 q 552 543 530 576 q 584 466 573 510 q 595 374 595 422 l 595 359 q 584 266 595 310 q 552 189 574 222 q 496 136 530 155 q 417 117 463 117 q 336 136 370 117 q 281 189 302 155 q 248 266 258 222 q 237 359 237 310 m 176 945 q 199 889 176 911 q 260 866 222 866 q 322 889 299 866 q 345 945 345 911 q 322 1002 345 979 q 260 1025 299 1025 q 198 1002 221 1025 q 176 945 176 979 m 487 945 q 510 888 487 911 q 572 865 532 865 q 633 888 610 865 q 656 945 656 911 q 634 1001 656 977 q 572 1024 611 1024 q 510 1001 532 1024 q 487 945 487 977 z "},"ò":{"ha":833,"x_min":75,"x_max":757,"o":"m 75 374 l 75 359 q 98 211 75 279 q 165 93 121 143 q 273 14 209 43 q 417 -14 336 -14 q 561 14 497 -14 q 667 93 624 43 q 734 211 711 143 q 757 359 757 279 l 757 374 q 734 522 757 454 q 667 640 711 590 q 560 719 623 690 q 416 747 496 747 q 272 719 335 747 q 165 640 209 690 q 98 522 121 590 q 75 374 75 454 m 237 359 l 237 374 q 248 466 237 422 q 281 543 258 510 q 336 596 302 576 q 416 616 370 616 q 496 596 463 616 q 552 543 530 576 q 584 466 573 510 q 595 374 595 422 l 595 359 q 584 266 595 310 q 552 189 574 222 q 496 136 530 155 q 417 117 463 117 q 336 136 370 117 q 281 189 302 155 q 248 266 258 222 q 237 359 237 310 m 486 835 l 367 1020 l 183 1020 l 357 835 l 486 835 z "},"ơ":{"ha":833,"x_min":71,"x_max":809,"o":"m 71 374 l 71 359 q 94 211 71 279 q 161 93 117 143 q 269 14 205 43 q 413 -14 332 -14 q 556 14 493 -14 q 663 93 620 43 q 730 211 707 143 q 753 359 753 279 l 753 374 q 740 489 753 435 q 700 588 726 543 q 745 621 725 602 q 779 667 765 641 q 801 728 793 694 q 809 804 809 763 l 686 804 q 682 755 686 777 q 671 715 678 733 q 654 690 664 701 q 632 671 644 678 q 535 727 590 707 q 412 747 479 747 q 268 719 331 747 q 161 640 205 690 q 94 522 117 590 q 71 374 71 454 m 233 359 l 233 374 q 244 466 233 422 q 277 543 254 510 q 332 596 298 576 q 412 616 366 616 q 492 596 458 616 q 548 543 526 576 q 580 466 570 510 q 591 374 591 422 l 591 359 q 580 266 591 310 q 548 189 570 222 q 492 136 526 155 q 413 117 458 117 q 332 136 366 117 q 277 189 298 155 q 244 266 254 222 q 233 359 233 310 z "},"ő":{"ha":833,"x_min":75,"x_max":783,"o":"m 75 374 l 75 359 q 98 211 75 279 q 165 93 121 143 q 273 14 209 43 q 417 -14 336 -14 q 561 14 497 -14 q 667 93 624 43 q 734 211 711 143 q 757 359 757 279 l 757 374 q 734 522 757 454 q 667 640 711 590 q 560 719 623 690 q 416 747 496 747 q 272 719 335 747 q 165 640 209 690 q 98 522 121 590 q 75 374 75 454 m 237 359 l 237 374 q 248 466 237 422 q 281 543 258 510 q 336 596 302 576 q 416 616 370 616 q 496 596 463 616 q 552 543 530 576 q 584 466 573 510 q 595 374 595 422 l 595 359 q 584 266 595 310 q 552 189 574 222 q 496 136 530 155 q 417 117 463 117 q 336 136 370 117 q 281 189 302 155 q 248 266 258 222 q 237 359 237 310 m 611 1047 l 444 867 l 576 867 l 783 1047 l 611 1047 m 375 1047 l 241 867 l 366 867 l 536 1047 l 375 1047 z "},"ō":{"ha":833,"x_min":75,"x_max":757,"o":"m 75 374 l 75 359 q 98 211 75 279 q 165 93 121 143 q 273 14 209 43 q 417 -14 336 -14 q 561 14 497 -14 q 667 93 624 43 q 734 211 711 143 q 757 359 757 279 l 757 374 q 734 522 757 454 q 667 640 711 590 q 560 719 623 690 q 416 747 496 747 q 272 719 335 747 q 165 640 209 690 q 98 522 121 590 q 75 374 75 454 m 237 359 l 237 374 q 248 466 237 422 q 281 543 258 510 q 336 596 302 576 q 416 616 370 616 q 496 596 463 616 q 552 543 530 576 q 584 466 573 510 q 595 374 595 422 l 595 359 q 584 266 595 310 q 552 189 574 222 q 496 136 530 155 q 417 117 463 117 q 336 136 370 117 q 281 189 302 155 q 248 266 258 222 q 237 359 237 310 m 667 884 l 667 989 l 176 989 l 176 884 l 667 884 z "},"ø":{"ha":833,"x_min":75,"x_max":757,"o":"m 75 374 l 75 359 q 112 177 75 258 q 216 46 148 96 l 148 -94 l 245 -94 l 294 7 q 353 -9 322 -3 q 417 -14 383 -14 q 561 14 497 -14 q 667 93 624 43 q 734 211 711 143 q 757 359 757 279 l 757 374 q 747 476 757 427 q 716 566 736 525 q 677 629 700 600 q 625 680 654 658 l 694 822 l 597 822 l 549 723 q 486 741 519 735 q 416 747 452 747 q 272 719 335 747 q 165 640 209 690 q 98 522 121 590 q 75 374 75 454 m 237 359 l 237 374 q 248 466 237 422 q 281 543 258 510 q 336 596 302 576 q 416 616 370 616 q 454 612 436 616 q 488 600 472 608 l 284 184 q 249 262 260 217 q 237 359 237 307 m 595 374 l 595 359 q 584 266 595 310 q 552 189 574 222 q 496 136 530 155 q 417 117 463 117 q 384 120 400 117 q 353 128 368 123 l 554 537 q 570 507 563 523 q 581 474 576 491 q 591 426 588 451 q 595 374 595 401 z "},"ǿ":{"ha":833,"x_min":75,"x_max":757,"o":"m 75 374 l 75 359 q 112 177 75 258 q 216 46 148 96 l 148 -94 l 245 -94 l 294 7 q 353 -9 322 -3 q 417 -14 383 -14 q 561 14 497 -14 q 667 93 624 43 q 734 211 711 143 q 757 359 757 279 l 757 374 q 747 476 757 427 q 716 566 736 525 q 677 629 700 600 q 625 680 654 658 l 694 822 l 597 822 l 549 723 q 486 741 519 735 q 416 747 452 747 q 272 719 335 747 q 165 640 209 690 q 98 522 121 590 q 75 374 75 454 m 237 359 l 237 374 q 248 466 237 422 q 281 543 258 510 q 336 596 302 576 q 416 616 370 616 q 454 612 436 616 q 488 600 472 608 l 284 184 q 249 262 260 217 q 237 359 237 307 m 595 374 l 595 359 q 584 266 595 310 q 552 189 574 222 q 496 136 530 155 q 417 117 463 117 q 384 120 400 117 q 353 128 368 123 l 554 537 q 570 507 563 523 q 581 474 576 491 q 591 426 588 451 q 595 374 595 401 m 446 1016 l 321 831 l 446 831 l 631 1016 l 446 1016 z "},"õ":{"ha":833,"x_min":75,"x_max":757,"o":"m 75 374 l 75 359 q 98 211 75 279 q 165 93 121 143 q 273 14 209 43 q 417 -14 336 -14 q 561 14 497 -14 q 667 93 624 43 q 734 211 711 143 q 757 359 757 279 l 757 374 q 734 522 757 454 q 667 640 711 590 q 560 719 623 690 q 416 747 496 747 q 272 719 335 747 q 165 640 209 690 q 98 522 121 590 q 75 374 75 454 m 237 359 l 237 374 q 248 466 237 422 q 281 543 258 510 q 336 596 302 576 q 416 616 370 616 q 496 596 463 616 q 552 543 530 576 q 584 466 573 510 q 595 374 595 422 l 595 359 q 584 266 595 310 q 552 189 574 222 q 496 136 530 155 q 417 117 463 117 q 336 136 370 117 q 281 189 302 155 q 248 266 258 222 q 237 359 237 310 m 660 1039 l 576 1059 q 571 1032 576 1044 q 557 1010 566 1019 q 537 995 549 1000 q 511 989 524 989 q 462 999 485 989 q 418 1021 439 1008 q 372 1041 395 1031 q 321 1050 349 1050 q 262 1037 289 1050 q 218 1000 236 1023 q 188 948 199 977 q 178 888 178 919 l 262 870 q 274 909 263 892 q 302 930 285 925 q 327 936 315 935 q 353 933 340 936 q 391 922 373 930 q 427 903 408 913 q 467 886 446 894 q 517 879 488 879 q 575 892 549 879 q 621 928 602 905 q 649 979 639 950 q 660 1039 660 1008 z "},"ŕ":{"ha":833,"x_min":207,"x_max":747,"o":"m 612 747 q 474 712 536 747 q 366 615 411 677 l 366 632 l 359 734 l 207 734 l 207 0 l 369 0 l 369 453 q 401 511 382 486 q 447 552 420 536 q 505 577 472 569 q 578 585 537 585 q 650 581 614 585 q 724 569 686 577 l 747 729 q 689 742 726 736 q 612 747 652 747 m 450 1018 l 324 833 l 449 833 l 634 1018 l 450 1018 z "},"ř":{"ha":833,"x_min":156,"x_max":747,"o":"m 612 747 q 474 712 536 747 q 366 615 411 677 l 366 632 l 359 734 l 207 734 l 207 0 l 369 0 l 369 453 q 401 511 382 486 q 447 552 420 536 q 505 577 472 569 q 578 585 537 585 q 650 581 614 585 q 724 569 686 577 l 747 729 q 689 742 726 736 q 612 747 652 747 m 395 954 l 294 1047 l 156 1047 l 156 1034 l 344 865 l 446 865 l 634 1034 l 634 1047 l 495 1047 l 395 954 z "},"ŗ":{"ha":833,"x_min":182,"x_max":747,"o":"m 612 747 q 474 712 536 747 q 366 615 411 677 l 366 632 l 359 734 l 207 734 l 207 0 l 369 0 l 369 453 q 401 511 382 486 q 447 552 420 536 q 505 577 472 569 q 578 585 537 585 q 650 581 614 585 q 724 569 686 577 l 747 729 q 689 742 726 736 q 612 747 652 747 m 358 -83 l 358 -37 l 233 -37 l 233 -85 q 220 -181 233 -137 q 182 -267 208 -224 l 257 -317 q 333 -209 308 -273 q 358 -83 358 -144 z "},"ś":{"ha":833,"x_min":98,"x_max":743,"o":"m 585 199 q 577 166 585 181 q 553 140 569 152 q 503 116 534 125 q 429 107 471 107 q 368 114 398 107 q 313 135 337 120 q 273 173 289 149 q 255 230 257 196 l 98 230 q 119 140 98 184 q 183 62 141 96 q 286 7 224 28 q 427 -14 347 -14 q 556 2 498 -14 q 656 47 614 18 q 721 117 698 77 q 743 207 743 158 q 722 294 743 257 q 661 357 700 330 q 566 401 621 383 q 443 431 510 418 q 363 449 395 439 q 314 471 332 459 q 288 498 295 483 q 280 532 280 513 q 289 567 280 551 q 315 596 298 584 q 360 617 333 610 q 425 625 388 625 q 494 615 465 625 q 543 587 524 604 q 568 553 559 572 q 576 514 576 534 l 739 514 q 717 606 739 564 q 655 680 695 649 q 556 729 614 711 q 425 747 498 747 q 300 730 356 747 q 205 682 244 712 q 143 611 165 651 q 122 526 122 570 q 143 444 122 479 q 201 382 164 408 q 292 336 239 355 q 408 304 345 317 q 493 284 459 295 q 548 261 527 273 q 576 233 568 248 q 585 199 585 218 m 467 1018 l 341 833 l 466 833 l 651 1018 l 467 1018 z "},"š":{"ha":833,"x_min":98,"x_max":743,"o":"m 585 199 q 577 166 585 181 q 553 140 569 152 q 503 116 534 125 q 429 107 471 107 q 368 114 398 107 q 313 135 337 120 q 273 173 289 149 q 255 230 257 196 l 98 230 q 119 140 98 184 q 183 62 141 96 q 286 7 224 28 q 427 -14 347 -14 q 556 2 498 -14 q 656 47 614 18 q 721 117 698 77 q 743 207 743 158 q 722 294 743 257 q 661 357 700 330 q 566 401 621 383 q 443 431 510 418 q 363 449 395 439 q 314 471 332 459 q 288 498 295 483 q 280 532 280 513 q 289 567 280 551 q 315 596 298 584 q 360 617 333 610 q 425 625 388 625 q 494 615 465 625 q 543 587 524 604 q 568 553 559 572 q 576 514 576 534 l 739 514 q 717 606 739 564 q 655 680 695 649 q 556 729 614 711 q 425 747 498 747 q 300 730 356 747 q 205 682 244 712 q 143 611 165 651 q 122 526 122 570 q 143 444 122 479 q 201 382 164 408 q 292 336 239 355 q 408 304 345 317 q 493 284 459 295 q 548 261 527 273 q 576 233 568 248 q 585 199 585 218 m 412 954 l 311 1047 l 173 1047 l 173 1034 l 361 865 l 463 865 l 651 1034 l 651 1047 l 512 1047 l 412 954 z "},"ş":{"ha":833,"x_min":98,"x_max":743,"o":"m 585 199 q 577 166 585 181 q 553 140 569 152 q 503 116 534 125 q 429 107 471 107 q 368 114 398 107 q 313 135 337 120 q 273 173 289 149 q 255 230 257 196 l 98 230 q 119 140 98 184 q 183 62 141 96 q 286 7 224 28 q 427 -14 347 -14 q 556 2 498 -14 q 656 47 614 18 q 721 117 698 77 q 743 207 743 158 q 722 294 743 257 q 661 357 700 330 q 566 401 621 383 q 443 431 510 418 q 363 449 395 439 q 314 471 332 459 q 288 498 295 483 q 280 532 280 513 q 289 567 280 551 q 315 596 298 584 q 360 617 333 610 q 425 625 388 625 q 494 615 465 625 q 543 587 524 604 q 568 553 559 572 q 576 514 576 534 l 739 514 q 717 606 739 564 q 655 680 695 649 q 556 729 614 711 q 425 747 498 747 q 300 730 356 747 q 205 682 244 712 q 143 611 165 651 q 122 526 122 570 q 143 444 122 479 q 201 382 164 408 q 292 336 239 355 q 408 304 345 317 q 493 284 459 295 q 548 261 527 273 q 576 233 568 248 q 585 199 585 218 m 473 -4 l 354 -4 l 333 -98 q 379 -103 359 -100 q 412 -113 399 -106 q 430 -131 424 -120 q 435 -156 435 -141 q 428 -184 435 -173 q 408 -203 420 -196 q 378 -214 395 -210 q 342 -217 361 -217 l 347 -310 q 437 -300 397 -310 q 504 -273 476 -290 q 552 -224 535 -254 q 568 -158 568 -195 q 559 -108 568 -129 q 536 -74 551 -87 q 503 -52 522 -60 q 465 -41 485 -44 l 473 -4 z "},"ŝ":{"ha":833,"x_min":98,"x_max":743,"o":"m 585 199 q 577 166 585 181 q 553 140 569 152 q 503 116 534 125 q 429 107 471 107 q 368 114 398 107 q 313 135 337 120 q 273 173 289 149 q 255 230 257 196 l 98 230 q 119 140 98 184 q 183 62 141 96 q 286 7 224 28 q 427 -14 347 -14 q 556 2 498 -14 q 656 47 614 18 q 721 117 698 77 q 743 207 743 158 q 722 294 743 257 q 661 357 700 330 q 566 401 621 383 q 443 431 510 418 q 363 449 395 439 q 314 471 332 459 q 288 498 295 483 q 280 532 280 513 q 289 567 280 551 q 315 596 298 584 q 360 617 333 610 q 425 625 388 625 q 494 615 465 625 q 543 587 524 604 q 568 553 559 572 q 576 514 576 534 l 739 514 q 717 606 739 564 q 655 680 695 649 q 556 729 614 711 q 425 747 498 747 q 300 730 356 747 q 205 682 244 712 q 143 611 165 651 q 122 526 122 570 q 143 444 122 479 q 201 382 164 408 q 292 336 239 355 q 408 304 345 317 q 493 284 459 295 q 548 261 527 273 q 576 233 568 248 q 585 199 585 218 m 646 882 l 459 1046 l 364 1046 l 180 883 l 180 864 l 309 864 l 412 957 l 515 864 l 646 864 l 646 882 z "},"ŧ":{"ha":833,"x_min":90,"x_max":736,"o":"m 431 913 l 268 913 l 268 734 l 90 734 l 90 612 l 268 612 l 268 497 l 130 497 l 130 383 l 268 383 l 268 252 q 287 131 268 181 q 338 49 305 81 q 418 1 372 16 q 520 -14 465 -14 q 582 -11 551 -14 q 641 -3 612 -8 q 694 11 669 3 q 736 29 719 18 l 719 141 q 689 135 707 138 q 650 128 671 131 q 607 123 629 125 q 564 121 585 121 q 510 127 534 121 q 468 151 486 134 q 440 194 450 166 q 431 262 431 221 l 431 383 l 583 383 l 583 497 l 431 497 l 431 612 l 707 612 l 707 734 l 431 734 l 431 913 z "},"ť":{"ha":833,"x_min":77,"x_max":803,"o":"m 417 911 l 254 911 l 254 732 l 77 732 l 77 611 l 254 611 l 254 250 q 273 130 254 180 q 325 47 292 79 q 405 0 358 15 q 507 -16 451 -16 q 568 -13 537 -16 q 627 -4 599 -9 q 681 9 656 1 q 723 28 705 17 l 705 140 q 675 133 693 137 q 637 127 657 130 q 593 121 616 123 q 550 119 571 119 q 496 126 521 119 q 454 149 472 133 q 427 192 437 165 q 417 260 417 220 l 417 611 l 693 611 l 693 732 l 417 732 l 417 911 m 803 1055 l 803 1165 l 664 1165 l 664 1055 q 648 941 664 991 q 603 845 631 890 l 682 793 q 731 849 709 817 q 770 915 753 880 q 794 986 785 949 q 803 1055 803 1022 z "},"ú":{"ha":833,"x_min":111,"x_max":733,"o":"m 586 0 l 733 0 l 733 734 l 570 734 l 570 214 q 547 177 561 194 q 516 149 534 161 q 467 127 495 135 q 404 119 439 119 q 345 128 370 119 q 304 158 320 137 q 280 213 288 178 q 273 298 273 247 l 273 734 l 111 734 l 111 299 q 129 157 111 216 q 180 60 147 98 q 261 4 214 22 q 366 -14 309 -14 q 486 17 432 -14 q 576 102 539 47 l 586 0 m 474 1004 l 349 819 l 473 819 l 659 1004 l 474 1004 z "},"ŭ":{"ha":833,"x_min":111,"x_max":733,"o":"m 586 0 l 733 0 l 733 734 l 570 734 l 570 214 q 547 177 561 194 q 516 149 534 161 q 467 127 495 135 q 404 119 439 119 q 345 128 370 119 q 304 158 320 137 q 280 213 288 178 q 273 298 273 247 l 273 734 l 111 734 l 111 299 q 129 157 111 216 q 180 60 147 98 q 261 4 214 22 q 366 -14 309 -14 q 486 17 432 -14 q 576 102 539 47 l 586 0 m 639 1029 l 517 1029 q 512 993 517 1010 q 495 963 507 976 q 465 942 483 949 q 420 934 446 934 q 375 942 394 934 q 345 962 357 949 q 328 993 334 976 q 322 1029 322 1010 l 201 1029 q 216 951 201 987 q 260 891 232 916 q 329 852 289 866 q 420 838 370 838 q 511 852 471 838 q 581 891 551 866 q 624 952 608 916 q 639 1029 639 987 z "},"û":{"ha":833,"x_min":111,"x_max":733,"o":"m 586 0 l 733 0 l 733 734 l 570 734 l 570 214 q 547 177 561 194 q 516 149 534 161 q 467 127 495 135 q 404 119 439 119 q 345 128 370 119 q 304 158 320 137 q 280 213 288 178 q 273 298 273 247 l 273 734 l 111 734 l 111 299 q 129 157 111 216 q 180 60 147 98 q 261 4 214 22 q 366 -14 309 -14 q 486 17 432 -14 q 576 102 539 47 l 586 0 m 653 869 l 467 1032 l 372 1032 l 188 869 l 188 850 l 317 850 l 419 943 l 522 850 l 653 850 l 653 869 z "},"ü":{"ha":833,"x_min":111,"x_max":733,"o":"m 586 0 l 733 0 l 733 734 l 570 734 l 570 214 q 547 177 561 194 q 516 149 534 161 q 467 127 495 135 q 404 119 439 119 q 345 128 370 119 q 304 158 320 137 q 280 213 288 178 q 273 298 273 247 l 273 734 l 111 734 l 111 299 q 129 157 111 216 q 180 60 147 98 q 261 4 214 22 q 366 -14 309 -14 q 486 17 432 -14 q 576 102 539 47 l 586 0 m 176 932 q 199 875 176 898 q 261 852 222 852 q 323 875 300 852 q 346 932 346 898 q 323 988 346 965 q 261 1011 300 1011 q 199 988 222 1011 q 176 932 176 965 m 488 931 q 510 874 488 897 q 572 851 533 851 q 634 874 611 851 q 657 931 657 897 q 634 987 657 964 q 572 1010 612 1010 q 510 987 533 1010 q 488 931 488 964 z "},"ù":{"ha":833,"x_min":111,"x_max":733,"o":"m 586 0 l 733 0 l 733 734 l 570 734 l 570 214 q 547 177 561 194 q 516 149 534 161 q 467 127 495 135 q 404 119 439 119 q 345 128 370 119 q 304 158 320 137 q 280 213 288 178 q 273 298 273 247 l 273 734 l 111 734 l 111 299 q 129 157 111 216 q 180 60 147 98 q 261 4 214 22 q 366 -14 309 -14 q 486 17 432 -14 q 576 102 539 47 l 586 0 m 487 821 l 368 1006 l 184 1006 l 358 821 l 487 821 z "},"ư":{"ha":833,"x_min":98,"x_max":924,"o":"m 924 797 l 798 797 q 792 730 798 759 q 775 680 787 701 q 752 654 766 665 q 720 637 739 643 l 720 734 l 557 734 l 557 214 q 538 183 549 197 q 513 157 528 168 q 461 129 492 139 q 392 119 431 119 q 333 128 357 119 q 292 158 308 137 q 268 213 275 178 q 260 298 260 247 l 260 734 l 98 734 l 98 299 q 116 157 98 216 q 168 60 134 98 q 249 4 201 22 q 353 -14 296 -14 q 473 17 420 -14 q 564 102 527 47 l 573 0 l 720 0 l 720 530 q 873 611 823 546 q 924 797 923 676 z "},"ű":{"ha":833,"x_min":111,"x_max":783,"o":"m 586 0 l 733 0 l 733 734 l 570 734 l 570 214 q 547 177 561 194 q 516 149 534 161 q 467 127 495 135 q 404 119 439 119 q 345 128 370 119 q 304 158 320 137 q 280 213 288 178 q 273 298 273 247 l 273 734 l 111 734 l 111 299 q 129 157 111 216 q 180 60 147 98 q 261 4 214 22 q 366 -14 309 -14 q 486 17 432 -14 q 576 102 539 47 l 586 0 m 612 1034 l 445 853 l 576 853 l 783 1034 l 612 1034 m 376 1034 l 242 853 l 366 853 l 537 1034 l 376 1034 z "},"ū":{"ha":833,"x_min":111,"x_max":733,"o":"m 586 0 l 733 0 l 733 734 l 570 734 l 570 214 q 547 177 561 194 q 516 149 534 161 q 467 127 495 135 q 404 119 439 119 q 345 128 370 119 q 304 158 320 137 q 280 213 288 178 q 273 298 273 247 l 273 734 l 111 734 l 111 299 q 129 157 111 216 q 180 60 147 98 q 261 4 214 22 q 366 -14 309 -14 q 486 17 432 -14 q 576 102 539 47 l 586 0 m 667 871 l 667 977 l 176 977 l 176 871 l 667 871 z "},"ų":{"ha":833,"x_min":111,"x_max":752,"o":"m 725 0 l 733 0 l 733 734 l 570 734 l 570 214 q 548 179 561 195 q 519 151 536 163 q 469 127 498 136 q 404 119 441 119 q 345 128 370 119 q 304 158 320 137 q 280 213 288 178 q 273 298 273 247 l 273 734 l 111 734 l 111 299 q 129 157 111 216 q 180 60 147 98 q 261 4 214 22 q 366 -14 309 -14 q 486 17 432 -14 q 576 102 539 47 l 585 7 q 553 -19 568 -5 q 527 -47 538 -33 q 496 -100 507 -73 q 486 -155 486 -127 q 497 -213 486 -188 q 528 -256 508 -239 q 572 -281 547 -273 q 628 -290 598 -290 q 704 -280 674 -290 q 752 -260 733 -271 l 725 -165 q 699 -175 715 -170 q 663 -180 684 -181 q 626 -167 637 -180 q 614 -132 614 -153 q 621 -95 614 -113 q 640 -60 627 -77 q 675 -28 654 -43 q 725 0 696 -14 z "},"ů":{"ha":833,"x_min":111,"x_max":733,"o":"m 586 0 l 733 0 l 733 734 l 570 734 l 570 214 q 547 177 561 194 q 516 149 534 161 q 467 127 495 135 q 404 119 439 119 q 345 128 370 119 q 304 158 320 137 q 280 213 288 178 q 273 298 273 247 l 273 734 l 111 734 l 111 299 q 129 157 111 216 q 180 60 147 98 q 261 4 214 22 q 366 -14 309 -14 q 486 17 432 -14 q 576 102 539 47 l 586 0 m 278 942 q 289 889 278 913 q 320 848 300 865 q 365 821 338 830 q 420 811 391 811 q 475 821 450 811 q 519 848 500 830 q 549 889 538 865 q 559 942 559 913 q 549 995 559 970 q 519 1038 538 1020 q 475 1065 500 1055 q 420 1076 450 1076 q 365 1065 391 1076 q 320 1038 339 1055 q 289 995 300 1020 q 278 942 278 970 m 351 942 q 357 970 351 958 q 371 993 362 983 q 393 1007 380 1002 q 420 1013 406 1013 q 447 1007 435 1013 q 468 994 459 1002 q 482 971 477 984 q 487 942 487 958 q 482 914 487 926 q 467 892 477 901 q 446 878 458 883 q 420 873 434 873 q 393 879 406 873 q 372 892 380 884 q 357 915 362 902 q 351 942 351 927 z "},"ũ":{"ha":833,"x_min":111,"x_max":733,"o":"m 586 0 l 733 0 l 733 734 l 570 734 l 570 214 q 547 177 561 194 q 516 149 534 161 q 467 127 495 135 q 404 119 439 119 q 345 128 370 119 q 304 158 320 137 q 280 213 288 178 q 273 298 273 247 l 273 734 l 111 734 l 111 299 q 129 157 111 216 q 180 60 147 98 q 261 4 214 22 q 366 -14 309 -14 q 486 17 432 -14 q 576 102 539 47 l 586 0 m 660 1025 l 576 1046 q 571 1018 576 1031 q 557 997 566 1006 q 537 981 549 987 q 511 976 524 976 q 462 985 485 976 q 418 1007 439 995 q 372 1027 395 1018 q 321 1037 349 1037 q 262 1023 289 1037 q 218 986 236 1009 q 188 935 199 964 q 178 875 178 905 l 262 857 q 274 895 263 879 q 302 916 285 911 q 327 922 315 922 q 353 920 340 922 q 391 908 373 917 q 427 890 408 899 q 467 873 446 880 q 517 865 488 865 q 575 879 549 865 q 621 915 602 892 q 649 966 639 937 q 660 1025 660 995 z "},"ẃ":{"ha":833,"x_min":24,"x_max":804,"o":"m 166 0 l 304 0 l 397 416 l 413 507 l 430 416 l 525 0 l 663 0 l 804 734 l 657 734 l 591 286 l 578 197 l 563 286 l 467 734 l 361 734 l 265 284 l 250 199 l 239 284 l 171 734 l 24 734 l 166 0 m 469 1004 l 343 819 l 468 819 l 653 1004 l 469 1004 z "},"ŵ":{"ha":833,"x_min":24,"x_max":804,"o":"m 166 0 l 304 0 l 397 416 l 413 507 l 430 416 l 525 0 l 663 0 l 804 734 l 657 734 l 591 286 l 578 197 l 563 286 l 467 734 l 361 734 l 265 284 l 250 199 l 239 284 l 171 734 l 24 734 l 166 0 m 648 869 l 461 1032 l 366 1032 l 182 869 l 182 850 l 311 850 l 414 943 l 517 850 l 648 850 l 648 869 z "},"ẅ":{"ha":833,"x_min":24,"x_max":804,"o":"m 166 0 l 304 0 l 397 416 l 413 507 l 430 416 l 525 0 l 663 0 l 804 734 l 657 734 l 591 286 l 578 197 l 563 286 l 467 734 l 361 734 l 265 284 l 250 199 l 239 284 l 171 734 l 24 734 l 166 0 m 171 932 q 194 875 171 898 q 256 852 217 852 q 317 875 294 852 q 340 932 340 898 q 317 988 340 965 q 256 1011 294 1011 q 194 988 216 1011 q 171 932 171 965 m 482 931 q 505 874 482 897 q 567 851 528 851 q 629 874 606 851 q 652 931 652 897 q 629 987 652 964 q 567 1010 606 1010 q 505 987 528 1010 q 482 931 482 964 z "},"ẁ":{"ha":833,"x_min":24,"x_max":804,"o":"m 166 0 l 304 0 l 397 416 l 413 507 l 430 416 l 525 0 l 663 0 l 804 734 l 657 734 l 591 286 l 578 197 l 563 286 l 467 734 l 361 734 l 265 284 l 250 199 l 239 284 l 171 734 l 24 734 l 166 0 m 481 821 l 362 1006 l 178 1006 l 353 821 l 481 821 z "},"ý":{"ha":833,"x_min":40,"x_max":813,"o":"m 197 -296 q 291 -278 251 -296 q 360 -231 331 -259 q 409 -172 389 -204 q 441 -111 428 -140 l 813 734 l 633 734 l 456 283 l 426 205 l 401 286 l 218 734 l 40 734 l 353 33 l 307 -55 q 291 -83 299 -70 q 269 -115 282 -97 q 235 -146 254 -132 q 193 -160 216 -160 q 164 -159 182 -160 q 134 -157 147 -158 l 111 -284 q 152 -293 131 -289 q 197 -296 174 -296 m 490 1004 l 364 819 l 489 819 l 674 1004 l 490 1004 z "},"ŷ":{"ha":833,"x_min":40,"x_max":813,"o":"m 197 -296 q 291 -278 251 -296 q 360 -231 331 -259 q 409 -172 389 -204 q 441 -111 428 -140 l 813 734 l 633 734 l 456 283 l 426 205 l 401 286 l 218 734 l 40 734 l 353 33 l 307 -55 q 291 -83 299 -70 q 269 -115 282 -97 q 235 -146 254 -132 q 193 -160 216 -160 q 164 -159 182 -160 q 134 -157 147 -158 l 111 -284 q 152 -293 131 -289 q 197 -296 174 -296 m 669 869 l 482 1032 l 387 1032 l 203 869 l 203 850 l 332 850 l 435 943 l 538 850 l 669 850 l 669 869 z "},"ÿ":{"ha":833,"x_min":40,"x_max":813,"o":"m 197 -296 q 291 -278 251 -296 q 360 -231 331 -259 q 409 -172 389 -204 q 441 -111 428 -140 l 813 734 l 633 734 l 456 283 l 426 205 l 401 286 l 218 734 l 40 734 l 353 33 l 307 -55 q 291 -83 299 -70 q 269 -115 282 -97 q 235 -146 254 -132 q 193 -160 216 -160 q 164 -159 182 -160 q 134 -157 147 -158 l 111 -284 q 152 -293 131 -289 q 197 -296 174 -296 m 191 932 q 214 875 191 898 q 276 852 237 852 q 338 875 315 852 q 361 932 361 898 q 338 988 361 965 q 276 1011 315 1011 q 214 988 237 1011 q 191 932 191 965 m 503 931 q 525 874 503 897 q 587 851 548 851 q 649 874 626 851 q 672 931 672 897 q 649 987 672 964 q 587 1010 627 1010 q 525 987 548 1010 q 503 931 503 964 z "},"ỳ":{"ha":833,"x_min":40,"x_max":813,"o":"m 197 -296 q 291 -278 251 -296 q 360 -231 331 -259 q 409 -172 389 -204 q 441 -111 428 -140 l 813 734 l 633 734 l 456 283 l 426 205 l 401 286 l 218 734 l 40 734 l 353 33 l 307 -55 q 291 -83 299 -70 q 269 -115 282 -97 q 235 -146 254 -132 q 193 -160 216 -160 q 164 -159 182 -160 q 134 -157 147 -158 l 111 -284 q 152 -293 131 -289 q 197 -296 174 -296 m 502 821 l 382 1006 l 199 1006 l 373 821 l 502 821 z "},"ź":{"ha":833,"x_min":92,"x_max":755,"o":"m 309 131 l 735 631 l 735 734 l 100 734 l 100 602 l 514 602 l 92 106 l 92 0 l 755 0 l 755 131 l 309 131 m 498 1004 l 373 819 l 498 819 l 683 1004 l 498 1004 z "},"ž":{"ha":833,"x_min":92,"x_max":755,"o":"m 309 131 l 735 631 l 735 734 l 100 734 l 100 602 l 514 602 l 92 106 l 92 0 l 755 0 l 755 131 l 309 131 m 443 940 l 342 1033 l 204 1033 l 204 1019 l 392 850 l 494 850 l 682 1020 l 682 1033 l 543 1033 l 443 940 z "},"ż":{"ha":833,"x_min":92,"x_max":755,"o":"m 309 131 l 735 631 l 735 734 l 100 734 l 100 602 l 514 602 l 92 106 l 92 0 l 755 0 l 755 131 l 309 131 m 351 933 q 375 872 351 897 q 442 847 399 847 q 510 872 486 847 q 534 933 534 897 q 510 995 534 970 q 442 1020 486 1020 q 375 995 399 1020 q 351 933 351 970 z "},"`":{"ha":833,"x_min":280,"x_max":583,"o":"m 583 818 l 464 1003 l 280 1003 l 454 818 l 583 818 z "},"´":{"ha":833,"x_min":267,"x_max":577,"o":"m 393 1003 l 267 818 l 392 818 l 577 1003 l 393 1003 z "},"ˆ":{"ha":833,"x_min":106,"x_max":571,"o":"m 571 865 l 385 1028 l 290 1028 l 106 865 l 106 846 l 235 846 l 337 939 l 440 846 l 571 846 l 571 865 z "},"˜":{"ha":833,"x_min":90,"x_max":572,"o":"m 572 1019 l 488 1040 q 483 1012 488 1025 q 469 991 477 1000 q 449 975 461 981 q 422 970 436 970 q 374 979 397 970 q 330 1001 351 989 q 284 1021 307 1012 q 233 1031 260 1031 q 174 1017 201 1031 q 130 980 148 1003 q 100 928 111 958 q 90 869 90 899 l 174 850 q 186 889 175 873 q 214 910 197 905 q 239 916 227 916 q 264 913 252 916 q 302 902 285 911 q 339 884 320 893 q 379 867 357 874 q 429 859 400 859 q 487 872 460 859 q 532 909 513 886 q 561 960 551 930 q 572 1019 572 989 z "},"¯":{"ha":833,"x_min":180,"x_max":671,"o":"m 671 882 l 671 987 l 180 987 l 180 882 l 671 882 z "},"˘":{"ha":833,"x_min":205,"x_max":643,"o":"m 643 983 l 522 983 q 516 946 522 964 q 499 916 511 929 q 469 895 487 903 q 425 887 450 887 q 379 895 398 887 q 349 916 361 903 q 332 946 338 929 q 326 983 326 964 l 205 983 q 220 905 205 940 q 264 844 236 869 q 333 805 293 819 q 425 791 374 791 q 515 805 475 791 q 585 844 555 819 q 628 905 612 869 q 643 983 643 941 z "},"˙":{"ha":833,"x_min":328,"x_max":511,"o":"m 328 923 q 352 862 328 886 q 419 837 376 837 q 487 862 463 837 q 511 923 511 886 q 487 985 511 960 q 419 1010 463 1010 q 352 985 376 1010 q 328 923 328 960 z "},"¨":{"ha":833,"x_min":186,"x_max":667,"o":"m 186 928 q 209 871 186 894 q 271 848 232 848 q 332 871 309 848 q 355 928 355 894 q 332 984 355 961 q 271 1007 309 1007 q 209 984 231 1007 q 186 928 186 961 m 497 927 q 520 870 497 893 q 582 847 543 847 q 644 870 621 847 q 667 927 667 893 q 644 983 667 960 q 582 1006 621 1006 q 520 983 543 1006 q 497 927 497 960 z "},"˚":{"ha":833,"x_min":275,"x_max":557,"o":"m 275 858 q 287 805 275 829 q 317 764 298 781 q 362 736 336 746 q 418 727 388 727 q 472 736 447 727 q 516 764 497 746 q 546 805 535 781 q 557 858 557 829 q 546 911 557 886 q 516 954 535 936 q 472 981 497 971 q 418 991 447 991 q 362 981 389 991 q 317 954 336 971 q 287 911 298 936 q 275 858 275 886 m 349 858 q 354 886 349 873 q 368 909 359 899 q 391 923 378 918 q 418 928 404 928 q 444 923 432 928 q 465 909 456 918 q 479 887 474 900 q 484 858 484 873 q 479 830 484 842 q 465 808 474 817 q 444 794 456 799 q 418 789 431 789 q 390 794 403 789 q 369 808 378 800 q 354 830 359 818 q 349 858 349 843 z "},"˝":{"ha":833,"x_min":153,"x_max":694,"o":"m 522 1029 l 355 849 l 487 849 l 694 1029 l 522 1029 m 286 1029 l 153 849 l 277 849 l 448 1029 l 286 1029 z "},"ˇ":{"ha":833,"x_min":184,"x_max":663,"o":"m 423 936 l 323 1029 l 184 1029 l 184 1015 l 372 846 l 474 846 l 663 1016 l 663 1029 l 524 1029 l 423 936 z "},"̣":{"ha":833,"x_min":-505,"x_max":-312,"o":"m -505 -155 q -479 -217 -505 -192 q -408 -241 -454 -241 q -337 -217 -363 -241 q -312 -155 -312 -192 q -337 -93 -312 -118 q -408 -68 -362 -68 q -479 -93 -454 -68 q -505 -155 -505 -118 z "},"¸":{"ha":833,"x_min":305,"x_max":541,"o":"m 446 2 l 326 2 l 305 -92 q 351 -97 332 -94 q 384 -107 371 -100 q 402 -124 396 -114 q 408 -150 408 -135 q 400 -178 408 -167 q 380 -197 393 -190 q 351 -208 368 -204 q 314 -211 334 -211 l 319 -304 q 409 -294 370 -304 q 476 -267 448 -284 q 524 -218 507 -248 q 541 -152 541 -189 q 532 -102 541 -123 q 509 -68 523 -81 q 475 -46 494 -54 q 437 -35 457 -38 l 446 2 z "},"˛":{"ha":833,"x_min":263,"x_max":530,"o":"m 503 0 l 418 39 q 358 4 385 24 q 312 -38 332 -16 q 276 -95 288 -65 q 263 -155 263 -125 q 274 -213 263 -188 q 304 -256 286 -239 q 350 -281 324 -273 q 406 -290 376 -290 q 481 -280 451 -290 q 530 -260 511 -271 l 502 -165 q 476 -175 492 -170 q 441 -180 461 -181 q 403 -167 414 -180 q 392 -132 392 -153 q 399 -92 392 -111 q 422 -54 407 -72 q 455 -26 435 -39 q 503 0 475 -12 z "},"":{"ha":833,"x_min":195,"x_max":370,"o":"m 370 119 l 370 166 l 245 166 l 245 117 q 232 22 245 66 q 195 -64 220 -22 l 269 -115 q 345 -6 320 -70 q 370 119 370 58 z "},"\r":{"ha":833,"x_min":0,"x_max":0,"o":""},"«":{"ha":833,"x_min":134,"x_max":685,"o":"m 272 340 l 440 611 l 329 611 l 134 347 l 134 334 l 329 70 l 440 70 l 272 340 m 516 340 l 684 611 l 573 611 l 378 347 l 378 334 l 573 70 l 684 70 l 516 340 z "},"µ":{"ha":833,"x_min":121,"x_max":738,"o":"m 283 734 l 121 734 l 121 -282 l 283 -282 l 283 26 q 343 -4 309 6 q 419 -14 377 -14 q 480 -7 452 -14 q 532 15 508 1 q 559 36 547 24 q 584 61 572 47 l 589 0 l 738 0 l 738 734 l 575 734 l 575 203 q 558 175 568 188 q 534 151 548 161 q 485 126 514 135 q 418 118 456 118 q 364 126 389 118 q 321 155 339 134 q 293 215 303 177 q 283 313 283 253 l 283 734 z "},"»":{"ha":833,"x_min":158,"x_max":711,"o":"m 269 635 l 158 635 l 326 363 l 158 93 l 269 93 l 465 357 l 465 370 l 269 635 m 516 635 l 405 635 l 573 363 l 405 93 l 516 93 l 711 357 l 711 370 l 516 635 z "},"ı":{"ha":833,"x_min":136,"x_max":754,"o":"m 136 734 l 136 599 l 368 599 l 368 134 l 136 134 l 136 0 l 754 0 l 754 134 l 532 134 l 532 734 l 136 734 z "},"Ĳ":{"ha":833,"x_min":86,"x_max":747,"o":"m 218 0 l 218 987 l 86 987 l 86 0 l 218 0 m 615 987 l 615 218 q 611 166 615 190 q 595 127 606 143 q 563 102 583 111 q 515 93 544 93 q 446 123 472 93 q 420 218 420 153 l 289 218 q 306 115 289 159 q 353 43 323 72 q 424 1 382 15 q 515 -13 466 -13 q 617 3 574 -13 q 690 48 661 18 q 733 121 719 78 q 747 218 747 164 l 747 987 l 615 987 z "}}}
